G04 #@! TF.GenerationSoftware,KiCad,Pcbnew,7.0.8*
G04 #@! TF.CreationDate,2025-05-19T15:23:48+02:00*
G04 #@! TF.ProjectId,AXINT_CE6C_CRESUS,4158494e-545f-4434-9536-435f43524553,rev?*
G04 #@! TF.SameCoordinates,Original*
G04 #@! TF.FileFunction,Paste,Top*
G04 #@! TF.FilePolarity,Positive*
%FSLAX46Y46*%
G04 Gerber Fmt 4.6, Leading zero omitted, Abs format (unit mm)*
G04 Created by KiCad (PCBNEW 7.0.8) date 2025-05-19 15:23:48*
%MOMM*%
%LPD*%
G01*
G04 APERTURE LIST*
G04 Aperture macros list*
%AMRoundRect*
0 Rectangle with rounded corners*
0 $1 Rounding radius*
0 $2 $3 $4 $5 $6 $7 $8 $9 X,Y pos of 4 corners*
0 Add a 4 corners polygon primitive as box body*
4,1,4,$2,$3,$4,$5,$6,$7,$8,$9,$2,$3,0*
0 Add four circle primitives for the rounded corners*
1,1,$1+$1,$2,$3*
1,1,$1+$1,$4,$5*
1,1,$1+$1,$6,$7*
1,1,$1+$1,$8,$9*
0 Add four rect primitives between the rounded corners*
20,1,$1+$1,$2,$3,$4,$5,0*
20,1,$1+$1,$4,$5,$6,$7,0*
20,1,$1+$1,$6,$7,$8,$9,0*
20,1,$1+$1,$8,$9,$2,$3,0*%
G04 Aperture macros list end*
%ADD10RoundRect,0.218750X0.218750X0.256250X-0.218750X0.256250X-0.218750X-0.256250X0.218750X-0.256250X0*%
%ADD11RoundRect,0.218750X-0.218750X-0.256250X0.218750X-0.256250X0.218750X0.256250X-0.218750X0.256250X0*%
%ADD12RoundRect,0.170000X-0.170000X-0.210000X0.170000X-0.210000X0.170000X0.210000X-0.170000X0.210000X0*%
%ADD13RoundRect,0.100000X-0.625000X-0.100000X0.625000X-0.100000X0.625000X0.100000X-0.625000X0.100000X0*%
%ADD14RoundRect,0.225000X-0.225000X-0.250000X0.225000X-0.250000X0.225000X0.250000X-0.225000X0.250000X0*%
%ADD15RoundRect,0.225000X0.225000X0.250000X-0.225000X0.250000X-0.225000X-0.250000X0.225000X-0.250000X0*%
%ADD16RoundRect,0.200000X-0.275000X0.200000X-0.275000X-0.200000X0.275000X-0.200000X0.275000X0.200000X0*%
%ADD17RoundRect,0.200000X-0.200000X-0.275000X0.200000X-0.275000X0.200000X0.275000X-0.200000X0.275000X0*%
%ADD18RoundRect,0.200000X0.200000X0.275000X-0.200000X0.275000X-0.200000X-0.275000X0.200000X-0.275000X0*%
%ADD19RoundRect,0.200000X0.275000X-0.200000X0.275000X0.200000X-0.275000X0.200000X-0.275000X-0.200000X0*%
%ADD20R,2.440000X1.120000*%
%ADD21R,0.508000X1.320800*%
%ADD22RoundRect,0.225000X0.250000X-0.225000X0.250000X0.225000X-0.250000X0.225000X-0.250000X-0.225000X0*%
%ADD23RoundRect,0.225000X-0.250000X0.225000X-0.250000X-0.225000X0.250000X-0.225000X0.250000X0.225000X0*%
%ADD24RoundRect,0.150000X-0.587500X-0.150000X0.587500X-0.150000X0.587500X0.150000X-0.587500X0.150000X0*%
%ADD25R,1.460500X0.558800*%
%ADD26R,1.473200X0.355600*%
%ADD27R,1.560000X0.650000*%
%ADD28R,0.600000X0.450000*%
%ADD29RoundRect,0.250000X0.325000X0.650000X-0.325000X0.650000X-0.325000X-0.650000X0.325000X-0.650000X0*%
%ADD30RoundRect,0.250000X-0.650000X0.325000X-0.650000X-0.325000X0.650000X-0.325000X0.650000X0.325000X0*%
%ADD31R,3.400000X1.300000*%
%ADD32R,0.812800X0.381000*%
%ADD33R,0.381000X0.812800*%
%ADD34R,1.461999X0.354800*%
%ADD35RoundRect,0.150000X-0.825000X-0.150000X0.825000X-0.150000X0.825000X0.150000X-0.825000X0.150000X0*%
%ADD36R,0.450000X0.600000*%
%ADD37R,1.461999X0.507200*%
%ADD38R,0.507200X1.461999*%
%ADD39RoundRect,0.150000X0.587500X0.150000X-0.587500X0.150000X-0.587500X-0.150000X0.587500X-0.150000X0*%
G04 APERTURE END LIST*
G36*
X140338359Y-52152034D02*
G01*
X138972025Y-52152034D01*
X138972025Y-50785700D01*
X140338359Y-50785700D01*
X140338359Y-52152034D01*
G37*
G36*
X140338359Y-53718367D02*
G01*
X138972025Y-53718367D01*
X138972025Y-52352033D01*
X140338359Y-52352033D01*
X140338359Y-53718367D01*
G37*
G36*
X140338359Y-55284700D02*
G01*
X138972025Y-55284700D01*
X138972025Y-53918366D01*
X140338359Y-53918366D01*
X140338359Y-55284700D01*
G37*
G36*
X141904692Y-52152034D02*
G01*
X140538358Y-52152034D01*
X140538358Y-50785700D01*
X141904692Y-50785700D01*
X141904692Y-52152034D01*
G37*
G36*
X141904692Y-53718367D02*
G01*
X140538358Y-53718367D01*
X140538358Y-52352033D01*
X141904692Y-52352033D01*
X141904692Y-53718367D01*
G37*
G36*
X141904692Y-55284700D02*
G01*
X140538358Y-55284700D01*
X140538358Y-53918366D01*
X141904692Y-53918366D01*
X141904692Y-55284700D01*
G37*
G36*
X143471025Y-52152034D02*
G01*
X142104691Y-52152034D01*
X142104691Y-50785700D01*
X143471025Y-50785700D01*
X143471025Y-52152034D01*
G37*
G36*
X143471025Y-53718367D02*
G01*
X142104691Y-53718367D01*
X142104691Y-52352033D01*
X143471025Y-52352033D01*
X143471025Y-53718367D01*
G37*
G36*
X143471025Y-55284700D02*
G01*
X142104691Y-55284700D01*
X142104691Y-53918366D01*
X143471025Y-53918366D01*
X143471025Y-55284700D01*
G37*
G36*
X140338359Y-112223034D02*
G01*
X138972025Y-112223034D01*
X138972025Y-110856700D01*
X140338359Y-110856700D01*
X140338359Y-112223034D01*
G37*
G36*
X140338359Y-113789367D02*
G01*
X138972025Y-113789367D01*
X138972025Y-112423033D01*
X140338359Y-112423033D01*
X140338359Y-113789367D01*
G37*
G36*
X140338359Y-115355700D02*
G01*
X138972025Y-115355700D01*
X138972025Y-113989366D01*
X140338359Y-113989366D01*
X140338359Y-115355700D01*
G37*
G36*
X141904692Y-112223034D02*
G01*
X140538358Y-112223034D01*
X140538358Y-110856700D01*
X141904692Y-110856700D01*
X141904692Y-112223034D01*
G37*
G36*
X141904692Y-113789367D02*
G01*
X140538358Y-113789367D01*
X140538358Y-112423033D01*
X141904692Y-112423033D01*
X141904692Y-113789367D01*
G37*
G36*
X141904692Y-115355700D02*
G01*
X140538358Y-115355700D01*
X140538358Y-113989366D01*
X141904692Y-113989366D01*
X141904692Y-115355700D01*
G37*
G36*
X143471025Y-112223034D02*
G01*
X142104691Y-112223034D01*
X142104691Y-110856700D01*
X143471025Y-110856700D01*
X143471025Y-112223034D01*
G37*
G36*
X143471025Y-113789367D02*
G01*
X142104691Y-113789367D01*
X142104691Y-112423033D01*
X143471025Y-112423033D01*
X143471025Y-113789367D01*
G37*
G36*
X143471025Y-115355700D02*
G01*
X142104691Y-115355700D01*
X142104691Y-113989366D01*
X143471025Y-113989366D01*
X143471025Y-115355700D01*
G37*
G36*
X140338359Y-83749634D02*
G01*
X138972025Y-83749634D01*
X138972025Y-82383300D01*
X140338359Y-82383300D01*
X140338359Y-83749634D01*
G37*
G36*
X140338359Y-85315967D02*
G01*
X138972025Y-85315967D01*
X138972025Y-83949633D01*
X140338359Y-83949633D01*
X140338359Y-85315967D01*
G37*
G36*
X140338359Y-86882300D02*
G01*
X138972025Y-86882300D01*
X138972025Y-85515966D01*
X140338359Y-85515966D01*
X140338359Y-86882300D01*
G37*
G36*
X141904692Y-83749634D02*
G01*
X140538358Y-83749634D01*
X140538358Y-82383300D01*
X141904692Y-82383300D01*
X141904692Y-83749634D01*
G37*
G36*
X141904692Y-85315967D02*
G01*
X140538358Y-85315967D01*
X140538358Y-83949633D01*
X141904692Y-83949633D01*
X141904692Y-85315967D01*
G37*
G36*
X141904692Y-86882300D02*
G01*
X140538358Y-86882300D01*
X140538358Y-85515966D01*
X141904692Y-85515966D01*
X141904692Y-86882300D01*
G37*
G36*
X143471025Y-83749634D02*
G01*
X142104691Y-83749634D01*
X142104691Y-82383300D01*
X143471025Y-82383300D01*
X143471025Y-83749634D01*
G37*
G36*
X143471025Y-85315967D02*
G01*
X142104691Y-85315967D01*
X142104691Y-83949633D01*
X143471025Y-83949633D01*
X143471025Y-85315967D01*
G37*
G36*
X143471025Y-86882300D02*
G01*
X142104691Y-86882300D01*
X142104691Y-85515966D01*
X143471025Y-85515966D01*
X143471025Y-86882300D01*
G37*
G36*
X140163034Y-128377434D02*
G01*
X138796700Y-128377434D01*
X138796700Y-127011100D01*
X140163034Y-127011100D01*
X140163034Y-128377434D01*
G37*
G36*
X140163034Y-129943767D02*
G01*
X138796700Y-129943767D01*
X138796700Y-128577433D01*
X140163034Y-128577433D01*
X140163034Y-129943767D01*
G37*
G36*
X140163034Y-131510100D02*
G01*
X138796700Y-131510100D01*
X138796700Y-130143766D01*
X140163034Y-130143766D01*
X140163034Y-131510100D01*
G37*
G36*
X141729367Y-128377434D02*
G01*
X140363033Y-128377434D01*
X140363033Y-127011100D01*
X141729367Y-127011100D01*
X141729367Y-128377434D01*
G37*
G36*
X141729367Y-129943767D02*
G01*
X140363033Y-129943767D01*
X140363033Y-128577433D01*
X141729367Y-128577433D01*
X141729367Y-129943767D01*
G37*
G36*
X141729367Y-131510100D02*
G01*
X140363033Y-131510100D01*
X140363033Y-130143766D01*
X141729367Y-130143766D01*
X141729367Y-131510100D01*
G37*
G36*
X143295700Y-128377434D02*
G01*
X141929366Y-128377434D01*
X141929366Y-127011100D01*
X143295700Y-127011100D01*
X143295700Y-128377434D01*
G37*
G36*
X143295700Y-129943767D02*
G01*
X141929366Y-129943767D01*
X141929366Y-128577433D01*
X143295700Y-128577433D01*
X143295700Y-129943767D01*
G37*
G36*
X143295700Y-131510100D02*
G01*
X141929366Y-131510100D01*
X141929366Y-130143766D01*
X143295700Y-130143766D01*
X143295700Y-131510100D01*
G37*
G36*
X140338359Y-68890634D02*
G01*
X138972025Y-68890634D01*
X138972025Y-67524300D01*
X140338359Y-67524300D01*
X140338359Y-68890634D01*
G37*
G36*
X140338359Y-70456967D02*
G01*
X138972025Y-70456967D01*
X138972025Y-69090633D01*
X140338359Y-69090633D01*
X140338359Y-70456967D01*
G37*
G36*
X140338359Y-72023300D02*
G01*
X138972025Y-72023300D01*
X138972025Y-70656966D01*
X140338359Y-70656966D01*
X140338359Y-72023300D01*
G37*
G36*
X141904692Y-68890634D02*
G01*
X140538358Y-68890634D01*
X140538358Y-67524300D01*
X141904692Y-67524300D01*
X141904692Y-68890634D01*
G37*
G36*
X141904692Y-70456967D02*
G01*
X140538358Y-70456967D01*
X140538358Y-69090633D01*
X141904692Y-69090633D01*
X141904692Y-70456967D01*
G37*
G36*
X141904692Y-72023300D02*
G01*
X140538358Y-72023300D01*
X140538358Y-70656966D01*
X141904692Y-70656966D01*
X141904692Y-72023300D01*
G37*
G36*
X143471025Y-68890634D02*
G01*
X142104691Y-68890634D01*
X142104691Y-67524300D01*
X143471025Y-67524300D01*
X143471025Y-68890634D01*
G37*
G36*
X143471025Y-70456967D02*
G01*
X142104691Y-70456967D01*
X142104691Y-69090633D01*
X143471025Y-69090633D01*
X143471025Y-70456967D01*
G37*
G36*
X143471025Y-72023300D02*
G01*
X142104691Y-72023300D01*
X142104691Y-70656966D01*
X143471025Y-70656966D01*
X143471025Y-72023300D01*
G37*
G36*
X140338359Y-97440234D02*
G01*
X138972025Y-97440234D01*
X138972025Y-96073900D01*
X140338359Y-96073900D01*
X140338359Y-97440234D01*
G37*
G36*
X140338359Y-99006567D02*
G01*
X138972025Y-99006567D01*
X138972025Y-97640233D01*
X140338359Y-97640233D01*
X140338359Y-99006567D01*
G37*
G36*
X140338359Y-100572900D02*
G01*
X138972025Y-100572900D01*
X138972025Y-99206566D01*
X140338359Y-99206566D01*
X140338359Y-100572900D01*
G37*
G36*
X141904692Y-97440234D02*
G01*
X140538358Y-97440234D01*
X140538358Y-96073900D01*
X141904692Y-96073900D01*
X141904692Y-97440234D01*
G37*
G36*
X141904692Y-99006567D02*
G01*
X140538358Y-99006567D01*
X140538358Y-97640233D01*
X141904692Y-97640233D01*
X141904692Y-99006567D01*
G37*
G36*
X141904692Y-100572900D02*
G01*
X140538358Y-100572900D01*
X140538358Y-99206566D01*
X141904692Y-99206566D01*
X141904692Y-100572900D01*
G37*
G36*
X143471025Y-97440234D02*
G01*
X142104691Y-97440234D01*
X142104691Y-96073900D01*
X143471025Y-96073900D01*
X143471025Y-97440234D01*
G37*
G36*
X143471025Y-99006567D02*
G01*
X142104691Y-99006567D01*
X142104691Y-97640233D01*
X143471025Y-97640233D01*
X143471025Y-99006567D01*
G37*
G36*
X143471025Y-100572900D02*
G01*
X142104691Y-100572900D01*
X142104691Y-99206566D01*
X143471025Y-99206566D01*
X143471025Y-100572900D01*
G37*
D10*
X183295300Y-57491400D03*
X181720300Y-57491400D03*
D11*
X181720300Y-59091400D03*
X183295300Y-59091400D03*
D12*
X176287800Y-57721400D03*
X176287800Y-58661400D03*
X177127800Y-57721400D03*
X177127800Y-58661400D03*
D13*
X174557800Y-57216400D03*
X174557800Y-57866400D03*
X174557800Y-58516400D03*
X174557800Y-59166400D03*
X178857800Y-59166400D03*
X178857800Y-58516400D03*
X178857800Y-57866400D03*
X178857800Y-57216400D03*
D14*
X91586000Y-98153023D03*
X93136000Y-98153023D03*
X91433000Y-113012023D03*
X92983000Y-113012023D03*
X91700000Y-126855023D03*
X93250000Y-126855023D03*
X92189000Y-84963000D03*
X93739000Y-84963000D03*
X91446000Y-70467023D03*
X92996000Y-70467023D03*
D15*
X81693000Y-97645023D03*
X80143000Y-97645023D03*
X81566000Y-112377023D03*
X80016000Y-112377023D03*
X81325000Y-126474023D03*
X79775000Y-126474023D03*
X81706000Y-84183023D03*
X80156000Y-84183023D03*
X81439000Y-69578023D03*
X79889000Y-69578023D03*
D14*
X91700000Y-59037023D03*
X93250000Y-59037023D03*
D15*
X80436000Y-56497023D03*
X78886000Y-56497023D03*
D14*
X91560000Y-100185023D03*
X93110000Y-100185023D03*
X91446000Y-115044023D03*
X92996000Y-115044023D03*
X91687000Y-128887023D03*
X93237000Y-128887023D03*
X92189000Y-86868000D03*
X93739000Y-86868000D03*
X91446000Y-72372023D03*
X92996000Y-72372023D03*
D15*
X88932000Y-99804023D03*
X87382000Y-99804023D03*
X88805000Y-114536023D03*
X87255000Y-114536023D03*
X88850000Y-128816500D03*
X87300000Y-128816500D03*
D14*
X91700000Y-57132023D03*
X93250000Y-57132023D03*
D15*
X88945000Y-86215023D03*
X87395000Y-86215023D03*
X88932000Y-72245023D03*
X87382000Y-72245023D03*
X88437000Y-93218000D03*
X86887000Y-93218000D03*
X88932000Y-58783023D03*
X87382000Y-58783023D03*
X88183000Y-107932023D03*
X86633000Y-107932023D03*
X88805000Y-122156023D03*
X87255000Y-122156023D03*
X88183000Y-79865023D03*
X86633000Y-79865023D03*
X88564000Y-65641023D03*
X87014000Y-65641023D03*
X88170000Y-52179023D03*
X86620000Y-52179023D03*
X96438000Y-95232023D03*
X94888000Y-95232023D03*
X88437000Y-91549023D03*
X86887000Y-91549023D03*
X96311000Y-110091023D03*
X94761000Y-110091023D03*
X96425000Y-124188023D03*
X94875000Y-124188023D03*
X96044000Y-81897023D03*
X94494000Y-81897023D03*
X88170000Y-105900023D03*
X86620000Y-105900023D03*
X88818000Y-120124023D03*
X87268000Y-120124023D03*
X96425000Y-67546023D03*
X94875000Y-67546023D03*
X88170000Y-78087023D03*
X86620000Y-78087023D03*
X88538000Y-63863023D03*
X86988000Y-63863023D03*
X96298000Y-54211023D03*
X94748000Y-54211023D03*
X88170000Y-50401023D03*
X86620000Y-50401023D03*
D16*
X80156000Y-94153023D03*
X80156000Y-95803023D03*
X80029000Y-108695023D03*
X80029000Y-110345023D03*
X79775000Y-122728023D03*
X79775000Y-124378023D03*
X80156000Y-80628023D03*
X80156000Y-82278023D03*
X79902000Y-65896023D03*
X79902000Y-67546023D03*
X78886000Y-52815023D03*
X78886000Y-54465023D03*
D17*
X83522000Y-97645023D03*
X85172000Y-97645023D03*
X83459000Y-112377023D03*
X85109000Y-112377023D03*
X83395000Y-126474023D03*
X85045000Y-126474023D03*
X83522000Y-84183023D03*
X85172000Y-84183023D03*
X83205000Y-69578023D03*
X84855000Y-69578023D03*
X82443000Y-56497023D03*
X84093000Y-56497023D03*
X87332000Y-101836023D03*
X88982000Y-101836023D03*
X87205000Y-116568023D03*
X88855000Y-116568023D03*
X87250000Y-130721500D03*
X88900000Y-130721500D03*
X87332000Y-88120023D03*
X88982000Y-88120023D03*
X87332000Y-74150023D03*
X88982000Y-74150023D03*
X87332000Y-60561023D03*
X88982000Y-60561023D03*
X91269000Y-95232023D03*
X92919000Y-95232023D03*
X91142000Y-110091023D03*
X92792000Y-110091023D03*
X91269000Y-124188023D03*
X92919000Y-124188023D03*
X91015000Y-81897023D03*
X92665000Y-81897023D03*
X91396000Y-67546023D03*
X93046000Y-67546023D03*
X91269000Y-54211023D03*
X92919000Y-54211023D03*
X94831400Y-93294200D03*
X96481400Y-93294200D03*
X94526600Y-108026200D03*
X96176600Y-108026200D03*
X94755200Y-122301000D03*
X96405200Y-122301000D03*
X94399600Y-79654400D03*
X96049600Y-79654400D03*
X94907600Y-64643000D03*
X96557600Y-64643000D03*
X96482400Y-91262200D03*
X98132400Y-91262200D03*
X96228400Y-105994200D03*
X97878400Y-105994200D03*
X98514400Y-122326400D03*
X100164400Y-122326400D03*
X96101400Y-77851000D03*
X97751400Y-77851000D03*
X94577400Y-51358800D03*
X96227400Y-51358800D03*
X96584000Y-62890400D03*
X98234000Y-62890400D03*
X96228400Y-49276000D03*
X97878400Y-49276000D03*
D18*
X76390000Y-52959000D03*
X74740000Y-52959000D03*
D19*
X216906799Y-120868399D03*
X216906799Y-119218399D03*
D20*
X205599800Y-118643400D03*
X205599800Y-121183400D03*
X214209800Y-121183400D03*
X214209800Y-118643400D03*
D17*
X204026000Y-81280000D03*
X205676000Y-81280000D03*
X204026000Y-84048600D03*
X205676000Y-84048600D03*
X204026000Y-86817200D03*
X205676000Y-86817200D03*
X204026000Y-89585800D03*
X205676000Y-89585800D03*
X204026000Y-92354400D03*
X205676000Y-92354400D03*
X204026000Y-95123000D03*
X205676000Y-95123000D03*
D21*
X89136261Y-54109620D03*
X88186260Y-54109620D03*
X87236259Y-54109620D03*
X87236259Y-56700420D03*
X89136261Y-56700420D03*
X89088001Y-81762600D03*
X88138000Y-81762600D03*
X87187999Y-81762600D03*
X87187999Y-84353400D03*
X89088001Y-84353400D03*
X88834001Y-67538600D03*
X87884000Y-67538600D03*
X86933999Y-67538600D03*
X86933999Y-70129400D03*
X88834001Y-70129400D03*
X89088001Y-109956600D03*
X88138000Y-109956600D03*
X87187999Y-109956600D03*
X87187999Y-112547400D03*
X89088001Y-112547400D03*
X88968621Y-124172980D03*
X88018620Y-124172980D03*
X87068619Y-124172980D03*
X87068619Y-126763780D03*
X88968621Y-126763780D03*
X89088001Y-95224600D03*
X88138000Y-95224600D03*
X87187999Y-95224600D03*
X87187999Y-97815400D03*
X89088001Y-97815400D03*
D17*
X182817000Y-125171200D03*
X184467000Y-125171200D03*
D22*
X110921800Y-91910200D03*
X110921800Y-90360200D03*
D23*
X112979200Y-128028400D03*
X112979200Y-129578400D03*
D14*
X147053000Y-129540000D03*
X148603000Y-129540000D03*
D18*
X123583200Y-98069400D03*
X121933200Y-98069400D03*
D24*
X119887825Y-47437000D03*
X119887825Y-49337000D03*
X121762825Y-48387000D03*
D25*
X104514650Y-81254600D03*
X104514650Y-82524600D03*
X104514650Y-83794600D03*
X104514650Y-85064600D03*
X109962950Y-85064600D03*
X109962950Y-83794600D03*
X109962950Y-82524600D03*
X109962950Y-81254600D03*
D15*
X140500400Y-118237000D03*
X138950400Y-118237000D03*
D25*
X104489250Y-93675200D03*
X104489250Y-94945200D03*
X104489250Y-96215200D03*
X104489250Y-97485200D03*
X109937550Y-97485200D03*
X109937550Y-96215200D03*
X109937550Y-94945200D03*
X109937550Y-93675200D03*
D14*
X140322000Y-105791000D03*
X141872000Y-105791000D03*
D26*
X111480600Y-116165201D03*
X111480600Y-116815199D03*
X111480600Y-117465201D03*
X111480600Y-118115199D03*
X111480600Y-118765198D03*
X111480600Y-119415199D03*
X111480600Y-120065198D03*
X111480600Y-120715199D03*
X117119400Y-120715199D03*
X117119400Y-120065201D03*
X117119400Y-119415199D03*
X117119400Y-118765201D03*
X117119400Y-118115202D03*
X117119400Y-117465201D03*
X117119400Y-116815202D03*
X117119400Y-116165201D03*
D14*
X114744200Y-68453000D03*
X116294200Y-68453000D03*
D27*
X129688600Y-85079800D03*
X129688600Y-86029800D03*
X129688600Y-86979800D03*
X132388600Y-86979800D03*
X132388600Y-86029800D03*
X132388600Y-85079800D03*
D15*
X138189000Y-89662000D03*
X136639000Y-89662000D03*
D18*
X124218200Y-78054200D03*
X122568200Y-78054200D03*
D16*
X123774200Y-55461400D03*
X123774200Y-57111400D03*
D23*
X103606600Y-87807800D03*
X103606600Y-89357800D03*
D28*
X115959600Y-104419400D03*
X113859600Y-104419400D03*
D18*
X120636800Y-106070400D03*
X118986800Y-106070400D03*
D16*
X100203000Y-47511200D03*
X100203000Y-49161200D03*
D18*
X122872000Y-126644400D03*
X121222000Y-126644400D03*
D15*
X174384000Y-117017800D03*
X172834000Y-117017800D03*
D16*
X100533200Y-106693200D03*
X100533200Y-108343200D03*
D28*
X116543800Y-48234600D03*
X114443800Y-48234600D03*
D29*
X169758800Y-52538400D03*
X166808800Y-52538400D03*
D15*
X138874800Y-75311000D03*
X137324800Y-75311000D03*
D29*
X169733400Y-49693600D03*
X166783400Y-49693600D03*
D30*
X178850200Y-51698400D03*
X178850200Y-54648400D03*
D31*
X170272600Y-59716600D03*
X170272600Y-61816600D03*
D16*
X115671600Y-51397400D03*
X115671600Y-53047400D03*
D14*
X120408400Y-117602000D03*
X121958400Y-117602000D03*
D24*
X121617500Y-107812800D03*
X121617500Y-109712800D03*
X123492500Y-108762800D03*
D19*
X112293400Y-99986600D03*
X112293400Y-98336600D03*
D22*
X116738400Y-111519000D03*
X116738400Y-109969000D03*
D25*
X103397050Y-107543600D03*
X103397050Y-108813600D03*
X103397050Y-110083600D03*
X103397050Y-111353600D03*
X108845350Y-111353600D03*
X108845350Y-110083600D03*
X108845350Y-108813600D03*
X108845350Y-107543600D03*
D27*
X126894600Y-54447400D03*
X126894600Y-55397400D03*
X126894600Y-56347400D03*
X129594600Y-56347400D03*
X129594600Y-55397400D03*
X129594600Y-54447400D03*
D14*
X143395400Y-79197200D03*
X144945400Y-79197200D03*
D18*
X175094400Y-78232000D03*
X173444400Y-78232000D03*
X123557800Y-92379800D03*
X121907800Y-92379800D03*
D32*
X138325925Y-51085199D03*
X138325925Y-51735200D03*
X138325925Y-52385201D03*
X138325925Y-53035200D03*
X138325925Y-53685199D03*
X138325925Y-54335200D03*
X138325925Y-54985199D03*
D33*
X139271524Y-55930800D03*
X139921525Y-55930800D03*
X140571524Y-55930800D03*
X141221525Y-55930800D03*
X141871524Y-55930800D03*
X142521525Y-55930800D03*
X143171524Y-55930800D03*
D32*
X144117125Y-54985201D03*
X144117125Y-54335200D03*
X144117125Y-53685201D03*
X144117125Y-53035200D03*
X144117125Y-52385201D03*
X144117125Y-51735200D03*
X144117125Y-51085201D03*
D33*
X143171526Y-50139600D03*
X142521525Y-50139600D03*
X141871526Y-50139600D03*
X141221525Y-50139600D03*
X140571526Y-50139600D03*
X139921525Y-50139600D03*
X139271526Y-50139600D03*
D28*
X116924800Y-59055000D03*
X114824800Y-59055000D03*
D18*
X193865000Y-84785200D03*
X192215000Y-84785200D03*
D27*
X128647200Y-131206200D03*
X128647200Y-132156200D03*
X128647200Y-133106200D03*
X131347200Y-133106200D03*
X131347200Y-132156200D03*
X131347200Y-131206200D03*
D22*
X110439200Y-61608000D03*
X110439200Y-60058000D03*
D19*
X111633000Y-69074800D03*
X111633000Y-67424800D03*
D16*
X119430800Y-128511800D03*
X119430800Y-130161800D03*
D22*
X146989800Y-71056800D03*
X146989800Y-69506800D03*
D23*
X147320000Y-98564400D03*
X147320000Y-100114400D03*
D34*
X182118000Y-76388801D03*
X182118000Y-77038799D03*
X182118000Y-77688801D03*
X182118000Y-78338799D03*
X182118000Y-78988798D03*
X182118000Y-79638799D03*
X182118000Y-80288798D03*
X182118000Y-80938799D03*
X187756800Y-80938799D03*
X187756800Y-80288801D03*
X187756800Y-79638799D03*
X187756800Y-78988801D03*
X187756800Y-78338802D03*
X187756800Y-77688801D03*
X187756800Y-77038802D03*
X187756800Y-76388801D03*
D22*
X119456200Y-133413800D03*
X119456200Y-131863800D03*
X110617000Y-45060200D03*
X110617000Y-43510200D03*
D24*
X123014500Y-122900400D03*
X123014500Y-124800400D03*
X124889500Y-123850400D03*
D32*
X138325925Y-111156199D03*
X138325925Y-111806200D03*
X138325925Y-112456201D03*
X138325925Y-113106200D03*
X138325925Y-113756199D03*
X138325925Y-114406200D03*
X138325925Y-115056199D03*
D33*
X139271524Y-116001800D03*
X139921525Y-116001800D03*
X140571524Y-116001800D03*
X141221525Y-116001800D03*
X141871524Y-116001800D03*
X142521525Y-116001800D03*
X143171524Y-116001800D03*
D32*
X144117125Y-115056201D03*
X144117125Y-114406200D03*
X144117125Y-113756201D03*
X144117125Y-113106200D03*
X144117125Y-112456201D03*
X144117125Y-111806200D03*
X144117125Y-111156201D03*
D33*
X143171526Y-110210600D03*
X142521525Y-110210600D03*
X141871526Y-110210600D03*
X141221525Y-110210600D03*
X140571526Y-110210600D03*
X139921525Y-110210600D03*
X139271526Y-110210600D03*
D24*
X123751100Y-94325400D03*
X123751100Y-96225400D03*
X125626100Y-95275400D03*
D22*
X112801400Y-91910200D03*
X112801400Y-90360200D03*
D19*
X110109000Y-55384200D03*
X110109000Y-53734200D03*
D35*
X165165000Y-106908600D03*
X165165000Y-108178600D03*
X165165000Y-109448600D03*
X165165000Y-110718600D03*
X170115000Y-110718600D03*
X170115000Y-109448600D03*
X170115000Y-108178600D03*
X170115000Y-106908600D03*
D23*
X112268000Y-94906800D03*
X112268000Y-96456800D03*
X190474600Y-66027000D03*
X190474600Y-67577000D03*
D18*
X120535200Y-62077600D03*
X118885200Y-62077600D03*
D25*
X104997250Y-127203200D03*
X104997250Y-128473200D03*
X104997250Y-129743200D03*
X104997250Y-131013200D03*
X110445550Y-131013200D03*
X110445550Y-129743200D03*
X110445550Y-128473200D03*
X110445550Y-127203200D03*
D16*
X101752400Y-92469200D03*
X101752400Y-94119200D03*
D23*
X102743000Y-70014800D03*
X102743000Y-71564800D03*
D18*
X175145200Y-80213200D03*
X173495200Y-80213200D03*
D14*
X144894000Y-64312800D03*
X146444000Y-64312800D03*
D25*
X103930450Y-63322200D03*
X103930450Y-64592200D03*
X103930450Y-65862200D03*
X103930450Y-67132200D03*
X109378750Y-67132200D03*
X109378750Y-65862200D03*
X109378750Y-64592200D03*
X109378750Y-63322200D03*
D16*
X117856000Y-93104200D03*
X117856000Y-94754200D03*
X127000000Y-101613200D03*
X127000000Y-103263200D03*
D17*
X170117000Y-104876600D03*
X171767000Y-104876600D03*
D32*
X138325925Y-82682799D03*
X138325925Y-83332800D03*
X138325925Y-83982801D03*
X138325925Y-84632800D03*
X138325925Y-85282799D03*
X138325925Y-85932800D03*
X138325925Y-86582799D03*
D33*
X139271524Y-87528400D03*
X139921525Y-87528400D03*
X140571524Y-87528400D03*
X141221525Y-87528400D03*
X141871524Y-87528400D03*
X142521525Y-87528400D03*
X143171524Y-87528400D03*
D32*
X144117125Y-86582801D03*
X144117125Y-85932800D03*
X144117125Y-85282801D03*
X144117125Y-84632800D03*
X144117125Y-83982801D03*
X144117125Y-83332800D03*
X144117125Y-82682801D03*
D33*
X143171526Y-81737200D03*
X142521525Y-81737200D03*
X141871526Y-81737200D03*
X141221525Y-81737200D03*
X140571526Y-81737200D03*
X139921525Y-81737200D03*
X139271526Y-81737200D03*
D18*
X124573800Y-83515200D03*
X122923800Y-83515200D03*
D28*
X117737600Y-90525600D03*
X115637600Y-90525600D03*
D18*
X193865000Y-82677000D03*
X192215000Y-82677000D03*
D24*
X125097300Y-79923600D03*
X125097300Y-81823600D03*
X126972300Y-80873600D03*
D22*
X173609000Y-90945000D03*
X173609000Y-89395000D03*
X162509200Y-109664800D03*
X162509200Y-108114800D03*
D19*
X110947200Y-113321600D03*
X110947200Y-111671600D03*
X112471200Y-87413600D03*
X112471200Y-85763600D03*
D18*
X113778800Y-53086000D03*
X112128800Y-53086000D03*
D14*
X139483800Y-121691400D03*
X141033800Y-121691400D03*
D22*
X108610400Y-125146400D03*
X108610400Y-123596400D03*
D14*
X191249000Y-77724000D03*
X192799000Y-77724000D03*
D18*
X141922000Y-93243400D03*
X140272000Y-93243400D03*
D16*
X100838000Y-62344800D03*
X100838000Y-63994800D03*
D15*
X140424200Y-134823200D03*
X138874200Y-134823200D03*
D18*
X141109200Y-123520200D03*
X139459200Y-123520200D03*
D22*
X181152800Y-68745400D03*
X181152800Y-67195400D03*
D28*
X120099800Y-77393800D03*
X117999800Y-77393800D03*
D23*
X146888200Y-84848400D03*
X146888200Y-86398400D03*
D16*
X116281200Y-62294000D03*
X116281200Y-63944000D03*
D22*
X109651800Y-105194400D03*
X109651800Y-103644400D03*
D23*
X104902000Y-134911800D03*
X104902000Y-136461800D03*
D32*
X138150600Y-127310599D03*
X138150600Y-127960600D03*
X138150600Y-128610601D03*
X138150600Y-129260600D03*
X138150600Y-129910599D03*
X138150600Y-130560600D03*
X138150600Y-131210599D03*
D33*
X139096199Y-132156200D03*
X139746200Y-132156200D03*
X140396199Y-132156200D03*
X141046200Y-132156200D03*
X141696199Y-132156200D03*
X142346200Y-132156200D03*
X142996199Y-132156200D03*
D32*
X143941800Y-131210601D03*
X143941800Y-130560600D03*
X143941800Y-129910601D03*
X143941800Y-129260600D03*
X143941800Y-128610601D03*
X143941800Y-127960600D03*
X143941800Y-127310601D03*
D33*
X142996201Y-126365000D03*
X142346200Y-126365000D03*
X141696201Y-126365000D03*
X141046200Y-126365000D03*
X140396201Y-126365000D03*
X139746200Y-126365000D03*
X139096201Y-126365000D03*
D23*
X176276000Y-95237000D03*
X176276000Y-96787000D03*
D18*
X141541000Y-64389000D03*
X139891000Y-64389000D03*
D32*
X138325925Y-67823799D03*
X138325925Y-68473800D03*
X138325925Y-69123801D03*
X138325925Y-69773800D03*
X138325925Y-70423799D03*
X138325925Y-71073800D03*
X138325925Y-71723799D03*
D33*
X139271524Y-72669400D03*
X139921525Y-72669400D03*
X140571524Y-72669400D03*
X141221525Y-72669400D03*
X141871524Y-72669400D03*
X142521525Y-72669400D03*
X143171524Y-72669400D03*
D32*
X144117125Y-71723801D03*
X144117125Y-71073800D03*
X144117125Y-70423801D03*
X144117125Y-69773800D03*
X144117125Y-69123801D03*
X144117125Y-68473800D03*
X144117125Y-67823801D03*
D33*
X143171526Y-66878200D03*
X142521525Y-66878200D03*
X141871526Y-66878200D03*
X141221525Y-66878200D03*
X140571526Y-66878200D03*
X139921525Y-66878200D03*
X139271526Y-66878200D03*
D16*
X125298200Y-115100600D03*
X125298200Y-116750600D03*
D24*
X121414300Y-63921600D03*
X121414300Y-65821600D03*
X123289300Y-64871600D03*
D22*
X110490000Y-125146400D03*
X110490000Y-123596400D03*
X118364000Y-85560200D03*
X118364000Y-84010200D03*
D16*
X116738400Y-106566200D03*
X116738400Y-108216200D03*
D14*
X174281800Y-75031600D03*
X175831800Y-75031600D03*
X139941000Y-62636400D03*
X141491000Y-62636400D03*
D22*
X175539400Y-90945000D03*
X175539400Y-89395000D03*
D23*
X101396800Y-55486000D03*
X101396800Y-57036000D03*
X112166400Y-49542400D03*
X112166400Y-51092400D03*
D16*
X101574600Y-79693000D03*
X101574600Y-81343000D03*
D36*
X174904400Y-63330800D03*
X174904400Y-61230800D03*
D10*
X198043900Y-118618000D03*
X196468900Y-118618000D03*
D14*
X143725600Y-93243400D03*
X145275600Y-93243400D03*
D23*
X102692200Y-100850400D03*
X102692200Y-102400400D03*
D15*
X140449600Y-58851800D03*
X138899600Y-58851800D03*
D22*
X111556800Y-105219800D03*
X111556800Y-103669800D03*
X112649000Y-80378600D03*
X112649000Y-78828600D03*
D23*
X100736400Y-70014800D03*
X100736400Y-71564800D03*
D34*
X164592000Y-73086801D03*
X164592000Y-73736799D03*
X164592000Y-74386801D03*
X164592000Y-75036799D03*
X164592000Y-75686798D03*
X164592000Y-76336799D03*
X164592000Y-76986798D03*
X164592000Y-77636799D03*
X170230800Y-77636799D03*
X170230800Y-76986801D03*
X170230800Y-76336799D03*
X170230800Y-75686801D03*
X170230800Y-75036802D03*
X170230800Y-74386801D03*
X170230800Y-73736802D03*
X170230800Y-73086801D03*
D26*
X107467400Y-72096201D03*
X107467400Y-72746199D03*
X107467400Y-73396201D03*
X107467400Y-74046199D03*
X107467400Y-74696198D03*
X107467400Y-75346199D03*
X107467400Y-75996198D03*
X107467400Y-76646199D03*
X113106200Y-76646199D03*
X113106200Y-75996201D03*
X113106200Y-75346199D03*
X113106200Y-74696201D03*
X113106200Y-74046202D03*
X113106200Y-73396201D03*
X113106200Y-72746202D03*
X113106200Y-72096201D03*
D23*
X101625400Y-113982200D03*
X101625400Y-115532200D03*
D19*
X184658000Y-107352600D03*
X184658000Y-105702600D03*
D22*
X181838600Y-107251800D03*
X181838600Y-105701800D03*
D18*
X193865000Y-86918800D03*
X192215000Y-86918800D03*
D23*
X112547400Y-82206800D03*
X112547400Y-83756800D03*
D14*
X139636200Y-45110400D03*
X141186200Y-45110400D03*
D18*
X193865000Y-80619600D03*
X192215000Y-80619600D03*
D27*
X126894600Y-71008200D03*
X126894600Y-71958200D03*
X126894600Y-72908200D03*
X129594600Y-72908200D03*
X129594600Y-71958200D03*
X129594600Y-71008200D03*
D23*
X105333800Y-87807800D03*
X105333800Y-89357800D03*
D14*
X143776400Y-107746800D03*
X145326400Y-107746800D03*
D23*
X146786600Y-113702800D03*
X146786600Y-115252800D03*
D22*
X117881400Y-98031600D03*
X117881400Y-96481600D03*
D18*
X119138200Y-45618400D03*
X117488200Y-45618400D03*
D23*
X103301800Y-55460600D03*
X103301800Y-57010600D03*
D27*
X184984400Y-67630000D03*
X184984400Y-68580000D03*
X184984400Y-69530000D03*
X187684400Y-69530000D03*
X187684400Y-67630000D03*
X127986800Y-113959600D03*
X127986800Y-114909600D03*
X127986800Y-115859600D03*
X130686800Y-115859600D03*
X130686800Y-114909600D03*
X130686800Y-113959600D03*
D16*
X126238000Y-132575800D03*
X126238000Y-134225800D03*
D28*
X116061200Y-125882400D03*
X113961200Y-125882400D03*
D23*
X111760000Y-63893400D03*
X111760000Y-65443400D03*
D16*
X102184200Y-125921000D03*
X102184200Y-127571000D03*
D15*
X169795400Y-54875200D03*
X168245400Y-54875200D03*
D16*
X118313200Y-80734400D03*
X118313200Y-82384400D03*
D18*
X121652800Y-111607600D03*
X120002800Y-111607600D03*
D14*
X187667600Y-71653400D03*
X189217600Y-71653400D03*
D23*
X147368325Y-53708000D03*
X147368325Y-55258000D03*
D14*
X117284200Y-73431400D03*
X118834200Y-73431400D03*
D19*
X127254000Y-88709000D03*
X127254000Y-87059000D03*
X112953800Y-132981200D03*
X112953800Y-131331200D03*
D14*
X112255000Y-56032400D03*
X113805000Y-56032400D03*
X139991800Y-77470000D03*
X141541800Y-77470000D03*
D18*
X116445800Y-84023200D03*
X114795800Y-84023200D03*
D25*
X103397050Y-48336200D03*
X103397050Y-49606200D03*
X103397050Y-50876200D03*
X103397050Y-52146200D03*
X108845350Y-52146200D03*
X108845350Y-50876200D03*
X108845350Y-49606200D03*
X108845350Y-48336200D03*
D18*
X114845600Y-109931200D03*
X113195600Y-109931200D03*
D26*
X181381400Y-90735201D03*
X181381400Y-91385200D03*
X181381400Y-92035198D03*
X181381400Y-92685199D03*
X181381400Y-93335198D03*
X181381400Y-93985199D03*
X181381400Y-94635198D03*
X181381400Y-95285199D03*
X181381400Y-95935198D03*
X181381400Y-96585199D03*
X181381400Y-97235198D03*
X181381400Y-97885199D03*
X187020200Y-97885199D03*
X187020200Y-97235200D03*
X187020200Y-96585199D03*
X187020200Y-95935201D03*
X187020200Y-95285199D03*
X187020200Y-94635201D03*
X187020200Y-93985202D03*
X187020200Y-93335201D03*
X187020200Y-92685202D03*
X187020200Y-92035201D03*
X187020200Y-91385202D03*
X187020200Y-90735201D03*
D18*
X141947400Y-107721400D03*
X140297400Y-107721400D03*
D11*
X183108500Y-102641400D03*
X184683500Y-102641400D03*
D18*
X141591800Y-79197200D03*
X139941800Y-79197200D03*
D30*
X163457800Y-59724800D03*
X163457800Y-62674800D03*
D23*
X102971600Y-134911800D03*
X102971600Y-136461800D03*
D17*
X169846400Y-57821600D03*
X171496400Y-57821600D03*
D22*
X108839000Y-45060200D03*
X108839000Y-43510200D03*
D37*
X178088751Y-112230400D03*
X178088751Y-113030401D03*
X178088751Y-113830400D03*
X178088751Y-114630401D03*
X178088751Y-115430399D03*
X178088751Y-116230400D03*
X178088751Y-117030401D03*
X178088751Y-117830399D03*
X178088751Y-118630400D03*
X178088751Y-119430399D03*
X178088751Y-120230400D03*
D38*
X179702151Y-121843800D03*
X180502152Y-121843800D03*
X181302151Y-121843800D03*
X182102152Y-121843800D03*
X182902150Y-121843800D03*
X183702151Y-121843800D03*
X184502152Y-121843800D03*
X185302150Y-121843800D03*
X186102151Y-121843800D03*
X186902150Y-121843800D03*
X187702151Y-121843800D03*
D37*
X189315551Y-120230400D03*
X189315551Y-119430399D03*
X189315551Y-118630400D03*
X189315551Y-117830399D03*
X189315551Y-117030401D03*
X189315551Y-116230400D03*
X189315551Y-115430399D03*
X189315551Y-114630401D03*
X189315551Y-113830400D03*
X189315551Y-113030401D03*
X189315551Y-112230400D03*
D38*
X187702151Y-110617000D03*
X186902150Y-110617000D03*
X186102151Y-110617000D03*
X185302150Y-110617000D03*
X184502152Y-110617000D03*
X183702151Y-110617000D03*
X182902150Y-110617000D03*
X182102152Y-110617000D03*
X181302151Y-110617000D03*
X180502152Y-110617000D03*
X179702151Y-110617000D03*
D27*
X129307600Y-100396000D03*
X129307600Y-101346000D03*
X129307600Y-102296000D03*
X132007600Y-102296000D03*
X132007600Y-101346000D03*
X132007600Y-100396000D03*
D19*
X187325000Y-107301800D03*
X187325000Y-105651800D03*
D15*
X181064200Y-125145800D03*
X179514200Y-125145800D03*
D17*
X192723000Y-118618000D03*
X194373000Y-118618000D03*
D22*
X112293400Y-61633400D03*
X112293400Y-60083400D03*
D16*
X171704000Y-89345000D03*
X171704000Y-90995000D03*
X174481400Y-53034200D03*
X174481400Y-54684200D03*
D15*
X184442400Y-126974600D03*
X182892400Y-126974600D03*
D23*
X111302800Y-108343400D03*
X111302800Y-109893400D03*
X103479600Y-114033000D03*
X103479600Y-115583000D03*
D18*
X141261600Y-46939200D03*
X139611600Y-46939200D03*
D32*
X138325925Y-96373399D03*
X138325925Y-97023400D03*
X138325925Y-97673401D03*
X138325925Y-98323400D03*
X138325925Y-98973399D03*
X138325925Y-99623400D03*
X138325925Y-100273399D03*
D33*
X139271524Y-101219000D03*
X139921525Y-101219000D03*
X140571524Y-101219000D03*
X141221525Y-101219000D03*
X141871524Y-101219000D03*
X142521525Y-101219000D03*
X143171524Y-101219000D03*
D32*
X144117125Y-100273401D03*
X144117125Y-99623400D03*
X144117125Y-98973401D03*
X144117125Y-98323400D03*
X144117125Y-97673401D03*
X144117125Y-97023400D03*
X144117125Y-96373401D03*
D33*
X143171526Y-95427800D03*
X142521525Y-95427800D03*
X141871526Y-95427800D03*
X141221525Y-95427800D03*
X140571526Y-95427800D03*
X139921525Y-95427800D03*
X139271526Y-95427800D03*
D14*
X144132000Y-123520200D03*
X145682000Y-123520200D03*
D18*
X121373400Y-67589400D03*
X119723400Y-67589400D03*
D14*
X192223551Y-116205000D03*
X193773551Y-116205000D03*
D18*
X115760000Y-96520000D03*
X114110000Y-96520000D03*
D15*
X139967000Y-103378000D03*
X138417000Y-103378000D03*
D18*
X116217200Y-65582800D03*
X114567200Y-65582800D03*
X119925600Y-51308000D03*
X118275600Y-51308000D03*
D30*
X166556600Y-59724800D03*
X166556600Y-62674800D03*
D17*
X195313800Y-114096800D03*
X196963800Y-114096800D03*
D10*
X200558500Y-114071400D03*
X198983500Y-114071400D03*
D18*
X117461800Y-129844800D03*
X115811800Y-129844800D03*
D23*
X104546400Y-100850400D03*
X104546400Y-102400400D03*
D22*
X114604800Y-80454800D03*
X114604800Y-78904800D03*
D14*
X140195000Y-91440000D03*
X141745000Y-91440000D03*
D18*
X122211600Y-121081800D03*
X120561600Y-121081800D03*
D39*
X169515000Y-90866000D03*
X169515000Y-88966000D03*
X167640000Y-89916000D03*
D10*
X190754100Y-105664000D03*
X189179100Y-105664000D03*
D16*
X124053600Y-72098400D03*
X124053600Y-73748400D03*
D14*
X143497000Y-46913800D03*
X145047000Y-46913800D03*
M02*
