M48
; DRILL file {KiCad 7.0.8} date 2025 May 19, Monday 15:24:01
; FORMAT={-:-/ absolute / inch / decimal}
; #@! TF.CreationDate,2025-05-19T15:24:01+02:00
; #@! TF.GenerationSoftware,Kicad,Pcbnew,7.0.8
; #@! TF.FileFunction,NonPlated,1,4,NPTH
FMAT,2
INCH
; #@! TA.AperFunction,NonPlated,NPTH,ComponentDrill
T1C0.0390
; #@! TA.AperFunction,NonPlated,NPTH,ComponentDrill
T2C0.0935
; #@! TA.AperFunction,NonPlated,NPTH,ComponentDrill
T3C0.1102
%
G90
G05
T1
X5.9589Y-2.096
X6.0129Y-4.493
X6.0219Y-5.01
X6.0279Y-2.751
X6.0299Y-3.343
X6.0329Y-3.869
X6.1589Y-2.056
X6.1589Y-2.136
X6.2129Y-4.453
X6.2129Y-4.533
X6.2219Y-4.97
X6.2219Y-5.05
X6.2279Y-2.711
X6.2279Y-2.791
X6.2299Y-3.303
X6.2299Y-3.383
X6.2329Y-3.829
X6.2329Y-3.909
X7.4964Y-5.0541
X7.5364Y-5.2541
X7.5763Y-5.0541
T2
X5.9589Y-1.996
X5.9589Y-2.196
X6.0129Y-4.393
X6.0129Y-4.593
X6.0219Y-4.91
X6.0219Y-5.11
X6.0279Y-2.651
X6.0279Y-2.851
X6.0299Y-3.243
X6.0299Y-3.443
X6.0329Y-3.769
X6.0329Y-3.969
X6.0839Y-1.996
X6.0839Y-2.196
X6.1379Y-4.393
X6.1379Y-4.593
X6.1469Y-4.91
X6.1469Y-5.11
X6.1529Y-2.651
X6.1529Y-2.851
X6.1549Y-3.243
X6.1549Y-3.443
X6.1579Y-3.769
X6.1579Y-3.969
X7.4364Y-5.1291
X7.4364Y-5.2541
X7.6364Y-5.1291
X7.6364Y-5.2541
T3
X8.976Y-1.7705
X8.976Y-5.2705
T0
M30
