M48
; DRILL file {KiCad 7.0.8} date 2025 May 19, Monday 15:24:01
; FORMAT={-:-/ absolute / inch / decimal}
; #@! TF.CreationDate,2025-05-19T15:24:01+02:00
; #@! TF.GenerationSoftware,Kicad,Pcbnew,7.0.8
; #@! TF.FileFunction,Plated,1,4,PTH
FMAT,2
INCH
; #@! TA.AperFunction,Plated,PTH,ViaDrill
T1C0.0157
; #@! TA.AperFunction,Plated,PTH,ComponentDrill
T2C0.0252
; #@! TA.AperFunction,Plated,PTH,ComponentDrill
T3C0.0276
; #@! TA.AperFunction,Plated,PTH,ComponentDrill
T4C0.0354
; #@! TA.AperFunction,Plated,PTH,ComponentDrill
T5C0.0394
; #@! TA.AperFunction,Plated,PTH,ComponentDrill
T6C0.1063
%
G90
G05
T1
X2.9878Y-4.2143
X3.015Y-1.985
X3.0725Y-2.5825
X3.1025Y-3.1125
X3.1167Y-4.7167
X3.1275Y-2.0025
X3.1425Y-3.6225
X3.53Y-3.12
X3.535Y-2.0543
X3.535Y-4.2493
X3.545Y-2.595
X3.55Y-3.65
X3.555Y-4.975
X3.5574Y-4.4226
X3.56Y-4.81
X3.57Y-3.32
X3.6Y-2.72
X3.6047Y-3.9997
X3.61Y-2.38
X3.86Y-4.48
X3.92Y-4.16
X3.93Y-4.49
X3.95Y-3.59
X3.95Y-3.96
X4.02Y-3.0
X4.04Y-5.12
X4.05Y-2.94
X4.0708Y-2.1252
X4.09Y-2.91
X4.0918Y-2.7097
X4.1Y-2.78
X4.1137Y-3.9072
X4.1147Y-3.4013
X4.13Y-2.97
X4.1338Y-5.2352
X4.137Y-1.822
X4.14Y-2.22
X4.14Y-3.05
X4.141Y-4.949
X4.15Y-2.83
X4.15Y-2.88
X4.166Y-3.125
X4.18Y-2.18
X4.18Y-3.61
X4.19Y-2.41
X4.191Y-5.292
X4.203Y-4.927
X4.23Y-4.67
X4.23Y-4.76
X4.24Y-4.13
X4.261Y-2.73
X4.264Y-2.407
X4.28Y-4.63
X4.28Y-4.75
X4.285Y-3.453
X4.2852Y-1.8407
X4.3Y-4.52
X4.304Y-3.621
X4.346Y-5.29
X4.36Y-3.13
X4.36Y-3.97
X4.43Y-4.51
X4.4805Y-2.1485
X4.51Y-3.05
X4.51Y-3.89
X4.539Y-2.958
X4.54Y-2.81
X4.54Y-3.02
X4.557Y-2.921
X4.56Y-1.75
X4.57Y-3.38
X4.5785Y-2.6385
X4.58Y-2.84
X4.6015Y-2.95
X4.61Y-3.95
X4.63Y-3.44
X4.65Y-4.32
X4.66Y-2.51
X4.67Y-2.96
X4.69Y-4.25
X4.6924Y-4.6246
X4.7Y-3.79
X4.71Y-4.88
X4.72Y-3.25
X4.74Y-3.64
X4.74Y-4.05
X4.77Y-4.69
X4.77Y-5.26
X4.781Y-1.803
X4.785Y-2.147
X4.79Y-3.12
X4.79Y-3.53
X4.85Y-2.76
X4.89Y-5.13
X4.895Y-2.483
X4.9Y-2.13
X4.93Y-4.32
X4.93Y-4.98
X5.01Y-3.28
X5.01Y-3.35
X5.01Y-5.09
X5.02Y-4.42
X5.03Y-3.75
X5.03Y-3.93
X5.04Y-4.63
X5.06Y-3.17
X5.15Y-4.42
X5.15Y-4.62
X5.17Y-5.11
X5.18Y-2.14
X5.19Y-2.86
X5.21Y-3.19
X5.21Y-3.48
X5.21Y-3.89
X5.21Y-4.09
X5.22Y-2.18
X5.24Y-4.4
X5.24Y-4.51
X5.28Y-5.23
X5.29Y-2.7
X5.29Y-3.93
X5.3Y-1.94
X5.3Y-3.39
X5.3Y-3.87
X5.3Y-5.05
X5.3Y-5.11
X5.31Y-2.09
X5.3102Y-4.4245
X5.33Y-4.55
X5.34Y-2.72
X5.34Y-3.34
X5.35Y-2.67
X5.35Y-2.76
X5.35Y-3.27
X5.35Y-3.89
X5.35Y-5.01
X5.36Y-2.07
X5.36Y-2.35
X5.36Y-3.66
X5.36Y-3.8
X5.36Y-4.06
X5.36Y-4.38
X5.37Y-3.2
X5.38Y-1.86
X5.38Y-3.48
X5.38Y-4.94
X5.38Y-5.2
X5.3829Y-3.71
X5.3829Y-4.3
X5.39Y-2.2
X5.39Y-4.89
X5.4Y-2.61
X5.4Y-3.17
X5.4Y-4.62
X5.41Y-2.56
X5.41Y-3.12
X5.43Y-1.92
X5.43Y-2.89
X5.44Y-1.88
X5.44Y-2.52
X5.45Y-3.08
X5.45Y-4.26
X5.46Y-3.61
X5.48Y-4.73
X5.5Y-3.53
X5.51Y-5.37
X5.52Y-4.92
X5.5255Y-2.9445
X5.53Y-2.38
X5.53Y-4.29
X5.55Y-4.7
X5.5599Y-1.9011
X5.56Y-3.17
X5.57Y-2.97
X5.57Y-3.54
X5.57Y-4.04
X5.57Y-4.09
X5.58Y-2.27
X5.58Y-5.27
X5.61Y-2.32
X5.61Y-2.94
X5.61Y-3.51
X5.61Y-4.05
X5.61Y-4.7
X5.616Y-4.863
X5.62Y-5.35
X5.6277Y-4.648
X5.63Y-1.74
X5.63Y-5.31
X5.64Y-2.27
X5.64Y-3.61
X5.64Y-4.17
X5.644Y-2.535
X5.67Y-2.93
X5.67Y-3.5
X5.67Y-4.04
X5.67Y-4.65
X5.71Y-2.25
X5.71Y-2.87
X5.71Y-3.45
X5.71Y-3.99
X5.71Y-4.58
X5.74Y-5.22
X5.75Y-3.55
X5.77Y-2.05
X5.85Y-2.85
X5.85Y-3.15
X5.85Y-3.61
X5.86Y-1.97
X5.86Y-4.37
X5.88Y-2.73
X5.88Y-3.92
X5.89Y-3.22
X5.89Y-5.18
X5.9Y-4.93
X5.91Y-3.72
X5.9148Y-4.3548
X5.92Y-3.34
X5.96Y-2.53
X5.96Y-3.1
X5.96Y-3.39
X6.18Y-4.27
X6.19Y-2.26
X6.25Y-3.98
X6.29Y-5.14
X6.3Y-2.84
X6.3285Y-2.9088
X6.34Y-2.7
X6.34Y-4.35
X6.357Y-2.9571
X6.38Y-3.0
X6.39Y-2.81
X6.45Y-4.15
X6.45Y-4.52
X6.46Y-4.7
X6.47Y-3.79
X6.49Y-4.49
X6.5185Y-4.42
X6.71Y-4.73
X6.73Y-3.1
X6.76Y-4.67
X6.77Y-2.83
X6.78Y-2.92
X6.79Y-3.45
X6.79Y-4.79
X6.8Y-3.64
X6.8055Y-2.3265
X6.81Y-2.95
X6.82Y-4.31
X6.83Y-4.26
X6.85Y-3.7
X6.86Y-4.71
X6.87Y-3.22
X6.87Y-4.41
X6.8782Y-4.5327
X6.88Y-4.03
X6.89Y-4.45
X6.89Y-4.76
X6.9Y-3.01
X6.9Y-4.5
X6.91Y-4.67
X6.93Y-3.6746
X6.95Y-2.4933
X6.95Y-3.01
X6.962Y-2.088
X6.98Y-2.66
X6.99Y-4.83
X7.0Y-1.92
X7.02Y-4.31
X7.03Y-3.69
X7.03Y-3.79
X7.03Y-3.86
X7.04Y-3.04
X7.0402Y-3.7298
X7.05Y-3.11
X7.05Y-3.61
X7.05Y-3.92
X7.06Y-4.2
X7.09Y-3.04
X7.09Y-4.26
X7.09Y-4.86
X7.0918Y-2.3749
X7.1Y-4.99
X7.13Y-2.57
X7.13Y-2.96
X7.14Y-4.87
X7.16Y-4.28
X7.19Y-4.87
X7.2115Y-2.6985
X7.25Y-5.31
X7.28Y-5.07
X7.3Y-5.33
X7.32Y-5.19
X7.33Y-4.7
X7.34Y-2.89
X7.35Y-4.28
X7.41Y-4.28
X7.42Y-2.93
X7.4494Y-2.6626
X7.45Y-4.85
X7.46Y-4.8
X7.4698Y-3.2802
X7.47Y-3.08
X7.47Y-3.59
X7.47Y-3.72
X7.47Y-4.28
X7.48Y-3.65
X7.51Y-3.13
X7.51Y-3.83
X7.52Y-2.97
X7.52Y-4.36
X7.52Y-4.58
X7.53Y-4.63
X7.54Y-3.61
X7.54Y-3.7
X7.54Y-3.75
X7.54Y-4.74
X7.55Y-4.95
X7.56Y-5.34
X7.5771Y-3.79
X7.6Y-4.46
X7.62Y-2.27
X7.62Y-4.4203
X7.64Y-3.05
X7.67Y-1.68
X7.71Y-2.45
X7.72Y-3.25
X7.73Y-3.34
X7.73Y-3.42
X7.77Y-5.19
X7.99Y-4.39
X8.0Y-4.67
X8.0Y-4.77
X8.205Y-2.08
X8.205Y-3.74
X8.205Y-4.38
X8.275Y-2.37
X8.275Y-3.415
X8.275Y-4.92
X8.36Y-3.2
X8.36Y-4.88
X8.37Y-2.565
X8.47Y-3.63
X8.47Y-4.84
X8.4709Y-2.1791
X8.535Y-2.27
X8.535Y-3.515
X8.54Y-4.89
X8.58Y-2.475
X8.59Y-3.305
X8.59Y-4.94
X8.625Y-4.66
X8.68Y-4.31
X8.685Y-4.71
T2
X2.8543Y-2.3352
X2.8543Y-2.3852
X2.8543Y-2.847
X2.8543Y-2.897
X2.8543Y-3.3589
X2.8543Y-3.4089
X2.8543Y-3.8707
X2.8543Y-3.9207
X2.8543Y-4.3825
X2.8543Y-4.4325
X2.8543Y-4.8943
X2.8543Y-4.9443
T3
X7.8345Y-1.8137
X7.8345Y-1.9137
X7.8345Y-2.0137
X7.8345Y-2.6137
X7.8345Y-2.8137
X8.4345Y-1.9137
X8.4345Y-2.0137
X8.4345Y-2.6137
X8.4345Y-2.8137
T4
X2.8043Y-2.3102
X2.8043Y-2.4102
X2.8043Y-2.822
X2.8043Y-2.922
X2.8043Y-3.3339
X2.8043Y-3.4339
X2.8043Y-3.8457
X2.8043Y-3.9457
X2.8043Y-4.3575
X2.8043Y-4.4575
X2.8043Y-4.8693
X2.8043Y-4.9693
X2.8425Y-1.985
X2.8425Y-2.085
X2.9043Y-2.3102
X2.9043Y-2.4102
X2.9043Y-2.822
X2.9043Y-2.922
X2.9043Y-3.3339
X2.9043Y-3.4339
X2.9043Y-3.8457
X2.9043Y-3.9457
X2.9043Y-4.3575
X2.9043Y-4.4575
X2.9043Y-4.8693
X2.9043Y-4.9693
T5
X7.3279Y-1.906
X7.5248Y-1.906
X8.776Y-1.9705
X8.776Y-2.0705
X8.776Y-2.1705
X8.776Y-2.2705
X8.776Y-2.3705
X8.776Y-2.4705
X8.776Y-2.5705
X8.776Y-2.6705
X8.776Y-2.7705
X8.776Y-2.8705
X8.776Y-2.9705
X8.776Y-3.0705
X8.776Y-3.1705
X8.776Y-3.2705
X8.776Y-3.3705
X8.776Y-3.4705
X8.776Y-3.5705
X8.776Y-3.6705
X8.776Y-3.7705
X8.776Y-3.8705
X8.776Y-3.9705
X8.776Y-4.0705
X8.776Y-4.1705
X8.776Y-4.2705
X8.776Y-4.3705
X8.776Y-4.4705
X8.776Y-4.5705
X8.776Y-4.6705
X8.776Y-4.7705
X8.776Y-4.8705
X8.776Y-4.9705
X8.776Y-5.0705
X8.876Y-1.9705
X8.876Y-2.0705
X8.876Y-2.1705
X8.876Y-2.2705
X8.876Y-2.3705
X8.876Y-2.4705
X8.876Y-2.5705
X8.876Y-2.6705
X8.876Y-2.7705
X8.876Y-2.8705
X8.876Y-2.9705
X8.876Y-3.0705
X8.876Y-3.1705
X8.876Y-3.2705
X8.876Y-3.3705
X8.876Y-3.4705
X8.876Y-3.5705
X8.876Y-3.6705
X8.876Y-3.7705
X8.876Y-3.8705
X8.876Y-3.9705
X8.876Y-4.0705
X8.876Y-4.1705
X8.876Y-4.2705
X8.876Y-4.3705
X8.876Y-4.4705
X8.876Y-4.5705
X8.876Y-4.6705
X8.876Y-4.7705
X8.876Y-4.8705
X8.876Y-4.9705
X8.876Y-5.0705
T6
X2.8937Y-1.7953
X2.8941Y-5.2972
T0
M30
