G04 #@! TF.GenerationSoftware,KiCad,Pcbnew,7.0.8*
G04 #@! TF.CreationDate,2025-05-19T15:23:48+02:00*
G04 #@! TF.ProjectId,AXINT_CE6C_CRESUS,4158494e-545f-4434-9536-435f43524553,rev?*
G04 #@! TF.SameCoordinates,Original*
G04 #@! TF.FileFunction,OtherDrawing,Comment*
%FSLAX46Y46*%
G04 Gerber Fmt 4.6, Leading zero omitted, Abs format (unit mm)*
G04 Created by KiCad (PCBNEW 7.0.8) date 2025-05-19 15:23:48*
%MOMM*%
%LPD*%
G01*
G04 APERTURE LIST*
%ADD10C,0.150000*%
%ADD11C,0.050000*%
G04 APERTURE END LIST*
D10*
X145844190Y-34610819D02*
X145272762Y-34610819D01*
X145558476Y-34610819D02*
X145558476Y-33610819D01*
X145558476Y-33610819D02*
X145463238Y-33753676D01*
X145463238Y-33753676D02*
X145368000Y-33848914D01*
X145368000Y-33848914D02*
X145272762Y-33896533D01*
X146701333Y-33610819D02*
X146510857Y-33610819D01*
X146510857Y-33610819D02*
X146415619Y-33658438D01*
X146415619Y-33658438D02*
X146368000Y-33706057D01*
X146368000Y-33706057D02*
X146272762Y-33848914D01*
X146272762Y-33848914D02*
X146225143Y-34039390D01*
X146225143Y-34039390D02*
X146225143Y-34420342D01*
X146225143Y-34420342D02*
X146272762Y-34515580D01*
X146272762Y-34515580D02*
X146320381Y-34563200D01*
X146320381Y-34563200D02*
X146415619Y-34610819D01*
X146415619Y-34610819D02*
X146606095Y-34610819D01*
X146606095Y-34610819D02*
X146701333Y-34563200D01*
X146701333Y-34563200D02*
X146748952Y-34515580D01*
X146748952Y-34515580D02*
X146796571Y-34420342D01*
X146796571Y-34420342D02*
X146796571Y-34182247D01*
X146796571Y-34182247D02*
X146748952Y-34087009D01*
X146748952Y-34087009D02*
X146701333Y-34039390D01*
X146701333Y-34039390D02*
X146606095Y-33991771D01*
X146606095Y-33991771D02*
X146415619Y-33991771D01*
X146415619Y-33991771D02*
X146320381Y-34039390D01*
X146320381Y-34039390D02*
X146272762Y-34087009D01*
X146272762Y-34087009D02*
X146225143Y-34182247D01*
X147415619Y-33610819D02*
X147510857Y-33610819D01*
X147510857Y-33610819D02*
X147606095Y-33658438D01*
X147606095Y-33658438D02*
X147653714Y-33706057D01*
X147653714Y-33706057D02*
X147701333Y-33801295D01*
X147701333Y-33801295D02*
X147748952Y-33991771D01*
X147748952Y-33991771D02*
X147748952Y-34229866D01*
X147748952Y-34229866D02*
X147701333Y-34420342D01*
X147701333Y-34420342D02*
X147653714Y-34515580D01*
X147653714Y-34515580D02*
X147606095Y-34563200D01*
X147606095Y-34563200D02*
X147510857Y-34610819D01*
X147510857Y-34610819D02*
X147415619Y-34610819D01*
X147415619Y-34610819D02*
X147320381Y-34563200D01*
X147320381Y-34563200D02*
X147272762Y-34515580D01*
X147272762Y-34515580D02*
X147225143Y-34420342D01*
X147225143Y-34420342D02*
X147177524Y-34229866D01*
X147177524Y-34229866D02*
X147177524Y-33991771D01*
X147177524Y-33991771D02*
X147225143Y-33801295D01*
X147225143Y-33801295D02*
X147272762Y-33706057D01*
X147272762Y-33706057D02*
X147320381Y-33658438D01*
X147320381Y-33658438D02*
X147415619Y-33610819D01*
X148177524Y-34515580D02*
X148225143Y-34563200D01*
X148225143Y-34563200D02*
X148177524Y-34610819D01*
X148177524Y-34610819D02*
X148129905Y-34563200D01*
X148129905Y-34563200D02*
X148177524Y-34515580D01*
X148177524Y-34515580D02*
X148177524Y-34610819D01*
X148558476Y-33610819D02*
X149225142Y-33610819D01*
X149225142Y-33610819D02*
X148796571Y-34610819D01*
X149748952Y-34039390D02*
X149653714Y-33991771D01*
X149653714Y-33991771D02*
X149606095Y-33944152D01*
X149606095Y-33944152D02*
X149558476Y-33848914D01*
X149558476Y-33848914D02*
X149558476Y-33801295D01*
X149558476Y-33801295D02*
X149606095Y-33706057D01*
X149606095Y-33706057D02*
X149653714Y-33658438D01*
X149653714Y-33658438D02*
X149748952Y-33610819D01*
X149748952Y-33610819D02*
X149939428Y-33610819D01*
X149939428Y-33610819D02*
X150034666Y-33658438D01*
X150034666Y-33658438D02*
X150082285Y-33706057D01*
X150082285Y-33706057D02*
X150129904Y-33801295D01*
X150129904Y-33801295D02*
X150129904Y-33848914D01*
X150129904Y-33848914D02*
X150082285Y-33944152D01*
X150082285Y-33944152D02*
X150034666Y-33991771D01*
X150034666Y-33991771D02*
X149939428Y-34039390D01*
X149939428Y-34039390D02*
X149748952Y-34039390D01*
X149748952Y-34039390D02*
X149653714Y-34087009D01*
X149653714Y-34087009D02*
X149606095Y-34134628D01*
X149606095Y-34134628D02*
X149558476Y-34229866D01*
X149558476Y-34229866D02*
X149558476Y-34420342D01*
X149558476Y-34420342D02*
X149606095Y-34515580D01*
X149606095Y-34515580D02*
X149653714Y-34563200D01*
X149653714Y-34563200D02*
X149748952Y-34610819D01*
X149748952Y-34610819D02*
X149939428Y-34610819D01*
X149939428Y-34610819D02*
X150034666Y-34563200D01*
X150034666Y-34563200D02*
X150082285Y-34515580D01*
X150082285Y-34515580D02*
X150129904Y-34420342D01*
X150129904Y-34420342D02*
X150129904Y-34229866D01*
X150129904Y-34229866D02*
X150082285Y-34134628D01*
X150082285Y-34134628D02*
X150034666Y-34087009D01*
X150034666Y-34087009D02*
X149939428Y-34039390D01*
X150510857Y-33706057D02*
X150558476Y-33658438D01*
X150558476Y-33658438D02*
X150653714Y-33610819D01*
X150653714Y-33610819D02*
X150891809Y-33610819D01*
X150891809Y-33610819D02*
X150987047Y-33658438D01*
X150987047Y-33658438D02*
X151034666Y-33706057D01*
X151034666Y-33706057D02*
X151082285Y-33801295D01*
X151082285Y-33801295D02*
X151082285Y-33896533D01*
X151082285Y-33896533D02*
X151034666Y-34039390D01*
X151034666Y-34039390D02*
X150463238Y-34610819D01*
X150463238Y-34610819D02*
X151082285Y-34610819D01*
X151701333Y-33610819D02*
X151796571Y-33610819D01*
X151796571Y-33610819D02*
X151891809Y-33658438D01*
X151891809Y-33658438D02*
X151939428Y-33706057D01*
X151939428Y-33706057D02*
X151987047Y-33801295D01*
X151987047Y-33801295D02*
X152034666Y-33991771D01*
X152034666Y-33991771D02*
X152034666Y-34229866D01*
X152034666Y-34229866D02*
X151987047Y-34420342D01*
X151987047Y-34420342D02*
X151939428Y-34515580D01*
X151939428Y-34515580D02*
X151891809Y-34563200D01*
X151891809Y-34563200D02*
X151796571Y-34610819D01*
X151796571Y-34610819D02*
X151701333Y-34610819D01*
X151701333Y-34610819D02*
X151606095Y-34563200D01*
X151606095Y-34563200D02*
X151558476Y-34515580D01*
X151558476Y-34515580D02*
X151510857Y-34420342D01*
X151510857Y-34420342D02*
X151463238Y-34229866D01*
X151463238Y-34229866D02*
X151463238Y-33991771D01*
X151463238Y-33991771D02*
X151510857Y-33801295D01*
X151510857Y-33801295D02*
X151558476Y-33706057D01*
X151558476Y-33706057D02*
X151606095Y-33658438D01*
X151606095Y-33658438D02*
X151701333Y-33610819D01*
X153225143Y-34610819D02*
X153225143Y-33944152D01*
X153225143Y-34039390D02*
X153272762Y-33991771D01*
X153272762Y-33991771D02*
X153368000Y-33944152D01*
X153368000Y-33944152D02*
X153510857Y-33944152D01*
X153510857Y-33944152D02*
X153606095Y-33991771D01*
X153606095Y-33991771D02*
X153653714Y-34087009D01*
X153653714Y-34087009D02*
X153653714Y-34610819D01*
X153653714Y-34087009D02*
X153701333Y-33991771D01*
X153701333Y-33991771D02*
X153796571Y-33944152D01*
X153796571Y-33944152D02*
X153939428Y-33944152D01*
X153939428Y-33944152D02*
X154034667Y-33991771D01*
X154034667Y-33991771D02*
X154082286Y-34087009D01*
X154082286Y-34087009D02*
X154082286Y-34610819D01*
X154558476Y-34610819D02*
X154558476Y-33944152D01*
X154558476Y-34039390D02*
X154606095Y-33991771D01*
X154606095Y-33991771D02*
X154701333Y-33944152D01*
X154701333Y-33944152D02*
X154844190Y-33944152D01*
X154844190Y-33944152D02*
X154939428Y-33991771D01*
X154939428Y-33991771D02*
X154987047Y-34087009D01*
X154987047Y-34087009D02*
X154987047Y-34610819D01*
X154987047Y-34087009D02*
X155034666Y-33991771D01*
X155034666Y-33991771D02*
X155129904Y-33944152D01*
X155129904Y-33944152D02*
X155272761Y-33944152D01*
X155272761Y-33944152D02*
X155368000Y-33991771D01*
X155368000Y-33991771D02*
X155415619Y-34087009D01*
X155415619Y-34087009D02*
X155415619Y-34610819D01*
X230759000Y-40005000D02*
X230759000Y-34719580D01*
X69977000Y-40005000D02*
X69977000Y-34719580D01*
X230759000Y-35306000D02*
X69977000Y-35306000D01*
X230759000Y-35306000D02*
X69977000Y-35306000D01*
X230759000Y-35306000D02*
X229632496Y-35892421D01*
X230759000Y-35306000D02*
X229632496Y-34719579D01*
X69977000Y-35306000D02*
X71103504Y-34719579D01*
X69977000Y-35306000D02*
X71103504Y-35892421D01*
X242382819Y-94523823D02*
X242382819Y-95095251D01*
X242382819Y-94809537D02*
X241382819Y-94809537D01*
X241382819Y-94809537D02*
X241525676Y-94904775D01*
X241525676Y-94904775D02*
X241620914Y-95000013D01*
X241620914Y-95000013D02*
X241668533Y-95095251D01*
X241382819Y-93904775D02*
X241382819Y-93809537D01*
X241382819Y-93809537D02*
X241430438Y-93714299D01*
X241430438Y-93714299D02*
X241478057Y-93666680D01*
X241478057Y-93666680D02*
X241573295Y-93619061D01*
X241573295Y-93619061D02*
X241763771Y-93571442D01*
X241763771Y-93571442D02*
X242001866Y-93571442D01*
X242001866Y-93571442D02*
X242192342Y-93619061D01*
X242192342Y-93619061D02*
X242287580Y-93666680D01*
X242287580Y-93666680D02*
X242335200Y-93714299D01*
X242335200Y-93714299D02*
X242382819Y-93809537D01*
X242382819Y-93809537D02*
X242382819Y-93904775D01*
X242382819Y-93904775D02*
X242335200Y-94000013D01*
X242335200Y-94000013D02*
X242287580Y-94047632D01*
X242287580Y-94047632D02*
X242192342Y-94095251D01*
X242192342Y-94095251D02*
X242001866Y-94142870D01*
X242001866Y-94142870D02*
X241763771Y-94142870D01*
X241763771Y-94142870D02*
X241573295Y-94095251D01*
X241573295Y-94095251D02*
X241478057Y-94047632D01*
X241478057Y-94047632D02*
X241430438Y-94000013D01*
X241430438Y-94000013D02*
X241382819Y-93904775D01*
X241382819Y-92952394D02*
X241382819Y-92857156D01*
X241382819Y-92857156D02*
X241430438Y-92761918D01*
X241430438Y-92761918D02*
X241478057Y-92714299D01*
X241478057Y-92714299D02*
X241573295Y-92666680D01*
X241573295Y-92666680D02*
X241763771Y-92619061D01*
X241763771Y-92619061D02*
X242001866Y-92619061D01*
X242001866Y-92619061D02*
X242192342Y-92666680D01*
X242192342Y-92666680D02*
X242287580Y-92714299D01*
X242287580Y-92714299D02*
X242335200Y-92761918D01*
X242335200Y-92761918D02*
X242382819Y-92857156D01*
X242382819Y-92857156D02*
X242382819Y-92952394D01*
X242382819Y-92952394D02*
X242335200Y-93047632D01*
X242335200Y-93047632D02*
X242287580Y-93095251D01*
X242287580Y-93095251D02*
X242192342Y-93142870D01*
X242192342Y-93142870D02*
X242001866Y-93190489D01*
X242001866Y-93190489D02*
X241763771Y-93190489D01*
X241763771Y-93190489D02*
X241573295Y-93142870D01*
X241573295Y-93142870D02*
X241478057Y-93095251D01*
X241478057Y-93095251D02*
X241430438Y-93047632D01*
X241430438Y-93047632D02*
X241382819Y-92952394D01*
X242287580Y-92190489D02*
X242335200Y-92142870D01*
X242335200Y-92142870D02*
X242382819Y-92190489D01*
X242382819Y-92190489D02*
X242335200Y-92238108D01*
X242335200Y-92238108D02*
X242287580Y-92190489D01*
X242287580Y-92190489D02*
X242382819Y-92190489D01*
X241382819Y-91523823D02*
X241382819Y-91428585D01*
X241382819Y-91428585D02*
X241430438Y-91333347D01*
X241430438Y-91333347D02*
X241478057Y-91285728D01*
X241478057Y-91285728D02*
X241573295Y-91238109D01*
X241573295Y-91238109D02*
X241763771Y-91190490D01*
X241763771Y-91190490D02*
X242001866Y-91190490D01*
X242001866Y-91190490D02*
X242192342Y-91238109D01*
X242192342Y-91238109D02*
X242287580Y-91285728D01*
X242287580Y-91285728D02*
X242335200Y-91333347D01*
X242335200Y-91333347D02*
X242382819Y-91428585D01*
X242382819Y-91428585D02*
X242382819Y-91523823D01*
X242382819Y-91523823D02*
X242335200Y-91619061D01*
X242335200Y-91619061D02*
X242287580Y-91666680D01*
X242287580Y-91666680D02*
X242192342Y-91714299D01*
X242192342Y-91714299D02*
X242001866Y-91761918D01*
X242001866Y-91761918D02*
X241763771Y-91761918D01*
X241763771Y-91761918D02*
X241573295Y-91714299D01*
X241573295Y-91714299D02*
X241478057Y-91666680D01*
X241478057Y-91666680D02*
X241430438Y-91619061D01*
X241430438Y-91619061D02*
X241382819Y-91523823D01*
X241382819Y-90571442D02*
X241382819Y-90476204D01*
X241382819Y-90476204D02*
X241430438Y-90380966D01*
X241430438Y-90380966D02*
X241478057Y-90333347D01*
X241478057Y-90333347D02*
X241573295Y-90285728D01*
X241573295Y-90285728D02*
X241763771Y-90238109D01*
X241763771Y-90238109D02*
X242001866Y-90238109D01*
X242001866Y-90238109D02*
X242192342Y-90285728D01*
X242192342Y-90285728D02*
X242287580Y-90333347D01*
X242287580Y-90333347D02*
X242335200Y-90380966D01*
X242335200Y-90380966D02*
X242382819Y-90476204D01*
X242382819Y-90476204D02*
X242382819Y-90571442D01*
X242382819Y-90571442D02*
X242335200Y-90666680D01*
X242335200Y-90666680D02*
X242287580Y-90714299D01*
X242287580Y-90714299D02*
X242192342Y-90761918D01*
X242192342Y-90761918D02*
X242001866Y-90809537D01*
X242001866Y-90809537D02*
X241763771Y-90809537D01*
X241763771Y-90809537D02*
X241573295Y-90761918D01*
X241573295Y-90761918D02*
X241478057Y-90714299D01*
X241478057Y-90714299D02*
X241430438Y-90666680D01*
X241430438Y-90666680D02*
X241382819Y-90571442D01*
X241382819Y-89619061D02*
X241382819Y-89523823D01*
X241382819Y-89523823D02*
X241430438Y-89428585D01*
X241430438Y-89428585D02*
X241478057Y-89380966D01*
X241478057Y-89380966D02*
X241573295Y-89333347D01*
X241573295Y-89333347D02*
X241763771Y-89285728D01*
X241763771Y-89285728D02*
X242001866Y-89285728D01*
X242001866Y-89285728D02*
X242192342Y-89333347D01*
X242192342Y-89333347D02*
X242287580Y-89380966D01*
X242287580Y-89380966D02*
X242335200Y-89428585D01*
X242335200Y-89428585D02*
X242382819Y-89523823D01*
X242382819Y-89523823D02*
X242382819Y-89619061D01*
X242382819Y-89619061D02*
X242335200Y-89714299D01*
X242335200Y-89714299D02*
X242287580Y-89761918D01*
X242287580Y-89761918D02*
X242192342Y-89809537D01*
X242192342Y-89809537D02*
X242001866Y-89857156D01*
X242001866Y-89857156D02*
X241763771Y-89857156D01*
X241763771Y-89857156D02*
X241573295Y-89809537D01*
X241573295Y-89809537D02*
X241478057Y-89761918D01*
X241478057Y-89761918D02*
X241430438Y-89714299D01*
X241430438Y-89714299D02*
X241382819Y-89619061D01*
X241382819Y-88666680D02*
X241382819Y-88571442D01*
X241382819Y-88571442D02*
X241430438Y-88476204D01*
X241430438Y-88476204D02*
X241478057Y-88428585D01*
X241478057Y-88428585D02*
X241573295Y-88380966D01*
X241573295Y-88380966D02*
X241763771Y-88333347D01*
X241763771Y-88333347D02*
X242001866Y-88333347D01*
X242001866Y-88333347D02*
X242192342Y-88380966D01*
X242192342Y-88380966D02*
X242287580Y-88428585D01*
X242287580Y-88428585D02*
X242335200Y-88476204D01*
X242335200Y-88476204D02*
X242382819Y-88571442D01*
X242382819Y-88571442D02*
X242382819Y-88666680D01*
X242382819Y-88666680D02*
X242335200Y-88761918D01*
X242335200Y-88761918D02*
X242287580Y-88809537D01*
X242287580Y-88809537D02*
X242192342Y-88857156D01*
X242192342Y-88857156D02*
X242001866Y-88904775D01*
X242001866Y-88904775D02*
X241763771Y-88904775D01*
X241763771Y-88904775D02*
X241573295Y-88857156D01*
X241573295Y-88857156D02*
X241478057Y-88809537D01*
X241478057Y-88809537D02*
X241430438Y-88761918D01*
X241430438Y-88761918D02*
X241382819Y-88666680D01*
X242382819Y-87142870D02*
X241716152Y-87142870D01*
X241811390Y-87142870D02*
X241763771Y-87095251D01*
X241763771Y-87095251D02*
X241716152Y-87000013D01*
X241716152Y-87000013D02*
X241716152Y-86857156D01*
X241716152Y-86857156D02*
X241763771Y-86761918D01*
X241763771Y-86761918D02*
X241859009Y-86714299D01*
X241859009Y-86714299D02*
X242382819Y-86714299D01*
X241859009Y-86714299D02*
X241763771Y-86666680D01*
X241763771Y-86666680D02*
X241716152Y-86571442D01*
X241716152Y-86571442D02*
X241716152Y-86428585D01*
X241716152Y-86428585D02*
X241763771Y-86333346D01*
X241763771Y-86333346D02*
X241859009Y-86285727D01*
X241859009Y-86285727D02*
X242382819Y-86285727D01*
X242382819Y-85809537D02*
X241716152Y-85809537D01*
X241811390Y-85809537D02*
X241763771Y-85761918D01*
X241763771Y-85761918D02*
X241716152Y-85666680D01*
X241716152Y-85666680D02*
X241716152Y-85523823D01*
X241716152Y-85523823D02*
X241763771Y-85428585D01*
X241763771Y-85428585D02*
X241859009Y-85380966D01*
X241859009Y-85380966D02*
X242382819Y-85380966D01*
X241859009Y-85380966D02*
X241763771Y-85333347D01*
X241763771Y-85333347D02*
X241716152Y-85238109D01*
X241716152Y-85238109D02*
X241716152Y-85095252D01*
X241716152Y-85095252D02*
X241763771Y-85000013D01*
X241763771Y-85000013D02*
X241859009Y-84952394D01*
X241859009Y-84952394D02*
X242382819Y-84952394D01*
X230760000Y-140000008D02*
X243664420Y-140000008D01*
X230760000Y-40000020D02*
X243664420Y-40000020D01*
X243078000Y-140000008D02*
X243078000Y-40000020D01*
X243078000Y-140000008D02*
X243078000Y-40000020D01*
X243078000Y-140000008D02*
X242491579Y-138873504D01*
X243078000Y-140000008D02*
X243664421Y-138873504D01*
X243078000Y-40000020D02*
X243664421Y-41126524D01*
X243078000Y-40000020D02*
X242491579Y-41126524D01*
X173141429Y-76168618D02*
X173236667Y-76168618D01*
X173236667Y-76168618D02*
X173331905Y-76216237D01*
X173331905Y-76216237D02*
X173379524Y-76263856D01*
X173379524Y-76263856D02*
X173427143Y-76359094D01*
X173427143Y-76359094D02*
X173474762Y-76549570D01*
X173474762Y-76549570D02*
X173474762Y-76787665D01*
X173474762Y-76787665D02*
X173427143Y-76978141D01*
X173427143Y-76978141D02*
X173379524Y-77073379D01*
X173379524Y-77073379D02*
X173331905Y-77120999D01*
X173331905Y-77120999D02*
X173236667Y-77168618D01*
X173236667Y-77168618D02*
X173141429Y-77168618D01*
X173141429Y-77168618D02*
X173046191Y-77120999D01*
X173046191Y-77120999D02*
X172998572Y-77073379D01*
X172998572Y-77073379D02*
X172950953Y-76978141D01*
X172950953Y-76978141D02*
X172903334Y-76787665D01*
X172903334Y-76787665D02*
X172903334Y-76549570D01*
X172903334Y-76549570D02*
X172950953Y-76359094D01*
X172950953Y-76359094D02*
X172998572Y-76263856D01*
X172998572Y-76263856D02*
X173046191Y-76216237D01*
X173046191Y-76216237D02*
X173141429Y-76168618D01*
X173903334Y-77073379D02*
X173950953Y-77120999D01*
X173950953Y-77120999D02*
X173903334Y-77168618D01*
X173903334Y-77168618D02*
X173855715Y-77120999D01*
X173855715Y-77120999D02*
X173903334Y-77073379D01*
X173903334Y-77073379D02*
X173903334Y-77168618D01*
X174570000Y-76168618D02*
X174665238Y-76168618D01*
X174665238Y-76168618D02*
X174760476Y-76216237D01*
X174760476Y-76216237D02*
X174808095Y-76263856D01*
X174808095Y-76263856D02*
X174855714Y-76359094D01*
X174855714Y-76359094D02*
X174903333Y-76549570D01*
X174903333Y-76549570D02*
X174903333Y-76787665D01*
X174903333Y-76787665D02*
X174855714Y-76978141D01*
X174855714Y-76978141D02*
X174808095Y-77073379D01*
X174808095Y-77073379D02*
X174760476Y-77120999D01*
X174760476Y-77120999D02*
X174665238Y-77168618D01*
X174665238Y-77168618D02*
X174570000Y-77168618D01*
X174570000Y-77168618D02*
X174474762Y-77120999D01*
X174474762Y-77120999D02*
X174427143Y-77073379D01*
X174427143Y-77073379D02*
X174379524Y-76978141D01*
X174379524Y-76978141D02*
X174331905Y-76787665D01*
X174331905Y-76787665D02*
X174331905Y-76549570D01*
X174331905Y-76549570D02*
X174379524Y-76359094D01*
X174379524Y-76359094D02*
X174427143Y-76263856D01*
X174427143Y-76263856D02*
X174474762Y-76216237D01*
X174474762Y-76216237D02*
X174570000Y-76168618D01*
X175284286Y-76263856D02*
X175331905Y-76216237D01*
X175331905Y-76216237D02*
X175427143Y-76168618D01*
X175427143Y-76168618D02*
X175665238Y-76168618D01*
X175665238Y-76168618D02*
X175760476Y-76216237D01*
X175760476Y-76216237D02*
X175808095Y-76263856D01*
X175808095Y-76263856D02*
X175855714Y-76359094D01*
X175855714Y-76359094D02*
X175855714Y-76454332D01*
X175855714Y-76454332D02*
X175808095Y-76597189D01*
X175808095Y-76597189D02*
X175236667Y-77168618D01*
X175236667Y-77168618D02*
X175855714Y-77168618D01*
X176712857Y-76168618D02*
X176522381Y-76168618D01*
X176522381Y-76168618D02*
X176427143Y-76216237D01*
X176427143Y-76216237D02*
X176379524Y-76263856D01*
X176379524Y-76263856D02*
X176284286Y-76406713D01*
X176284286Y-76406713D02*
X176236667Y-76597189D01*
X176236667Y-76597189D02*
X176236667Y-76978141D01*
X176236667Y-76978141D02*
X176284286Y-77073379D01*
X176284286Y-77073379D02*
X176331905Y-77120999D01*
X176331905Y-77120999D02*
X176427143Y-77168618D01*
X176427143Y-77168618D02*
X176617619Y-77168618D01*
X176617619Y-77168618D02*
X176712857Y-77120999D01*
X176712857Y-77120999D02*
X176760476Y-77073379D01*
X176760476Y-77073379D02*
X176808095Y-76978141D01*
X176808095Y-76978141D02*
X176808095Y-76740046D01*
X176808095Y-76740046D02*
X176760476Y-76644808D01*
X176760476Y-76644808D02*
X176712857Y-76597189D01*
X176712857Y-76597189D02*
X176617619Y-76549570D01*
X176617619Y-76549570D02*
X176427143Y-76549570D01*
X176427143Y-76549570D02*
X176331905Y-76597189D01*
X176331905Y-76597189D02*
X176284286Y-76644808D01*
X176284286Y-76644808D02*
X176236667Y-76740046D01*
X177236667Y-77168618D02*
X177236667Y-76501951D01*
X177236667Y-76168618D02*
X177189048Y-76216237D01*
X177189048Y-76216237D02*
X177236667Y-76263856D01*
X177236667Y-76263856D02*
X177284286Y-76216237D01*
X177284286Y-76216237D02*
X177236667Y-76168618D01*
X177236667Y-76168618D02*
X177236667Y-76263856D01*
X177712857Y-76501951D02*
X177712857Y-77168618D01*
X177712857Y-76597189D02*
X177760476Y-76549570D01*
X177760476Y-76549570D02*
X177855714Y-76501951D01*
X177855714Y-76501951D02*
X177998571Y-76501951D01*
X177998571Y-76501951D02*
X178093809Y-76549570D01*
X178093809Y-76549570D02*
X178141428Y-76644808D01*
X178141428Y-76644808D02*
X178141428Y-77168618D01*
X179331904Y-76120999D02*
X178474762Y-77406713D01*
X179855714Y-76168618D02*
X179950952Y-76168618D01*
X179950952Y-76168618D02*
X180046190Y-76216237D01*
X180046190Y-76216237D02*
X180093809Y-76263856D01*
X180093809Y-76263856D02*
X180141428Y-76359094D01*
X180141428Y-76359094D02*
X180189047Y-76549570D01*
X180189047Y-76549570D02*
X180189047Y-76787665D01*
X180189047Y-76787665D02*
X180141428Y-76978141D01*
X180141428Y-76978141D02*
X180093809Y-77073379D01*
X180093809Y-77073379D02*
X180046190Y-77120999D01*
X180046190Y-77120999D02*
X179950952Y-77168618D01*
X179950952Y-77168618D02*
X179855714Y-77168618D01*
X179855714Y-77168618D02*
X179760476Y-77120999D01*
X179760476Y-77120999D02*
X179712857Y-77073379D01*
X179712857Y-77073379D02*
X179665238Y-76978141D01*
X179665238Y-76978141D02*
X179617619Y-76787665D01*
X179617619Y-76787665D02*
X179617619Y-76549570D01*
X179617619Y-76549570D02*
X179665238Y-76359094D01*
X179665238Y-76359094D02*
X179712857Y-76263856D01*
X179712857Y-76263856D02*
X179760476Y-76216237D01*
X179760476Y-76216237D02*
X179855714Y-76168618D01*
X180617619Y-77073379D02*
X180665238Y-77120999D01*
X180665238Y-77120999D02*
X180617619Y-77168618D01*
X180617619Y-77168618D02*
X180570000Y-77120999D01*
X180570000Y-77120999D02*
X180617619Y-77073379D01*
X180617619Y-77073379D02*
X180617619Y-77168618D01*
X181522380Y-76168618D02*
X181331904Y-76168618D01*
X181331904Y-76168618D02*
X181236666Y-76216237D01*
X181236666Y-76216237D02*
X181189047Y-76263856D01*
X181189047Y-76263856D02*
X181093809Y-76406713D01*
X181093809Y-76406713D02*
X181046190Y-76597189D01*
X181046190Y-76597189D02*
X181046190Y-76978141D01*
X181046190Y-76978141D02*
X181093809Y-77073379D01*
X181093809Y-77073379D02*
X181141428Y-77120999D01*
X181141428Y-77120999D02*
X181236666Y-77168618D01*
X181236666Y-77168618D02*
X181427142Y-77168618D01*
X181427142Y-77168618D02*
X181522380Y-77120999D01*
X181522380Y-77120999D02*
X181569999Y-77073379D01*
X181569999Y-77073379D02*
X181617618Y-76978141D01*
X181617618Y-76978141D02*
X181617618Y-76740046D01*
X181617618Y-76740046D02*
X181569999Y-76644808D01*
X181569999Y-76644808D02*
X181522380Y-76597189D01*
X181522380Y-76597189D02*
X181427142Y-76549570D01*
X181427142Y-76549570D02*
X181236666Y-76549570D01*
X181236666Y-76549570D02*
X181141428Y-76597189D01*
X181141428Y-76597189D02*
X181093809Y-76644808D01*
X181093809Y-76644808D02*
X181046190Y-76740046D01*
X182522380Y-76168618D02*
X182046190Y-76168618D01*
X182046190Y-76168618D02*
X181998571Y-76644808D01*
X181998571Y-76644808D02*
X182046190Y-76597189D01*
X182046190Y-76597189D02*
X182141428Y-76549570D01*
X182141428Y-76549570D02*
X182379523Y-76549570D01*
X182379523Y-76549570D02*
X182474761Y-76597189D01*
X182474761Y-76597189D02*
X182522380Y-76644808D01*
X182522380Y-76644808D02*
X182569999Y-76740046D01*
X182569999Y-76740046D02*
X182569999Y-76978141D01*
X182569999Y-76978141D02*
X182522380Y-77073379D01*
X182522380Y-77073379D02*
X182474761Y-77120999D01*
X182474761Y-77120999D02*
X182379523Y-77168618D01*
X182379523Y-77168618D02*
X182141428Y-77168618D01*
X182141428Y-77168618D02*
X182046190Y-77120999D01*
X182046190Y-77120999D02*
X181998571Y-77073379D01*
X182998571Y-77168618D02*
X182998571Y-76501951D01*
X182998571Y-76597189D02*
X183046190Y-76549570D01*
X183046190Y-76549570D02*
X183141428Y-76501951D01*
X183141428Y-76501951D02*
X183284285Y-76501951D01*
X183284285Y-76501951D02*
X183379523Y-76549570D01*
X183379523Y-76549570D02*
X183427142Y-76644808D01*
X183427142Y-76644808D02*
X183427142Y-77168618D01*
X183427142Y-76644808D02*
X183474761Y-76549570D01*
X183474761Y-76549570D02*
X183569999Y-76501951D01*
X183569999Y-76501951D02*
X183712856Y-76501951D01*
X183712856Y-76501951D02*
X183808095Y-76549570D01*
X183808095Y-76549570D02*
X183855714Y-76644808D01*
X183855714Y-76644808D02*
X183855714Y-77168618D01*
X184331904Y-77168618D02*
X184331904Y-76501951D01*
X184331904Y-76597189D02*
X184379523Y-76549570D01*
X184379523Y-76549570D02*
X184474761Y-76501951D01*
X184474761Y-76501951D02*
X184617618Y-76501951D01*
X184617618Y-76501951D02*
X184712856Y-76549570D01*
X184712856Y-76549570D02*
X184760475Y-76644808D01*
X184760475Y-76644808D02*
X184760475Y-77168618D01*
X184760475Y-76644808D02*
X184808094Y-76549570D01*
X184808094Y-76549570D02*
X184903332Y-76501951D01*
X184903332Y-76501951D02*
X185046189Y-76501951D01*
X185046189Y-76501951D02*
X185141428Y-76549570D01*
X185141428Y-76549570D02*
X185189047Y-76644808D01*
X185189047Y-76644808D02*
X185189047Y-77168618D01*
X185032639Y-71118619D02*
X185127877Y-71118619D01*
X185127877Y-71118619D02*
X185223115Y-71166238D01*
X185223115Y-71166238D02*
X185270734Y-71213857D01*
X185270734Y-71213857D02*
X185318353Y-71309095D01*
X185318353Y-71309095D02*
X185365972Y-71499571D01*
X185365972Y-71499571D02*
X185365972Y-71737666D01*
X185365972Y-71737666D02*
X185318353Y-71928142D01*
X185318353Y-71928142D02*
X185270734Y-72023380D01*
X185270734Y-72023380D02*
X185223115Y-72071000D01*
X185223115Y-72071000D02*
X185127877Y-72118619D01*
X185127877Y-72118619D02*
X185032639Y-72118619D01*
X185032639Y-72118619D02*
X184937401Y-72071000D01*
X184937401Y-72071000D02*
X184889782Y-72023380D01*
X184889782Y-72023380D02*
X184842163Y-71928142D01*
X184842163Y-71928142D02*
X184794544Y-71737666D01*
X184794544Y-71737666D02*
X184794544Y-71499571D01*
X184794544Y-71499571D02*
X184842163Y-71309095D01*
X184842163Y-71309095D02*
X184889782Y-71213857D01*
X184889782Y-71213857D02*
X184937401Y-71166238D01*
X184937401Y-71166238D02*
X185032639Y-71118619D01*
X185794544Y-72023380D02*
X185842163Y-72071000D01*
X185842163Y-72071000D02*
X185794544Y-72118619D01*
X185794544Y-72118619D02*
X185746925Y-72071000D01*
X185746925Y-72071000D02*
X185794544Y-72023380D01*
X185794544Y-72023380D02*
X185794544Y-72118619D01*
X186461210Y-71118619D02*
X186556448Y-71118619D01*
X186556448Y-71118619D02*
X186651686Y-71166238D01*
X186651686Y-71166238D02*
X186699305Y-71213857D01*
X186699305Y-71213857D02*
X186746924Y-71309095D01*
X186746924Y-71309095D02*
X186794543Y-71499571D01*
X186794543Y-71499571D02*
X186794543Y-71737666D01*
X186794543Y-71737666D02*
X186746924Y-71928142D01*
X186746924Y-71928142D02*
X186699305Y-72023380D01*
X186699305Y-72023380D02*
X186651686Y-72071000D01*
X186651686Y-72071000D02*
X186556448Y-72118619D01*
X186556448Y-72118619D02*
X186461210Y-72118619D01*
X186461210Y-72118619D02*
X186365972Y-72071000D01*
X186365972Y-72071000D02*
X186318353Y-72023380D01*
X186318353Y-72023380D02*
X186270734Y-71928142D01*
X186270734Y-71928142D02*
X186223115Y-71737666D01*
X186223115Y-71737666D02*
X186223115Y-71499571D01*
X186223115Y-71499571D02*
X186270734Y-71309095D01*
X186270734Y-71309095D02*
X186318353Y-71213857D01*
X186318353Y-71213857D02*
X186365972Y-71166238D01*
X186365972Y-71166238D02*
X186461210Y-71118619D01*
X187746924Y-72118619D02*
X187175496Y-72118619D01*
X187461210Y-72118619D02*
X187461210Y-71118619D01*
X187461210Y-71118619D02*
X187365972Y-71261476D01*
X187365972Y-71261476D02*
X187270734Y-71356714D01*
X187270734Y-71356714D02*
X187175496Y-71404333D01*
X188604067Y-71451952D02*
X188604067Y-72118619D01*
X188365972Y-71071000D02*
X188127877Y-71785285D01*
X188127877Y-71785285D02*
X188746924Y-71785285D01*
X189127877Y-72118619D02*
X189127877Y-71451952D01*
X189127877Y-71118619D02*
X189080258Y-71166238D01*
X189080258Y-71166238D02*
X189127877Y-71213857D01*
X189127877Y-71213857D02*
X189175496Y-71166238D01*
X189175496Y-71166238D02*
X189127877Y-71118619D01*
X189127877Y-71118619D02*
X189127877Y-71213857D01*
X189604067Y-71451952D02*
X189604067Y-72118619D01*
X189604067Y-71547190D02*
X189651686Y-71499571D01*
X189651686Y-71499571D02*
X189746924Y-71451952D01*
X189746924Y-71451952D02*
X189889781Y-71451952D01*
X189889781Y-71451952D02*
X189985019Y-71499571D01*
X189985019Y-71499571D02*
X190032638Y-71594809D01*
X190032638Y-71594809D02*
X190032638Y-72118619D01*
X191223114Y-71071000D02*
X190365972Y-72356714D01*
X191746924Y-71118619D02*
X191842162Y-71118619D01*
X191842162Y-71118619D02*
X191937400Y-71166238D01*
X191937400Y-71166238D02*
X191985019Y-71213857D01*
X191985019Y-71213857D02*
X192032638Y-71309095D01*
X192032638Y-71309095D02*
X192080257Y-71499571D01*
X192080257Y-71499571D02*
X192080257Y-71737666D01*
X192080257Y-71737666D02*
X192032638Y-71928142D01*
X192032638Y-71928142D02*
X191985019Y-72023380D01*
X191985019Y-72023380D02*
X191937400Y-72071000D01*
X191937400Y-72071000D02*
X191842162Y-72118619D01*
X191842162Y-72118619D02*
X191746924Y-72118619D01*
X191746924Y-72118619D02*
X191651686Y-72071000D01*
X191651686Y-72071000D02*
X191604067Y-72023380D01*
X191604067Y-72023380D02*
X191556448Y-71928142D01*
X191556448Y-71928142D02*
X191508829Y-71737666D01*
X191508829Y-71737666D02*
X191508829Y-71499571D01*
X191508829Y-71499571D02*
X191556448Y-71309095D01*
X191556448Y-71309095D02*
X191604067Y-71213857D01*
X191604067Y-71213857D02*
X191651686Y-71166238D01*
X191651686Y-71166238D02*
X191746924Y-71118619D01*
X192508829Y-72023380D02*
X192556448Y-72071000D01*
X192556448Y-72071000D02*
X192508829Y-72118619D01*
X192508829Y-72118619D02*
X192461210Y-72071000D01*
X192461210Y-72071000D02*
X192508829Y-72023380D01*
X192508829Y-72023380D02*
X192508829Y-72118619D01*
X192889781Y-71118619D02*
X193508828Y-71118619D01*
X193508828Y-71118619D02*
X193175495Y-71499571D01*
X193175495Y-71499571D02*
X193318352Y-71499571D01*
X193318352Y-71499571D02*
X193413590Y-71547190D01*
X193413590Y-71547190D02*
X193461209Y-71594809D01*
X193461209Y-71594809D02*
X193508828Y-71690047D01*
X193508828Y-71690047D02*
X193508828Y-71928142D01*
X193508828Y-71928142D02*
X193461209Y-72023380D01*
X193461209Y-72023380D02*
X193413590Y-72071000D01*
X193413590Y-72071000D02*
X193318352Y-72118619D01*
X193318352Y-72118619D02*
X193032638Y-72118619D01*
X193032638Y-72118619D02*
X192937400Y-72071000D01*
X192937400Y-72071000D02*
X192889781Y-72023380D01*
X194413590Y-71118619D02*
X193937400Y-71118619D01*
X193937400Y-71118619D02*
X193889781Y-71594809D01*
X193889781Y-71594809D02*
X193937400Y-71547190D01*
X193937400Y-71547190D02*
X194032638Y-71499571D01*
X194032638Y-71499571D02*
X194270733Y-71499571D01*
X194270733Y-71499571D02*
X194365971Y-71547190D01*
X194365971Y-71547190D02*
X194413590Y-71594809D01*
X194413590Y-71594809D02*
X194461209Y-71690047D01*
X194461209Y-71690047D02*
X194461209Y-71928142D01*
X194461209Y-71928142D02*
X194413590Y-72023380D01*
X194413590Y-72023380D02*
X194365971Y-72071000D01*
X194365971Y-72071000D02*
X194270733Y-72118619D01*
X194270733Y-72118619D02*
X194032638Y-72118619D01*
X194032638Y-72118619D02*
X193937400Y-72071000D01*
X193937400Y-72071000D02*
X193889781Y-72023380D01*
X195365971Y-71118619D02*
X194889781Y-71118619D01*
X194889781Y-71118619D02*
X194842162Y-71594809D01*
X194842162Y-71594809D02*
X194889781Y-71547190D01*
X194889781Y-71547190D02*
X194985019Y-71499571D01*
X194985019Y-71499571D02*
X195223114Y-71499571D01*
X195223114Y-71499571D02*
X195318352Y-71547190D01*
X195318352Y-71547190D02*
X195365971Y-71594809D01*
X195365971Y-71594809D02*
X195413590Y-71690047D01*
X195413590Y-71690047D02*
X195413590Y-71928142D01*
X195413590Y-71928142D02*
X195365971Y-72023380D01*
X195365971Y-72023380D02*
X195318352Y-72071000D01*
X195318352Y-72071000D02*
X195223114Y-72118619D01*
X195223114Y-72118619D02*
X194985019Y-72118619D01*
X194985019Y-72118619D02*
X194889781Y-72071000D01*
X194889781Y-72071000D02*
X194842162Y-72023380D01*
X195842162Y-72118619D02*
X195842162Y-71451952D01*
X195842162Y-71547190D02*
X195889781Y-71499571D01*
X195889781Y-71499571D02*
X195985019Y-71451952D01*
X195985019Y-71451952D02*
X196127876Y-71451952D01*
X196127876Y-71451952D02*
X196223114Y-71499571D01*
X196223114Y-71499571D02*
X196270733Y-71594809D01*
X196270733Y-71594809D02*
X196270733Y-72118619D01*
X196270733Y-71594809D02*
X196318352Y-71499571D01*
X196318352Y-71499571D02*
X196413590Y-71451952D01*
X196413590Y-71451952D02*
X196556447Y-71451952D01*
X196556447Y-71451952D02*
X196651686Y-71499571D01*
X196651686Y-71499571D02*
X196699305Y-71594809D01*
X196699305Y-71594809D02*
X196699305Y-72118619D01*
X197175495Y-72118619D02*
X197175495Y-71451952D01*
X197175495Y-71547190D02*
X197223114Y-71499571D01*
X197223114Y-71499571D02*
X197318352Y-71451952D01*
X197318352Y-71451952D02*
X197461209Y-71451952D01*
X197461209Y-71451952D02*
X197556447Y-71499571D01*
X197556447Y-71499571D02*
X197604066Y-71594809D01*
X197604066Y-71594809D02*
X197604066Y-72118619D01*
X197604066Y-71594809D02*
X197651685Y-71499571D01*
X197651685Y-71499571D02*
X197746923Y-71451952D01*
X197746923Y-71451952D02*
X197889780Y-71451952D01*
X197889780Y-71451952D02*
X197985019Y-71499571D01*
X197985019Y-71499571D02*
X198032638Y-71594809D01*
X198032638Y-71594809D02*
X198032638Y-72118619D01*
X178532639Y-73152919D02*
X178627877Y-73152919D01*
X178627877Y-73152919D02*
X178723115Y-73200538D01*
X178723115Y-73200538D02*
X178770734Y-73248157D01*
X178770734Y-73248157D02*
X178818353Y-73343395D01*
X178818353Y-73343395D02*
X178865972Y-73533871D01*
X178865972Y-73533871D02*
X178865972Y-73771966D01*
X178865972Y-73771966D02*
X178818353Y-73962442D01*
X178818353Y-73962442D02*
X178770734Y-74057680D01*
X178770734Y-74057680D02*
X178723115Y-74105300D01*
X178723115Y-74105300D02*
X178627877Y-74152919D01*
X178627877Y-74152919D02*
X178532639Y-74152919D01*
X178532639Y-74152919D02*
X178437401Y-74105300D01*
X178437401Y-74105300D02*
X178389782Y-74057680D01*
X178389782Y-74057680D02*
X178342163Y-73962442D01*
X178342163Y-73962442D02*
X178294544Y-73771966D01*
X178294544Y-73771966D02*
X178294544Y-73533871D01*
X178294544Y-73533871D02*
X178342163Y-73343395D01*
X178342163Y-73343395D02*
X178389782Y-73248157D01*
X178389782Y-73248157D02*
X178437401Y-73200538D01*
X178437401Y-73200538D02*
X178532639Y-73152919D01*
X179294544Y-74057680D02*
X179342163Y-74105300D01*
X179342163Y-74105300D02*
X179294544Y-74152919D01*
X179294544Y-74152919D02*
X179246925Y-74105300D01*
X179246925Y-74105300D02*
X179294544Y-74057680D01*
X179294544Y-74057680D02*
X179294544Y-74152919D01*
X179723115Y-73248157D02*
X179770734Y-73200538D01*
X179770734Y-73200538D02*
X179865972Y-73152919D01*
X179865972Y-73152919D02*
X180104067Y-73152919D01*
X180104067Y-73152919D02*
X180199305Y-73200538D01*
X180199305Y-73200538D02*
X180246924Y-73248157D01*
X180246924Y-73248157D02*
X180294543Y-73343395D01*
X180294543Y-73343395D02*
X180294543Y-73438633D01*
X180294543Y-73438633D02*
X180246924Y-73581490D01*
X180246924Y-73581490D02*
X179675496Y-74152919D01*
X179675496Y-74152919D02*
X180294543Y-74152919D01*
X180675496Y-73248157D02*
X180723115Y-73200538D01*
X180723115Y-73200538D02*
X180818353Y-73152919D01*
X180818353Y-73152919D02*
X181056448Y-73152919D01*
X181056448Y-73152919D02*
X181151686Y-73200538D01*
X181151686Y-73200538D02*
X181199305Y-73248157D01*
X181199305Y-73248157D02*
X181246924Y-73343395D01*
X181246924Y-73343395D02*
X181246924Y-73438633D01*
X181246924Y-73438633D02*
X181199305Y-73581490D01*
X181199305Y-73581490D02*
X180627877Y-74152919D01*
X180627877Y-74152919D02*
X181246924Y-74152919D01*
X181627877Y-73248157D02*
X181675496Y-73200538D01*
X181675496Y-73200538D02*
X181770734Y-73152919D01*
X181770734Y-73152919D02*
X182008829Y-73152919D01*
X182008829Y-73152919D02*
X182104067Y-73200538D01*
X182104067Y-73200538D02*
X182151686Y-73248157D01*
X182151686Y-73248157D02*
X182199305Y-73343395D01*
X182199305Y-73343395D02*
X182199305Y-73438633D01*
X182199305Y-73438633D02*
X182151686Y-73581490D01*
X182151686Y-73581490D02*
X181580258Y-74152919D01*
X181580258Y-74152919D02*
X182199305Y-74152919D01*
X182627877Y-74152919D02*
X182627877Y-73486252D01*
X182627877Y-73152919D02*
X182580258Y-73200538D01*
X182580258Y-73200538D02*
X182627877Y-73248157D01*
X182627877Y-73248157D02*
X182675496Y-73200538D01*
X182675496Y-73200538D02*
X182627877Y-73152919D01*
X182627877Y-73152919D02*
X182627877Y-73248157D01*
X183104067Y-73486252D02*
X183104067Y-74152919D01*
X183104067Y-73581490D02*
X183151686Y-73533871D01*
X183151686Y-73533871D02*
X183246924Y-73486252D01*
X183246924Y-73486252D02*
X183389781Y-73486252D01*
X183389781Y-73486252D02*
X183485019Y-73533871D01*
X183485019Y-73533871D02*
X183532638Y-73629109D01*
X183532638Y-73629109D02*
X183532638Y-74152919D01*
X184723114Y-73105300D02*
X183865972Y-74391014D01*
X185532638Y-73152919D02*
X185056448Y-73152919D01*
X185056448Y-73152919D02*
X185008829Y-73629109D01*
X185008829Y-73629109D02*
X185056448Y-73581490D01*
X185056448Y-73581490D02*
X185151686Y-73533871D01*
X185151686Y-73533871D02*
X185389781Y-73533871D01*
X185389781Y-73533871D02*
X185485019Y-73581490D01*
X185485019Y-73581490D02*
X185532638Y-73629109D01*
X185532638Y-73629109D02*
X185580257Y-73724347D01*
X185580257Y-73724347D02*
X185580257Y-73962442D01*
X185580257Y-73962442D02*
X185532638Y-74057680D01*
X185532638Y-74057680D02*
X185485019Y-74105300D01*
X185485019Y-74105300D02*
X185389781Y-74152919D01*
X185389781Y-74152919D02*
X185151686Y-74152919D01*
X185151686Y-74152919D02*
X185056448Y-74105300D01*
X185056448Y-74105300D02*
X185008829Y-74057680D01*
X186008829Y-74057680D02*
X186056448Y-74105300D01*
X186056448Y-74105300D02*
X186008829Y-74152919D01*
X186008829Y-74152919D02*
X185961210Y-74105300D01*
X185961210Y-74105300D02*
X186008829Y-74057680D01*
X186008829Y-74057680D02*
X186008829Y-74152919D01*
X186913590Y-73152919D02*
X186723114Y-73152919D01*
X186723114Y-73152919D02*
X186627876Y-73200538D01*
X186627876Y-73200538D02*
X186580257Y-73248157D01*
X186580257Y-73248157D02*
X186485019Y-73391014D01*
X186485019Y-73391014D02*
X186437400Y-73581490D01*
X186437400Y-73581490D02*
X186437400Y-73962442D01*
X186437400Y-73962442D02*
X186485019Y-74057680D01*
X186485019Y-74057680D02*
X186532638Y-74105300D01*
X186532638Y-74105300D02*
X186627876Y-74152919D01*
X186627876Y-74152919D02*
X186818352Y-74152919D01*
X186818352Y-74152919D02*
X186913590Y-74105300D01*
X186913590Y-74105300D02*
X186961209Y-74057680D01*
X186961209Y-74057680D02*
X187008828Y-73962442D01*
X187008828Y-73962442D02*
X187008828Y-73724347D01*
X187008828Y-73724347D02*
X186961209Y-73629109D01*
X186961209Y-73629109D02*
X186913590Y-73581490D01*
X186913590Y-73581490D02*
X186818352Y-73533871D01*
X186818352Y-73533871D02*
X186627876Y-73533871D01*
X186627876Y-73533871D02*
X186532638Y-73581490D01*
X186532638Y-73581490D02*
X186485019Y-73629109D01*
X186485019Y-73629109D02*
X186437400Y-73724347D01*
X187342162Y-73152919D02*
X187961209Y-73152919D01*
X187961209Y-73152919D02*
X187627876Y-73533871D01*
X187627876Y-73533871D02*
X187770733Y-73533871D01*
X187770733Y-73533871D02*
X187865971Y-73581490D01*
X187865971Y-73581490D02*
X187913590Y-73629109D01*
X187913590Y-73629109D02*
X187961209Y-73724347D01*
X187961209Y-73724347D02*
X187961209Y-73962442D01*
X187961209Y-73962442D02*
X187913590Y-74057680D01*
X187913590Y-74057680D02*
X187865971Y-74105300D01*
X187865971Y-74105300D02*
X187770733Y-74152919D01*
X187770733Y-74152919D02*
X187485019Y-74152919D01*
X187485019Y-74152919D02*
X187389781Y-74105300D01*
X187389781Y-74105300D02*
X187342162Y-74057680D01*
X188437400Y-74152919D02*
X188627876Y-74152919D01*
X188627876Y-74152919D02*
X188723114Y-74105300D01*
X188723114Y-74105300D02*
X188770733Y-74057680D01*
X188770733Y-74057680D02*
X188865971Y-73914823D01*
X188865971Y-73914823D02*
X188913590Y-73724347D01*
X188913590Y-73724347D02*
X188913590Y-73343395D01*
X188913590Y-73343395D02*
X188865971Y-73248157D01*
X188865971Y-73248157D02*
X188818352Y-73200538D01*
X188818352Y-73200538D02*
X188723114Y-73152919D01*
X188723114Y-73152919D02*
X188532638Y-73152919D01*
X188532638Y-73152919D02*
X188437400Y-73200538D01*
X188437400Y-73200538D02*
X188389781Y-73248157D01*
X188389781Y-73248157D02*
X188342162Y-73343395D01*
X188342162Y-73343395D02*
X188342162Y-73581490D01*
X188342162Y-73581490D02*
X188389781Y-73676728D01*
X188389781Y-73676728D02*
X188437400Y-73724347D01*
X188437400Y-73724347D02*
X188532638Y-73771966D01*
X188532638Y-73771966D02*
X188723114Y-73771966D01*
X188723114Y-73771966D02*
X188818352Y-73724347D01*
X188818352Y-73724347D02*
X188865971Y-73676728D01*
X188865971Y-73676728D02*
X188913590Y-73581490D01*
X189342162Y-74152919D02*
X189342162Y-73486252D01*
X189342162Y-73581490D02*
X189389781Y-73533871D01*
X189389781Y-73533871D02*
X189485019Y-73486252D01*
X189485019Y-73486252D02*
X189627876Y-73486252D01*
X189627876Y-73486252D02*
X189723114Y-73533871D01*
X189723114Y-73533871D02*
X189770733Y-73629109D01*
X189770733Y-73629109D02*
X189770733Y-74152919D01*
X189770733Y-73629109D02*
X189818352Y-73533871D01*
X189818352Y-73533871D02*
X189913590Y-73486252D01*
X189913590Y-73486252D02*
X190056447Y-73486252D01*
X190056447Y-73486252D02*
X190151686Y-73533871D01*
X190151686Y-73533871D02*
X190199305Y-73629109D01*
X190199305Y-73629109D02*
X190199305Y-74152919D01*
X190675495Y-74152919D02*
X190675495Y-73486252D01*
X190675495Y-73581490D02*
X190723114Y-73533871D01*
X190723114Y-73533871D02*
X190818352Y-73486252D01*
X190818352Y-73486252D02*
X190961209Y-73486252D01*
X190961209Y-73486252D02*
X191056447Y-73533871D01*
X191056447Y-73533871D02*
X191104066Y-73629109D01*
X191104066Y-73629109D02*
X191104066Y-74152919D01*
X191104066Y-73629109D02*
X191151685Y-73533871D01*
X191151685Y-73533871D02*
X191246923Y-73486252D01*
X191246923Y-73486252D02*
X191389780Y-73486252D01*
X191389780Y-73486252D02*
X191485019Y-73533871D01*
X191485019Y-73533871D02*
X191532638Y-73629109D01*
X191532638Y-73629109D02*
X191532638Y-74152919D01*
X175713239Y-83084319D02*
X175808477Y-83084319D01*
X175808477Y-83084319D02*
X175903715Y-83131938D01*
X175903715Y-83131938D02*
X175951334Y-83179557D01*
X175951334Y-83179557D02*
X175998953Y-83274795D01*
X175998953Y-83274795D02*
X176046572Y-83465271D01*
X176046572Y-83465271D02*
X176046572Y-83703366D01*
X176046572Y-83703366D02*
X175998953Y-83893842D01*
X175998953Y-83893842D02*
X175951334Y-83989080D01*
X175951334Y-83989080D02*
X175903715Y-84036700D01*
X175903715Y-84036700D02*
X175808477Y-84084319D01*
X175808477Y-84084319D02*
X175713239Y-84084319D01*
X175713239Y-84084319D02*
X175618001Y-84036700D01*
X175618001Y-84036700D02*
X175570382Y-83989080D01*
X175570382Y-83989080D02*
X175522763Y-83893842D01*
X175522763Y-83893842D02*
X175475144Y-83703366D01*
X175475144Y-83703366D02*
X175475144Y-83465271D01*
X175475144Y-83465271D02*
X175522763Y-83274795D01*
X175522763Y-83274795D02*
X175570382Y-83179557D01*
X175570382Y-83179557D02*
X175618001Y-83131938D01*
X175618001Y-83131938D02*
X175713239Y-83084319D01*
X176475144Y-83989080D02*
X176522763Y-84036700D01*
X176522763Y-84036700D02*
X176475144Y-84084319D01*
X176475144Y-84084319D02*
X176427525Y-84036700D01*
X176427525Y-84036700D02*
X176475144Y-83989080D01*
X176475144Y-83989080D02*
X176475144Y-84084319D01*
X177141810Y-83084319D02*
X177237048Y-83084319D01*
X177237048Y-83084319D02*
X177332286Y-83131938D01*
X177332286Y-83131938D02*
X177379905Y-83179557D01*
X177379905Y-83179557D02*
X177427524Y-83274795D01*
X177427524Y-83274795D02*
X177475143Y-83465271D01*
X177475143Y-83465271D02*
X177475143Y-83703366D01*
X177475143Y-83703366D02*
X177427524Y-83893842D01*
X177427524Y-83893842D02*
X177379905Y-83989080D01*
X177379905Y-83989080D02*
X177332286Y-84036700D01*
X177332286Y-84036700D02*
X177237048Y-84084319D01*
X177237048Y-84084319D02*
X177141810Y-84084319D01*
X177141810Y-84084319D02*
X177046572Y-84036700D01*
X177046572Y-84036700D02*
X176998953Y-83989080D01*
X176998953Y-83989080D02*
X176951334Y-83893842D01*
X176951334Y-83893842D02*
X176903715Y-83703366D01*
X176903715Y-83703366D02*
X176903715Y-83465271D01*
X176903715Y-83465271D02*
X176951334Y-83274795D01*
X176951334Y-83274795D02*
X176998953Y-83179557D01*
X176998953Y-83179557D02*
X177046572Y-83131938D01*
X177046572Y-83131938D02*
X177141810Y-83084319D01*
X178379905Y-83084319D02*
X177903715Y-83084319D01*
X177903715Y-83084319D02*
X177856096Y-83560509D01*
X177856096Y-83560509D02*
X177903715Y-83512890D01*
X177903715Y-83512890D02*
X177998953Y-83465271D01*
X177998953Y-83465271D02*
X178237048Y-83465271D01*
X178237048Y-83465271D02*
X178332286Y-83512890D01*
X178332286Y-83512890D02*
X178379905Y-83560509D01*
X178379905Y-83560509D02*
X178427524Y-83655747D01*
X178427524Y-83655747D02*
X178427524Y-83893842D01*
X178427524Y-83893842D02*
X178379905Y-83989080D01*
X178379905Y-83989080D02*
X178332286Y-84036700D01*
X178332286Y-84036700D02*
X178237048Y-84084319D01*
X178237048Y-84084319D02*
X177998953Y-84084319D01*
X177998953Y-84084319D02*
X177903715Y-84036700D01*
X177903715Y-84036700D02*
X177856096Y-83989080D01*
X178998953Y-83512890D02*
X178903715Y-83465271D01*
X178903715Y-83465271D02*
X178856096Y-83417652D01*
X178856096Y-83417652D02*
X178808477Y-83322414D01*
X178808477Y-83322414D02*
X178808477Y-83274795D01*
X178808477Y-83274795D02*
X178856096Y-83179557D01*
X178856096Y-83179557D02*
X178903715Y-83131938D01*
X178903715Y-83131938D02*
X178998953Y-83084319D01*
X178998953Y-83084319D02*
X179189429Y-83084319D01*
X179189429Y-83084319D02*
X179284667Y-83131938D01*
X179284667Y-83131938D02*
X179332286Y-83179557D01*
X179332286Y-83179557D02*
X179379905Y-83274795D01*
X179379905Y-83274795D02*
X179379905Y-83322414D01*
X179379905Y-83322414D02*
X179332286Y-83417652D01*
X179332286Y-83417652D02*
X179284667Y-83465271D01*
X179284667Y-83465271D02*
X179189429Y-83512890D01*
X179189429Y-83512890D02*
X178998953Y-83512890D01*
X178998953Y-83512890D02*
X178903715Y-83560509D01*
X178903715Y-83560509D02*
X178856096Y-83608128D01*
X178856096Y-83608128D02*
X178808477Y-83703366D01*
X178808477Y-83703366D02*
X178808477Y-83893842D01*
X178808477Y-83893842D02*
X178856096Y-83989080D01*
X178856096Y-83989080D02*
X178903715Y-84036700D01*
X178903715Y-84036700D02*
X178998953Y-84084319D01*
X178998953Y-84084319D02*
X179189429Y-84084319D01*
X179189429Y-84084319D02*
X179284667Y-84036700D01*
X179284667Y-84036700D02*
X179332286Y-83989080D01*
X179332286Y-83989080D02*
X179379905Y-83893842D01*
X179379905Y-83893842D02*
X179379905Y-83703366D01*
X179379905Y-83703366D02*
X179332286Y-83608128D01*
X179332286Y-83608128D02*
X179284667Y-83560509D01*
X179284667Y-83560509D02*
X179189429Y-83512890D01*
X179808477Y-84084319D02*
X179808477Y-83417652D01*
X179808477Y-83084319D02*
X179760858Y-83131938D01*
X179760858Y-83131938D02*
X179808477Y-83179557D01*
X179808477Y-83179557D02*
X179856096Y-83131938D01*
X179856096Y-83131938D02*
X179808477Y-83084319D01*
X179808477Y-83084319D02*
X179808477Y-83179557D01*
X180284667Y-83417652D02*
X180284667Y-84084319D01*
X180284667Y-83512890D02*
X180332286Y-83465271D01*
X180332286Y-83465271D02*
X180427524Y-83417652D01*
X180427524Y-83417652D02*
X180570381Y-83417652D01*
X180570381Y-83417652D02*
X180665619Y-83465271D01*
X180665619Y-83465271D02*
X180713238Y-83560509D01*
X180713238Y-83560509D02*
X180713238Y-84084319D01*
X181903714Y-83036700D02*
X181046572Y-84322414D01*
X182760857Y-84084319D02*
X182189429Y-84084319D01*
X182475143Y-84084319D02*
X182475143Y-83084319D01*
X182475143Y-83084319D02*
X182379905Y-83227176D01*
X182379905Y-83227176D02*
X182284667Y-83322414D01*
X182284667Y-83322414D02*
X182189429Y-83370033D01*
X183189429Y-83989080D02*
X183237048Y-84036700D01*
X183237048Y-84036700D02*
X183189429Y-84084319D01*
X183189429Y-84084319D02*
X183141810Y-84036700D01*
X183141810Y-84036700D02*
X183189429Y-83989080D01*
X183189429Y-83989080D02*
X183189429Y-84084319D01*
X184094190Y-83417652D02*
X184094190Y-84084319D01*
X183856095Y-83036700D02*
X183618000Y-83750985D01*
X183618000Y-83750985D02*
X184237047Y-83750985D01*
X185046571Y-83084319D02*
X184856095Y-83084319D01*
X184856095Y-83084319D02*
X184760857Y-83131938D01*
X184760857Y-83131938D02*
X184713238Y-83179557D01*
X184713238Y-83179557D02*
X184618000Y-83322414D01*
X184618000Y-83322414D02*
X184570381Y-83512890D01*
X184570381Y-83512890D02*
X184570381Y-83893842D01*
X184570381Y-83893842D02*
X184618000Y-83989080D01*
X184618000Y-83989080D02*
X184665619Y-84036700D01*
X184665619Y-84036700D02*
X184760857Y-84084319D01*
X184760857Y-84084319D02*
X184951333Y-84084319D01*
X184951333Y-84084319D02*
X185046571Y-84036700D01*
X185046571Y-84036700D02*
X185094190Y-83989080D01*
X185094190Y-83989080D02*
X185141809Y-83893842D01*
X185141809Y-83893842D02*
X185141809Y-83655747D01*
X185141809Y-83655747D02*
X185094190Y-83560509D01*
X185094190Y-83560509D02*
X185046571Y-83512890D01*
X185046571Y-83512890D02*
X184951333Y-83465271D01*
X184951333Y-83465271D02*
X184760857Y-83465271D01*
X184760857Y-83465271D02*
X184665619Y-83512890D01*
X184665619Y-83512890D02*
X184618000Y-83560509D01*
X184618000Y-83560509D02*
X184570381Y-83655747D01*
X185522762Y-83179557D02*
X185570381Y-83131938D01*
X185570381Y-83131938D02*
X185665619Y-83084319D01*
X185665619Y-83084319D02*
X185903714Y-83084319D01*
X185903714Y-83084319D02*
X185998952Y-83131938D01*
X185998952Y-83131938D02*
X186046571Y-83179557D01*
X186046571Y-83179557D02*
X186094190Y-83274795D01*
X186094190Y-83274795D02*
X186094190Y-83370033D01*
X186094190Y-83370033D02*
X186046571Y-83512890D01*
X186046571Y-83512890D02*
X185475143Y-84084319D01*
X185475143Y-84084319D02*
X186094190Y-84084319D01*
X186522762Y-84084319D02*
X186522762Y-83417652D01*
X186522762Y-83512890D02*
X186570381Y-83465271D01*
X186570381Y-83465271D02*
X186665619Y-83417652D01*
X186665619Y-83417652D02*
X186808476Y-83417652D01*
X186808476Y-83417652D02*
X186903714Y-83465271D01*
X186903714Y-83465271D02*
X186951333Y-83560509D01*
X186951333Y-83560509D02*
X186951333Y-84084319D01*
X186951333Y-83560509D02*
X186998952Y-83465271D01*
X186998952Y-83465271D02*
X187094190Y-83417652D01*
X187094190Y-83417652D02*
X187237047Y-83417652D01*
X187237047Y-83417652D02*
X187332286Y-83465271D01*
X187332286Y-83465271D02*
X187379905Y-83560509D01*
X187379905Y-83560509D02*
X187379905Y-84084319D01*
X187856095Y-84084319D02*
X187856095Y-83417652D01*
X187856095Y-83512890D02*
X187903714Y-83465271D01*
X187903714Y-83465271D02*
X187998952Y-83417652D01*
X187998952Y-83417652D02*
X188141809Y-83417652D01*
X188141809Y-83417652D02*
X188237047Y-83465271D01*
X188237047Y-83465271D02*
X188284666Y-83560509D01*
X188284666Y-83560509D02*
X188284666Y-84084319D01*
X188284666Y-83560509D02*
X188332285Y-83465271D01*
X188332285Y-83465271D02*
X188427523Y-83417652D01*
X188427523Y-83417652D02*
X188570380Y-83417652D01*
X188570380Y-83417652D02*
X188665619Y-83465271D01*
X188665619Y-83465271D02*
X188713238Y-83560509D01*
X188713238Y-83560509D02*
X188713238Y-84084319D01*
X155615429Y-72866618D02*
X155710667Y-72866618D01*
X155710667Y-72866618D02*
X155805905Y-72914237D01*
X155805905Y-72914237D02*
X155853524Y-72961856D01*
X155853524Y-72961856D02*
X155901143Y-73057094D01*
X155901143Y-73057094D02*
X155948762Y-73247570D01*
X155948762Y-73247570D02*
X155948762Y-73485665D01*
X155948762Y-73485665D02*
X155901143Y-73676141D01*
X155901143Y-73676141D02*
X155853524Y-73771379D01*
X155853524Y-73771379D02*
X155805905Y-73818999D01*
X155805905Y-73818999D02*
X155710667Y-73866618D01*
X155710667Y-73866618D02*
X155615429Y-73866618D01*
X155615429Y-73866618D02*
X155520191Y-73818999D01*
X155520191Y-73818999D02*
X155472572Y-73771379D01*
X155472572Y-73771379D02*
X155424953Y-73676141D01*
X155424953Y-73676141D02*
X155377334Y-73485665D01*
X155377334Y-73485665D02*
X155377334Y-73247570D01*
X155377334Y-73247570D02*
X155424953Y-73057094D01*
X155424953Y-73057094D02*
X155472572Y-72961856D01*
X155472572Y-72961856D02*
X155520191Y-72914237D01*
X155520191Y-72914237D02*
X155615429Y-72866618D01*
X156377334Y-73771379D02*
X156424953Y-73818999D01*
X156424953Y-73818999D02*
X156377334Y-73866618D01*
X156377334Y-73866618D02*
X156329715Y-73818999D01*
X156329715Y-73818999D02*
X156377334Y-73771379D01*
X156377334Y-73771379D02*
X156377334Y-73866618D01*
X157044000Y-72866618D02*
X157139238Y-72866618D01*
X157139238Y-72866618D02*
X157234476Y-72914237D01*
X157234476Y-72914237D02*
X157282095Y-72961856D01*
X157282095Y-72961856D02*
X157329714Y-73057094D01*
X157329714Y-73057094D02*
X157377333Y-73247570D01*
X157377333Y-73247570D02*
X157377333Y-73485665D01*
X157377333Y-73485665D02*
X157329714Y-73676141D01*
X157329714Y-73676141D02*
X157282095Y-73771379D01*
X157282095Y-73771379D02*
X157234476Y-73818999D01*
X157234476Y-73818999D02*
X157139238Y-73866618D01*
X157139238Y-73866618D02*
X157044000Y-73866618D01*
X157044000Y-73866618D02*
X156948762Y-73818999D01*
X156948762Y-73818999D02*
X156901143Y-73771379D01*
X156901143Y-73771379D02*
X156853524Y-73676141D01*
X156853524Y-73676141D02*
X156805905Y-73485665D01*
X156805905Y-73485665D02*
X156805905Y-73247570D01*
X156805905Y-73247570D02*
X156853524Y-73057094D01*
X156853524Y-73057094D02*
X156901143Y-72961856D01*
X156901143Y-72961856D02*
X156948762Y-72914237D01*
X156948762Y-72914237D02*
X157044000Y-72866618D01*
X157758286Y-72961856D02*
X157805905Y-72914237D01*
X157805905Y-72914237D02*
X157901143Y-72866618D01*
X157901143Y-72866618D02*
X158139238Y-72866618D01*
X158139238Y-72866618D02*
X158234476Y-72914237D01*
X158234476Y-72914237D02*
X158282095Y-72961856D01*
X158282095Y-72961856D02*
X158329714Y-73057094D01*
X158329714Y-73057094D02*
X158329714Y-73152332D01*
X158329714Y-73152332D02*
X158282095Y-73295189D01*
X158282095Y-73295189D02*
X157710667Y-73866618D01*
X157710667Y-73866618D02*
X158329714Y-73866618D01*
X159186857Y-72866618D02*
X158996381Y-72866618D01*
X158996381Y-72866618D02*
X158901143Y-72914237D01*
X158901143Y-72914237D02*
X158853524Y-72961856D01*
X158853524Y-72961856D02*
X158758286Y-73104713D01*
X158758286Y-73104713D02*
X158710667Y-73295189D01*
X158710667Y-73295189D02*
X158710667Y-73676141D01*
X158710667Y-73676141D02*
X158758286Y-73771379D01*
X158758286Y-73771379D02*
X158805905Y-73818999D01*
X158805905Y-73818999D02*
X158901143Y-73866618D01*
X158901143Y-73866618D02*
X159091619Y-73866618D01*
X159091619Y-73866618D02*
X159186857Y-73818999D01*
X159186857Y-73818999D02*
X159234476Y-73771379D01*
X159234476Y-73771379D02*
X159282095Y-73676141D01*
X159282095Y-73676141D02*
X159282095Y-73438046D01*
X159282095Y-73438046D02*
X159234476Y-73342808D01*
X159234476Y-73342808D02*
X159186857Y-73295189D01*
X159186857Y-73295189D02*
X159091619Y-73247570D01*
X159091619Y-73247570D02*
X158901143Y-73247570D01*
X158901143Y-73247570D02*
X158805905Y-73295189D01*
X158805905Y-73295189D02*
X158758286Y-73342808D01*
X158758286Y-73342808D02*
X158710667Y-73438046D01*
X159710667Y-73866618D02*
X159710667Y-73199951D01*
X159710667Y-72866618D02*
X159663048Y-72914237D01*
X159663048Y-72914237D02*
X159710667Y-72961856D01*
X159710667Y-72961856D02*
X159758286Y-72914237D01*
X159758286Y-72914237D02*
X159710667Y-72866618D01*
X159710667Y-72866618D02*
X159710667Y-72961856D01*
X160186857Y-73199951D02*
X160186857Y-73866618D01*
X160186857Y-73295189D02*
X160234476Y-73247570D01*
X160234476Y-73247570D02*
X160329714Y-73199951D01*
X160329714Y-73199951D02*
X160472571Y-73199951D01*
X160472571Y-73199951D02*
X160567809Y-73247570D01*
X160567809Y-73247570D02*
X160615428Y-73342808D01*
X160615428Y-73342808D02*
X160615428Y-73866618D01*
X161805904Y-72818999D02*
X160948762Y-74104713D01*
X162329714Y-72866618D02*
X162424952Y-72866618D01*
X162424952Y-72866618D02*
X162520190Y-72914237D01*
X162520190Y-72914237D02*
X162567809Y-72961856D01*
X162567809Y-72961856D02*
X162615428Y-73057094D01*
X162615428Y-73057094D02*
X162663047Y-73247570D01*
X162663047Y-73247570D02*
X162663047Y-73485665D01*
X162663047Y-73485665D02*
X162615428Y-73676141D01*
X162615428Y-73676141D02*
X162567809Y-73771379D01*
X162567809Y-73771379D02*
X162520190Y-73818999D01*
X162520190Y-73818999D02*
X162424952Y-73866618D01*
X162424952Y-73866618D02*
X162329714Y-73866618D01*
X162329714Y-73866618D02*
X162234476Y-73818999D01*
X162234476Y-73818999D02*
X162186857Y-73771379D01*
X162186857Y-73771379D02*
X162139238Y-73676141D01*
X162139238Y-73676141D02*
X162091619Y-73485665D01*
X162091619Y-73485665D02*
X162091619Y-73247570D01*
X162091619Y-73247570D02*
X162139238Y-73057094D01*
X162139238Y-73057094D02*
X162186857Y-72961856D01*
X162186857Y-72961856D02*
X162234476Y-72914237D01*
X162234476Y-72914237D02*
X162329714Y-72866618D01*
X163091619Y-73771379D02*
X163139238Y-73818999D01*
X163139238Y-73818999D02*
X163091619Y-73866618D01*
X163091619Y-73866618D02*
X163044000Y-73818999D01*
X163044000Y-73818999D02*
X163091619Y-73771379D01*
X163091619Y-73771379D02*
X163091619Y-73866618D01*
X163996380Y-72866618D02*
X163805904Y-72866618D01*
X163805904Y-72866618D02*
X163710666Y-72914237D01*
X163710666Y-72914237D02*
X163663047Y-72961856D01*
X163663047Y-72961856D02*
X163567809Y-73104713D01*
X163567809Y-73104713D02*
X163520190Y-73295189D01*
X163520190Y-73295189D02*
X163520190Y-73676141D01*
X163520190Y-73676141D02*
X163567809Y-73771379D01*
X163567809Y-73771379D02*
X163615428Y-73818999D01*
X163615428Y-73818999D02*
X163710666Y-73866618D01*
X163710666Y-73866618D02*
X163901142Y-73866618D01*
X163901142Y-73866618D02*
X163996380Y-73818999D01*
X163996380Y-73818999D02*
X164043999Y-73771379D01*
X164043999Y-73771379D02*
X164091618Y-73676141D01*
X164091618Y-73676141D02*
X164091618Y-73438046D01*
X164091618Y-73438046D02*
X164043999Y-73342808D01*
X164043999Y-73342808D02*
X163996380Y-73295189D01*
X163996380Y-73295189D02*
X163901142Y-73247570D01*
X163901142Y-73247570D02*
X163710666Y-73247570D01*
X163710666Y-73247570D02*
X163615428Y-73295189D01*
X163615428Y-73295189D02*
X163567809Y-73342808D01*
X163567809Y-73342808D02*
X163520190Y-73438046D01*
X164996380Y-72866618D02*
X164520190Y-72866618D01*
X164520190Y-72866618D02*
X164472571Y-73342808D01*
X164472571Y-73342808D02*
X164520190Y-73295189D01*
X164520190Y-73295189D02*
X164615428Y-73247570D01*
X164615428Y-73247570D02*
X164853523Y-73247570D01*
X164853523Y-73247570D02*
X164948761Y-73295189D01*
X164948761Y-73295189D02*
X164996380Y-73342808D01*
X164996380Y-73342808D02*
X165043999Y-73438046D01*
X165043999Y-73438046D02*
X165043999Y-73676141D01*
X165043999Y-73676141D02*
X164996380Y-73771379D01*
X164996380Y-73771379D02*
X164948761Y-73818999D01*
X164948761Y-73818999D02*
X164853523Y-73866618D01*
X164853523Y-73866618D02*
X164615428Y-73866618D01*
X164615428Y-73866618D02*
X164520190Y-73818999D01*
X164520190Y-73818999D02*
X164472571Y-73771379D01*
X165472571Y-73866618D02*
X165472571Y-73199951D01*
X165472571Y-73295189D02*
X165520190Y-73247570D01*
X165520190Y-73247570D02*
X165615428Y-73199951D01*
X165615428Y-73199951D02*
X165758285Y-73199951D01*
X165758285Y-73199951D02*
X165853523Y-73247570D01*
X165853523Y-73247570D02*
X165901142Y-73342808D01*
X165901142Y-73342808D02*
X165901142Y-73866618D01*
X165901142Y-73342808D02*
X165948761Y-73247570D01*
X165948761Y-73247570D02*
X166043999Y-73199951D01*
X166043999Y-73199951D02*
X166186856Y-73199951D01*
X166186856Y-73199951D02*
X166282095Y-73247570D01*
X166282095Y-73247570D02*
X166329714Y-73342808D01*
X166329714Y-73342808D02*
X166329714Y-73866618D01*
X166805904Y-73866618D02*
X166805904Y-73199951D01*
X166805904Y-73295189D02*
X166853523Y-73247570D01*
X166853523Y-73247570D02*
X166948761Y-73199951D01*
X166948761Y-73199951D02*
X167091618Y-73199951D01*
X167091618Y-73199951D02*
X167186856Y-73247570D01*
X167186856Y-73247570D02*
X167234475Y-73342808D01*
X167234475Y-73342808D02*
X167234475Y-73866618D01*
X167234475Y-73342808D02*
X167282094Y-73247570D01*
X167282094Y-73247570D02*
X167377332Y-73199951D01*
X167377332Y-73199951D02*
X167520189Y-73199951D01*
X167520189Y-73199951D02*
X167615428Y-73247570D01*
X167615428Y-73247570D02*
X167663047Y-73342808D01*
X167663047Y-73342808D02*
X167663047Y-73866618D01*
X158187239Y-79782319D02*
X158282477Y-79782319D01*
X158282477Y-79782319D02*
X158377715Y-79829938D01*
X158377715Y-79829938D02*
X158425334Y-79877557D01*
X158425334Y-79877557D02*
X158472953Y-79972795D01*
X158472953Y-79972795D02*
X158520572Y-80163271D01*
X158520572Y-80163271D02*
X158520572Y-80401366D01*
X158520572Y-80401366D02*
X158472953Y-80591842D01*
X158472953Y-80591842D02*
X158425334Y-80687080D01*
X158425334Y-80687080D02*
X158377715Y-80734700D01*
X158377715Y-80734700D02*
X158282477Y-80782319D01*
X158282477Y-80782319D02*
X158187239Y-80782319D01*
X158187239Y-80782319D02*
X158092001Y-80734700D01*
X158092001Y-80734700D02*
X158044382Y-80687080D01*
X158044382Y-80687080D02*
X157996763Y-80591842D01*
X157996763Y-80591842D02*
X157949144Y-80401366D01*
X157949144Y-80401366D02*
X157949144Y-80163271D01*
X157949144Y-80163271D02*
X157996763Y-79972795D01*
X157996763Y-79972795D02*
X158044382Y-79877557D01*
X158044382Y-79877557D02*
X158092001Y-79829938D01*
X158092001Y-79829938D02*
X158187239Y-79782319D01*
X158949144Y-80687080D02*
X158996763Y-80734700D01*
X158996763Y-80734700D02*
X158949144Y-80782319D01*
X158949144Y-80782319D02*
X158901525Y-80734700D01*
X158901525Y-80734700D02*
X158949144Y-80687080D01*
X158949144Y-80687080D02*
X158949144Y-80782319D01*
X159615810Y-79782319D02*
X159711048Y-79782319D01*
X159711048Y-79782319D02*
X159806286Y-79829938D01*
X159806286Y-79829938D02*
X159853905Y-79877557D01*
X159853905Y-79877557D02*
X159901524Y-79972795D01*
X159901524Y-79972795D02*
X159949143Y-80163271D01*
X159949143Y-80163271D02*
X159949143Y-80401366D01*
X159949143Y-80401366D02*
X159901524Y-80591842D01*
X159901524Y-80591842D02*
X159853905Y-80687080D01*
X159853905Y-80687080D02*
X159806286Y-80734700D01*
X159806286Y-80734700D02*
X159711048Y-80782319D01*
X159711048Y-80782319D02*
X159615810Y-80782319D01*
X159615810Y-80782319D02*
X159520572Y-80734700D01*
X159520572Y-80734700D02*
X159472953Y-80687080D01*
X159472953Y-80687080D02*
X159425334Y-80591842D01*
X159425334Y-80591842D02*
X159377715Y-80401366D01*
X159377715Y-80401366D02*
X159377715Y-80163271D01*
X159377715Y-80163271D02*
X159425334Y-79972795D01*
X159425334Y-79972795D02*
X159472953Y-79877557D01*
X159472953Y-79877557D02*
X159520572Y-79829938D01*
X159520572Y-79829938D02*
X159615810Y-79782319D01*
X160853905Y-79782319D02*
X160377715Y-79782319D01*
X160377715Y-79782319D02*
X160330096Y-80258509D01*
X160330096Y-80258509D02*
X160377715Y-80210890D01*
X160377715Y-80210890D02*
X160472953Y-80163271D01*
X160472953Y-80163271D02*
X160711048Y-80163271D01*
X160711048Y-80163271D02*
X160806286Y-80210890D01*
X160806286Y-80210890D02*
X160853905Y-80258509D01*
X160853905Y-80258509D02*
X160901524Y-80353747D01*
X160901524Y-80353747D02*
X160901524Y-80591842D01*
X160901524Y-80591842D02*
X160853905Y-80687080D01*
X160853905Y-80687080D02*
X160806286Y-80734700D01*
X160806286Y-80734700D02*
X160711048Y-80782319D01*
X160711048Y-80782319D02*
X160472953Y-80782319D01*
X160472953Y-80782319D02*
X160377715Y-80734700D01*
X160377715Y-80734700D02*
X160330096Y-80687080D01*
X161472953Y-80210890D02*
X161377715Y-80163271D01*
X161377715Y-80163271D02*
X161330096Y-80115652D01*
X161330096Y-80115652D02*
X161282477Y-80020414D01*
X161282477Y-80020414D02*
X161282477Y-79972795D01*
X161282477Y-79972795D02*
X161330096Y-79877557D01*
X161330096Y-79877557D02*
X161377715Y-79829938D01*
X161377715Y-79829938D02*
X161472953Y-79782319D01*
X161472953Y-79782319D02*
X161663429Y-79782319D01*
X161663429Y-79782319D02*
X161758667Y-79829938D01*
X161758667Y-79829938D02*
X161806286Y-79877557D01*
X161806286Y-79877557D02*
X161853905Y-79972795D01*
X161853905Y-79972795D02*
X161853905Y-80020414D01*
X161853905Y-80020414D02*
X161806286Y-80115652D01*
X161806286Y-80115652D02*
X161758667Y-80163271D01*
X161758667Y-80163271D02*
X161663429Y-80210890D01*
X161663429Y-80210890D02*
X161472953Y-80210890D01*
X161472953Y-80210890D02*
X161377715Y-80258509D01*
X161377715Y-80258509D02*
X161330096Y-80306128D01*
X161330096Y-80306128D02*
X161282477Y-80401366D01*
X161282477Y-80401366D02*
X161282477Y-80591842D01*
X161282477Y-80591842D02*
X161330096Y-80687080D01*
X161330096Y-80687080D02*
X161377715Y-80734700D01*
X161377715Y-80734700D02*
X161472953Y-80782319D01*
X161472953Y-80782319D02*
X161663429Y-80782319D01*
X161663429Y-80782319D02*
X161758667Y-80734700D01*
X161758667Y-80734700D02*
X161806286Y-80687080D01*
X161806286Y-80687080D02*
X161853905Y-80591842D01*
X161853905Y-80591842D02*
X161853905Y-80401366D01*
X161853905Y-80401366D02*
X161806286Y-80306128D01*
X161806286Y-80306128D02*
X161758667Y-80258509D01*
X161758667Y-80258509D02*
X161663429Y-80210890D01*
X162282477Y-80782319D02*
X162282477Y-80115652D01*
X162282477Y-79782319D02*
X162234858Y-79829938D01*
X162234858Y-79829938D02*
X162282477Y-79877557D01*
X162282477Y-79877557D02*
X162330096Y-79829938D01*
X162330096Y-79829938D02*
X162282477Y-79782319D01*
X162282477Y-79782319D02*
X162282477Y-79877557D01*
X162758667Y-80115652D02*
X162758667Y-80782319D01*
X162758667Y-80210890D02*
X162806286Y-80163271D01*
X162806286Y-80163271D02*
X162901524Y-80115652D01*
X162901524Y-80115652D02*
X163044381Y-80115652D01*
X163044381Y-80115652D02*
X163139619Y-80163271D01*
X163139619Y-80163271D02*
X163187238Y-80258509D01*
X163187238Y-80258509D02*
X163187238Y-80782319D01*
X164377714Y-79734700D02*
X163520572Y-81020414D01*
X165234857Y-80782319D02*
X164663429Y-80782319D01*
X164949143Y-80782319D02*
X164949143Y-79782319D01*
X164949143Y-79782319D02*
X164853905Y-79925176D01*
X164853905Y-79925176D02*
X164758667Y-80020414D01*
X164758667Y-80020414D02*
X164663429Y-80068033D01*
X165663429Y-80687080D02*
X165711048Y-80734700D01*
X165711048Y-80734700D02*
X165663429Y-80782319D01*
X165663429Y-80782319D02*
X165615810Y-80734700D01*
X165615810Y-80734700D02*
X165663429Y-80687080D01*
X165663429Y-80687080D02*
X165663429Y-80782319D01*
X166568190Y-80115652D02*
X166568190Y-80782319D01*
X166330095Y-79734700D02*
X166092000Y-80448985D01*
X166092000Y-80448985D02*
X166711047Y-80448985D01*
X167520571Y-79782319D02*
X167330095Y-79782319D01*
X167330095Y-79782319D02*
X167234857Y-79829938D01*
X167234857Y-79829938D02*
X167187238Y-79877557D01*
X167187238Y-79877557D02*
X167092000Y-80020414D01*
X167092000Y-80020414D02*
X167044381Y-80210890D01*
X167044381Y-80210890D02*
X167044381Y-80591842D01*
X167044381Y-80591842D02*
X167092000Y-80687080D01*
X167092000Y-80687080D02*
X167139619Y-80734700D01*
X167139619Y-80734700D02*
X167234857Y-80782319D01*
X167234857Y-80782319D02*
X167425333Y-80782319D01*
X167425333Y-80782319D02*
X167520571Y-80734700D01*
X167520571Y-80734700D02*
X167568190Y-80687080D01*
X167568190Y-80687080D02*
X167615809Y-80591842D01*
X167615809Y-80591842D02*
X167615809Y-80353747D01*
X167615809Y-80353747D02*
X167568190Y-80258509D01*
X167568190Y-80258509D02*
X167520571Y-80210890D01*
X167520571Y-80210890D02*
X167425333Y-80163271D01*
X167425333Y-80163271D02*
X167234857Y-80163271D01*
X167234857Y-80163271D02*
X167139619Y-80210890D01*
X167139619Y-80210890D02*
X167092000Y-80258509D01*
X167092000Y-80258509D02*
X167044381Y-80353747D01*
X167996762Y-79877557D02*
X168044381Y-79829938D01*
X168044381Y-79829938D02*
X168139619Y-79782319D01*
X168139619Y-79782319D02*
X168377714Y-79782319D01*
X168377714Y-79782319D02*
X168472952Y-79829938D01*
X168472952Y-79829938D02*
X168520571Y-79877557D01*
X168520571Y-79877557D02*
X168568190Y-79972795D01*
X168568190Y-79972795D02*
X168568190Y-80068033D01*
X168568190Y-80068033D02*
X168520571Y-80210890D01*
X168520571Y-80210890D02*
X167949143Y-80782319D01*
X167949143Y-80782319D02*
X168568190Y-80782319D01*
X168996762Y-80782319D02*
X168996762Y-80115652D01*
X168996762Y-80210890D02*
X169044381Y-80163271D01*
X169044381Y-80163271D02*
X169139619Y-80115652D01*
X169139619Y-80115652D02*
X169282476Y-80115652D01*
X169282476Y-80115652D02*
X169377714Y-80163271D01*
X169377714Y-80163271D02*
X169425333Y-80258509D01*
X169425333Y-80258509D02*
X169425333Y-80782319D01*
X169425333Y-80258509D02*
X169472952Y-80163271D01*
X169472952Y-80163271D02*
X169568190Y-80115652D01*
X169568190Y-80115652D02*
X169711047Y-80115652D01*
X169711047Y-80115652D02*
X169806286Y-80163271D01*
X169806286Y-80163271D02*
X169853905Y-80258509D01*
X169853905Y-80258509D02*
X169853905Y-80782319D01*
X170330095Y-80782319D02*
X170330095Y-80115652D01*
X170330095Y-80210890D02*
X170377714Y-80163271D01*
X170377714Y-80163271D02*
X170472952Y-80115652D01*
X170472952Y-80115652D02*
X170615809Y-80115652D01*
X170615809Y-80115652D02*
X170711047Y-80163271D01*
X170711047Y-80163271D02*
X170758666Y-80258509D01*
X170758666Y-80258509D02*
X170758666Y-80782319D01*
X170758666Y-80258509D02*
X170806285Y-80163271D01*
X170806285Y-80163271D02*
X170901523Y-80115652D01*
X170901523Y-80115652D02*
X171044380Y-80115652D01*
X171044380Y-80115652D02*
X171139619Y-80163271D01*
X171139619Y-80163271D02*
X171187238Y-80258509D01*
X171187238Y-80258509D02*
X171187238Y-80782319D01*
X167506639Y-67816619D02*
X167601877Y-67816619D01*
X167601877Y-67816619D02*
X167697115Y-67864238D01*
X167697115Y-67864238D02*
X167744734Y-67911857D01*
X167744734Y-67911857D02*
X167792353Y-68007095D01*
X167792353Y-68007095D02*
X167839972Y-68197571D01*
X167839972Y-68197571D02*
X167839972Y-68435666D01*
X167839972Y-68435666D02*
X167792353Y-68626142D01*
X167792353Y-68626142D02*
X167744734Y-68721380D01*
X167744734Y-68721380D02*
X167697115Y-68769000D01*
X167697115Y-68769000D02*
X167601877Y-68816619D01*
X167601877Y-68816619D02*
X167506639Y-68816619D01*
X167506639Y-68816619D02*
X167411401Y-68769000D01*
X167411401Y-68769000D02*
X167363782Y-68721380D01*
X167363782Y-68721380D02*
X167316163Y-68626142D01*
X167316163Y-68626142D02*
X167268544Y-68435666D01*
X167268544Y-68435666D02*
X167268544Y-68197571D01*
X167268544Y-68197571D02*
X167316163Y-68007095D01*
X167316163Y-68007095D02*
X167363782Y-67911857D01*
X167363782Y-67911857D02*
X167411401Y-67864238D01*
X167411401Y-67864238D02*
X167506639Y-67816619D01*
X168268544Y-68721380D02*
X168316163Y-68769000D01*
X168316163Y-68769000D02*
X168268544Y-68816619D01*
X168268544Y-68816619D02*
X168220925Y-68769000D01*
X168220925Y-68769000D02*
X168268544Y-68721380D01*
X168268544Y-68721380D02*
X168268544Y-68816619D01*
X168935210Y-67816619D02*
X169030448Y-67816619D01*
X169030448Y-67816619D02*
X169125686Y-67864238D01*
X169125686Y-67864238D02*
X169173305Y-67911857D01*
X169173305Y-67911857D02*
X169220924Y-68007095D01*
X169220924Y-68007095D02*
X169268543Y-68197571D01*
X169268543Y-68197571D02*
X169268543Y-68435666D01*
X169268543Y-68435666D02*
X169220924Y-68626142D01*
X169220924Y-68626142D02*
X169173305Y-68721380D01*
X169173305Y-68721380D02*
X169125686Y-68769000D01*
X169125686Y-68769000D02*
X169030448Y-68816619D01*
X169030448Y-68816619D02*
X168935210Y-68816619D01*
X168935210Y-68816619D02*
X168839972Y-68769000D01*
X168839972Y-68769000D02*
X168792353Y-68721380D01*
X168792353Y-68721380D02*
X168744734Y-68626142D01*
X168744734Y-68626142D02*
X168697115Y-68435666D01*
X168697115Y-68435666D02*
X168697115Y-68197571D01*
X168697115Y-68197571D02*
X168744734Y-68007095D01*
X168744734Y-68007095D02*
X168792353Y-67911857D01*
X168792353Y-67911857D02*
X168839972Y-67864238D01*
X168839972Y-67864238D02*
X168935210Y-67816619D01*
X170220924Y-68816619D02*
X169649496Y-68816619D01*
X169935210Y-68816619D02*
X169935210Y-67816619D01*
X169935210Y-67816619D02*
X169839972Y-67959476D01*
X169839972Y-67959476D02*
X169744734Y-68054714D01*
X169744734Y-68054714D02*
X169649496Y-68102333D01*
X171078067Y-68149952D02*
X171078067Y-68816619D01*
X170839972Y-67769000D02*
X170601877Y-68483285D01*
X170601877Y-68483285D02*
X171220924Y-68483285D01*
X171601877Y-68816619D02*
X171601877Y-68149952D01*
X171601877Y-67816619D02*
X171554258Y-67864238D01*
X171554258Y-67864238D02*
X171601877Y-67911857D01*
X171601877Y-67911857D02*
X171649496Y-67864238D01*
X171649496Y-67864238D02*
X171601877Y-67816619D01*
X171601877Y-67816619D02*
X171601877Y-67911857D01*
X172078067Y-68149952D02*
X172078067Y-68816619D01*
X172078067Y-68245190D02*
X172125686Y-68197571D01*
X172125686Y-68197571D02*
X172220924Y-68149952D01*
X172220924Y-68149952D02*
X172363781Y-68149952D01*
X172363781Y-68149952D02*
X172459019Y-68197571D01*
X172459019Y-68197571D02*
X172506638Y-68292809D01*
X172506638Y-68292809D02*
X172506638Y-68816619D01*
X173697114Y-67769000D02*
X172839972Y-69054714D01*
X174220924Y-67816619D02*
X174316162Y-67816619D01*
X174316162Y-67816619D02*
X174411400Y-67864238D01*
X174411400Y-67864238D02*
X174459019Y-67911857D01*
X174459019Y-67911857D02*
X174506638Y-68007095D01*
X174506638Y-68007095D02*
X174554257Y-68197571D01*
X174554257Y-68197571D02*
X174554257Y-68435666D01*
X174554257Y-68435666D02*
X174506638Y-68626142D01*
X174506638Y-68626142D02*
X174459019Y-68721380D01*
X174459019Y-68721380D02*
X174411400Y-68769000D01*
X174411400Y-68769000D02*
X174316162Y-68816619D01*
X174316162Y-68816619D02*
X174220924Y-68816619D01*
X174220924Y-68816619D02*
X174125686Y-68769000D01*
X174125686Y-68769000D02*
X174078067Y-68721380D01*
X174078067Y-68721380D02*
X174030448Y-68626142D01*
X174030448Y-68626142D02*
X173982829Y-68435666D01*
X173982829Y-68435666D02*
X173982829Y-68197571D01*
X173982829Y-68197571D02*
X174030448Y-68007095D01*
X174030448Y-68007095D02*
X174078067Y-67911857D01*
X174078067Y-67911857D02*
X174125686Y-67864238D01*
X174125686Y-67864238D02*
X174220924Y-67816619D01*
X174982829Y-68721380D02*
X175030448Y-68769000D01*
X175030448Y-68769000D02*
X174982829Y-68816619D01*
X174982829Y-68816619D02*
X174935210Y-68769000D01*
X174935210Y-68769000D02*
X174982829Y-68721380D01*
X174982829Y-68721380D02*
X174982829Y-68816619D01*
X175363781Y-67816619D02*
X175982828Y-67816619D01*
X175982828Y-67816619D02*
X175649495Y-68197571D01*
X175649495Y-68197571D02*
X175792352Y-68197571D01*
X175792352Y-68197571D02*
X175887590Y-68245190D01*
X175887590Y-68245190D02*
X175935209Y-68292809D01*
X175935209Y-68292809D02*
X175982828Y-68388047D01*
X175982828Y-68388047D02*
X175982828Y-68626142D01*
X175982828Y-68626142D02*
X175935209Y-68721380D01*
X175935209Y-68721380D02*
X175887590Y-68769000D01*
X175887590Y-68769000D02*
X175792352Y-68816619D01*
X175792352Y-68816619D02*
X175506638Y-68816619D01*
X175506638Y-68816619D02*
X175411400Y-68769000D01*
X175411400Y-68769000D02*
X175363781Y-68721380D01*
X176887590Y-67816619D02*
X176411400Y-67816619D01*
X176411400Y-67816619D02*
X176363781Y-68292809D01*
X176363781Y-68292809D02*
X176411400Y-68245190D01*
X176411400Y-68245190D02*
X176506638Y-68197571D01*
X176506638Y-68197571D02*
X176744733Y-68197571D01*
X176744733Y-68197571D02*
X176839971Y-68245190D01*
X176839971Y-68245190D02*
X176887590Y-68292809D01*
X176887590Y-68292809D02*
X176935209Y-68388047D01*
X176935209Y-68388047D02*
X176935209Y-68626142D01*
X176935209Y-68626142D02*
X176887590Y-68721380D01*
X176887590Y-68721380D02*
X176839971Y-68769000D01*
X176839971Y-68769000D02*
X176744733Y-68816619D01*
X176744733Y-68816619D02*
X176506638Y-68816619D01*
X176506638Y-68816619D02*
X176411400Y-68769000D01*
X176411400Y-68769000D02*
X176363781Y-68721380D01*
X177839971Y-67816619D02*
X177363781Y-67816619D01*
X177363781Y-67816619D02*
X177316162Y-68292809D01*
X177316162Y-68292809D02*
X177363781Y-68245190D01*
X177363781Y-68245190D02*
X177459019Y-68197571D01*
X177459019Y-68197571D02*
X177697114Y-68197571D01*
X177697114Y-68197571D02*
X177792352Y-68245190D01*
X177792352Y-68245190D02*
X177839971Y-68292809D01*
X177839971Y-68292809D02*
X177887590Y-68388047D01*
X177887590Y-68388047D02*
X177887590Y-68626142D01*
X177887590Y-68626142D02*
X177839971Y-68721380D01*
X177839971Y-68721380D02*
X177792352Y-68769000D01*
X177792352Y-68769000D02*
X177697114Y-68816619D01*
X177697114Y-68816619D02*
X177459019Y-68816619D01*
X177459019Y-68816619D02*
X177363781Y-68769000D01*
X177363781Y-68769000D02*
X177316162Y-68721380D01*
X178316162Y-68816619D02*
X178316162Y-68149952D01*
X178316162Y-68245190D02*
X178363781Y-68197571D01*
X178363781Y-68197571D02*
X178459019Y-68149952D01*
X178459019Y-68149952D02*
X178601876Y-68149952D01*
X178601876Y-68149952D02*
X178697114Y-68197571D01*
X178697114Y-68197571D02*
X178744733Y-68292809D01*
X178744733Y-68292809D02*
X178744733Y-68816619D01*
X178744733Y-68292809D02*
X178792352Y-68197571D01*
X178792352Y-68197571D02*
X178887590Y-68149952D01*
X178887590Y-68149952D02*
X179030447Y-68149952D01*
X179030447Y-68149952D02*
X179125686Y-68197571D01*
X179125686Y-68197571D02*
X179173305Y-68292809D01*
X179173305Y-68292809D02*
X179173305Y-68816619D01*
X179649495Y-68816619D02*
X179649495Y-68149952D01*
X179649495Y-68245190D02*
X179697114Y-68197571D01*
X179697114Y-68197571D02*
X179792352Y-68149952D01*
X179792352Y-68149952D02*
X179935209Y-68149952D01*
X179935209Y-68149952D02*
X180030447Y-68197571D01*
X180030447Y-68197571D02*
X180078066Y-68292809D01*
X180078066Y-68292809D02*
X180078066Y-68816619D01*
X180078066Y-68292809D02*
X180125685Y-68197571D01*
X180125685Y-68197571D02*
X180220923Y-68149952D01*
X180220923Y-68149952D02*
X180363780Y-68149952D01*
X180363780Y-68149952D02*
X180459019Y-68197571D01*
X180459019Y-68197571D02*
X180506638Y-68292809D01*
X180506638Y-68292809D02*
X180506638Y-68816619D01*
X161006639Y-69850919D02*
X161101877Y-69850919D01*
X161101877Y-69850919D02*
X161197115Y-69898538D01*
X161197115Y-69898538D02*
X161244734Y-69946157D01*
X161244734Y-69946157D02*
X161292353Y-70041395D01*
X161292353Y-70041395D02*
X161339972Y-70231871D01*
X161339972Y-70231871D02*
X161339972Y-70469966D01*
X161339972Y-70469966D02*
X161292353Y-70660442D01*
X161292353Y-70660442D02*
X161244734Y-70755680D01*
X161244734Y-70755680D02*
X161197115Y-70803300D01*
X161197115Y-70803300D02*
X161101877Y-70850919D01*
X161101877Y-70850919D02*
X161006639Y-70850919D01*
X161006639Y-70850919D02*
X160911401Y-70803300D01*
X160911401Y-70803300D02*
X160863782Y-70755680D01*
X160863782Y-70755680D02*
X160816163Y-70660442D01*
X160816163Y-70660442D02*
X160768544Y-70469966D01*
X160768544Y-70469966D02*
X160768544Y-70231871D01*
X160768544Y-70231871D02*
X160816163Y-70041395D01*
X160816163Y-70041395D02*
X160863782Y-69946157D01*
X160863782Y-69946157D02*
X160911401Y-69898538D01*
X160911401Y-69898538D02*
X161006639Y-69850919D01*
X161768544Y-70755680D02*
X161816163Y-70803300D01*
X161816163Y-70803300D02*
X161768544Y-70850919D01*
X161768544Y-70850919D02*
X161720925Y-70803300D01*
X161720925Y-70803300D02*
X161768544Y-70755680D01*
X161768544Y-70755680D02*
X161768544Y-70850919D01*
X162197115Y-69946157D02*
X162244734Y-69898538D01*
X162244734Y-69898538D02*
X162339972Y-69850919D01*
X162339972Y-69850919D02*
X162578067Y-69850919D01*
X162578067Y-69850919D02*
X162673305Y-69898538D01*
X162673305Y-69898538D02*
X162720924Y-69946157D01*
X162720924Y-69946157D02*
X162768543Y-70041395D01*
X162768543Y-70041395D02*
X162768543Y-70136633D01*
X162768543Y-70136633D02*
X162720924Y-70279490D01*
X162720924Y-70279490D02*
X162149496Y-70850919D01*
X162149496Y-70850919D02*
X162768543Y-70850919D01*
X163149496Y-69946157D02*
X163197115Y-69898538D01*
X163197115Y-69898538D02*
X163292353Y-69850919D01*
X163292353Y-69850919D02*
X163530448Y-69850919D01*
X163530448Y-69850919D02*
X163625686Y-69898538D01*
X163625686Y-69898538D02*
X163673305Y-69946157D01*
X163673305Y-69946157D02*
X163720924Y-70041395D01*
X163720924Y-70041395D02*
X163720924Y-70136633D01*
X163720924Y-70136633D02*
X163673305Y-70279490D01*
X163673305Y-70279490D02*
X163101877Y-70850919D01*
X163101877Y-70850919D02*
X163720924Y-70850919D01*
X164101877Y-69946157D02*
X164149496Y-69898538D01*
X164149496Y-69898538D02*
X164244734Y-69850919D01*
X164244734Y-69850919D02*
X164482829Y-69850919D01*
X164482829Y-69850919D02*
X164578067Y-69898538D01*
X164578067Y-69898538D02*
X164625686Y-69946157D01*
X164625686Y-69946157D02*
X164673305Y-70041395D01*
X164673305Y-70041395D02*
X164673305Y-70136633D01*
X164673305Y-70136633D02*
X164625686Y-70279490D01*
X164625686Y-70279490D02*
X164054258Y-70850919D01*
X164054258Y-70850919D02*
X164673305Y-70850919D01*
X165101877Y-70850919D02*
X165101877Y-70184252D01*
X165101877Y-69850919D02*
X165054258Y-69898538D01*
X165054258Y-69898538D02*
X165101877Y-69946157D01*
X165101877Y-69946157D02*
X165149496Y-69898538D01*
X165149496Y-69898538D02*
X165101877Y-69850919D01*
X165101877Y-69850919D02*
X165101877Y-69946157D01*
X165578067Y-70184252D02*
X165578067Y-70850919D01*
X165578067Y-70279490D02*
X165625686Y-70231871D01*
X165625686Y-70231871D02*
X165720924Y-70184252D01*
X165720924Y-70184252D02*
X165863781Y-70184252D01*
X165863781Y-70184252D02*
X165959019Y-70231871D01*
X165959019Y-70231871D02*
X166006638Y-70327109D01*
X166006638Y-70327109D02*
X166006638Y-70850919D01*
X167197114Y-69803300D02*
X166339972Y-71089014D01*
X168006638Y-69850919D02*
X167530448Y-69850919D01*
X167530448Y-69850919D02*
X167482829Y-70327109D01*
X167482829Y-70327109D02*
X167530448Y-70279490D01*
X167530448Y-70279490D02*
X167625686Y-70231871D01*
X167625686Y-70231871D02*
X167863781Y-70231871D01*
X167863781Y-70231871D02*
X167959019Y-70279490D01*
X167959019Y-70279490D02*
X168006638Y-70327109D01*
X168006638Y-70327109D02*
X168054257Y-70422347D01*
X168054257Y-70422347D02*
X168054257Y-70660442D01*
X168054257Y-70660442D02*
X168006638Y-70755680D01*
X168006638Y-70755680D02*
X167959019Y-70803300D01*
X167959019Y-70803300D02*
X167863781Y-70850919D01*
X167863781Y-70850919D02*
X167625686Y-70850919D01*
X167625686Y-70850919D02*
X167530448Y-70803300D01*
X167530448Y-70803300D02*
X167482829Y-70755680D01*
X168482829Y-70755680D02*
X168530448Y-70803300D01*
X168530448Y-70803300D02*
X168482829Y-70850919D01*
X168482829Y-70850919D02*
X168435210Y-70803300D01*
X168435210Y-70803300D02*
X168482829Y-70755680D01*
X168482829Y-70755680D02*
X168482829Y-70850919D01*
X169387590Y-69850919D02*
X169197114Y-69850919D01*
X169197114Y-69850919D02*
X169101876Y-69898538D01*
X169101876Y-69898538D02*
X169054257Y-69946157D01*
X169054257Y-69946157D02*
X168959019Y-70089014D01*
X168959019Y-70089014D02*
X168911400Y-70279490D01*
X168911400Y-70279490D02*
X168911400Y-70660442D01*
X168911400Y-70660442D02*
X168959019Y-70755680D01*
X168959019Y-70755680D02*
X169006638Y-70803300D01*
X169006638Y-70803300D02*
X169101876Y-70850919D01*
X169101876Y-70850919D02*
X169292352Y-70850919D01*
X169292352Y-70850919D02*
X169387590Y-70803300D01*
X169387590Y-70803300D02*
X169435209Y-70755680D01*
X169435209Y-70755680D02*
X169482828Y-70660442D01*
X169482828Y-70660442D02*
X169482828Y-70422347D01*
X169482828Y-70422347D02*
X169435209Y-70327109D01*
X169435209Y-70327109D02*
X169387590Y-70279490D01*
X169387590Y-70279490D02*
X169292352Y-70231871D01*
X169292352Y-70231871D02*
X169101876Y-70231871D01*
X169101876Y-70231871D02*
X169006638Y-70279490D01*
X169006638Y-70279490D02*
X168959019Y-70327109D01*
X168959019Y-70327109D02*
X168911400Y-70422347D01*
X169816162Y-69850919D02*
X170435209Y-69850919D01*
X170435209Y-69850919D02*
X170101876Y-70231871D01*
X170101876Y-70231871D02*
X170244733Y-70231871D01*
X170244733Y-70231871D02*
X170339971Y-70279490D01*
X170339971Y-70279490D02*
X170387590Y-70327109D01*
X170387590Y-70327109D02*
X170435209Y-70422347D01*
X170435209Y-70422347D02*
X170435209Y-70660442D01*
X170435209Y-70660442D02*
X170387590Y-70755680D01*
X170387590Y-70755680D02*
X170339971Y-70803300D01*
X170339971Y-70803300D02*
X170244733Y-70850919D01*
X170244733Y-70850919D02*
X169959019Y-70850919D01*
X169959019Y-70850919D02*
X169863781Y-70803300D01*
X169863781Y-70803300D02*
X169816162Y-70755680D01*
X170911400Y-70850919D02*
X171101876Y-70850919D01*
X171101876Y-70850919D02*
X171197114Y-70803300D01*
X171197114Y-70803300D02*
X171244733Y-70755680D01*
X171244733Y-70755680D02*
X171339971Y-70612823D01*
X171339971Y-70612823D02*
X171387590Y-70422347D01*
X171387590Y-70422347D02*
X171387590Y-70041395D01*
X171387590Y-70041395D02*
X171339971Y-69946157D01*
X171339971Y-69946157D02*
X171292352Y-69898538D01*
X171292352Y-69898538D02*
X171197114Y-69850919D01*
X171197114Y-69850919D02*
X171006638Y-69850919D01*
X171006638Y-69850919D02*
X170911400Y-69898538D01*
X170911400Y-69898538D02*
X170863781Y-69946157D01*
X170863781Y-69946157D02*
X170816162Y-70041395D01*
X170816162Y-70041395D02*
X170816162Y-70279490D01*
X170816162Y-70279490D02*
X170863781Y-70374728D01*
X170863781Y-70374728D02*
X170911400Y-70422347D01*
X170911400Y-70422347D02*
X171006638Y-70469966D01*
X171006638Y-70469966D02*
X171197114Y-70469966D01*
X171197114Y-70469966D02*
X171292352Y-70422347D01*
X171292352Y-70422347D02*
X171339971Y-70374728D01*
X171339971Y-70374728D02*
X171387590Y-70279490D01*
X171816162Y-70850919D02*
X171816162Y-70184252D01*
X171816162Y-70279490D02*
X171863781Y-70231871D01*
X171863781Y-70231871D02*
X171959019Y-70184252D01*
X171959019Y-70184252D02*
X172101876Y-70184252D01*
X172101876Y-70184252D02*
X172197114Y-70231871D01*
X172197114Y-70231871D02*
X172244733Y-70327109D01*
X172244733Y-70327109D02*
X172244733Y-70850919D01*
X172244733Y-70327109D02*
X172292352Y-70231871D01*
X172292352Y-70231871D02*
X172387590Y-70184252D01*
X172387590Y-70184252D02*
X172530447Y-70184252D01*
X172530447Y-70184252D02*
X172625686Y-70231871D01*
X172625686Y-70231871D02*
X172673305Y-70327109D01*
X172673305Y-70327109D02*
X172673305Y-70850919D01*
X173149495Y-70850919D02*
X173149495Y-70184252D01*
X173149495Y-70279490D02*
X173197114Y-70231871D01*
X173197114Y-70231871D02*
X173292352Y-70184252D01*
X173292352Y-70184252D02*
X173435209Y-70184252D01*
X173435209Y-70184252D02*
X173530447Y-70231871D01*
X173530447Y-70231871D02*
X173578066Y-70327109D01*
X173578066Y-70327109D02*
X173578066Y-70850919D01*
X173578066Y-70327109D02*
X173625685Y-70231871D01*
X173625685Y-70231871D02*
X173720923Y-70184252D01*
X173720923Y-70184252D02*
X173863780Y-70184252D01*
X173863780Y-70184252D02*
X173959019Y-70231871D01*
X173959019Y-70231871D02*
X174006638Y-70327109D01*
X174006638Y-70327109D02*
X174006638Y-70850919D01*
X181773580Y-106642819D02*
X181868818Y-106642819D01*
X181868818Y-106642819D02*
X181964056Y-106690438D01*
X181964056Y-106690438D02*
X182011675Y-106738057D01*
X182011675Y-106738057D02*
X182059294Y-106833295D01*
X182059294Y-106833295D02*
X182106913Y-107023771D01*
X182106913Y-107023771D02*
X182106913Y-107261866D01*
X182106913Y-107261866D02*
X182059294Y-107452342D01*
X182059294Y-107452342D02*
X182011675Y-107547580D01*
X182011675Y-107547580D02*
X181964056Y-107595200D01*
X181964056Y-107595200D02*
X181868818Y-107642819D01*
X181868818Y-107642819D02*
X181773580Y-107642819D01*
X181773580Y-107642819D02*
X181678342Y-107595200D01*
X181678342Y-107595200D02*
X181630723Y-107547580D01*
X181630723Y-107547580D02*
X181583104Y-107452342D01*
X181583104Y-107452342D02*
X181535485Y-107261866D01*
X181535485Y-107261866D02*
X181535485Y-107023771D01*
X181535485Y-107023771D02*
X181583104Y-106833295D01*
X181583104Y-106833295D02*
X181630723Y-106738057D01*
X181630723Y-106738057D02*
X181678342Y-106690438D01*
X181678342Y-106690438D02*
X181773580Y-106642819D01*
X182535485Y-107547580D02*
X182583104Y-107595200D01*
X182583104Y-107595200D02*
X182535485Y-107642819D01*
X182535485Y-107642819D02*
X182487866Y-107595200D01*
X182487866Y-107595200D02*
X182535485Y-107547580D01*
X182535485Y-107547580D02*
X182535485Y-107642819D01*
X183202151Y-106642819D02*
X183297389Y-106642819D01*
X183297389Y-106642819D02*
X183392627Y-106690438D01*
X183392627Y-106690438D02*
X183440246Y-106738057D01*
X183440246Y-106738057D02*
X183487865Y-106833295D01*
X183487865Y-106833295D02*
X183535484Y-107023771D01*
X183535484Y-107023771D02*
X183535484Y-107261866D01*
X183535484Y-107261866D02*
X183487865Y-107452342D01*
X183487865Y-107452342D02*
X183440246Y-107547580D01*
X183440246Y-107547580D02*
X183392627Y-107595200D01*
X183392627Y-107595200D02*
X183297389Y-107642819D01*
X183297389Y-107642819D02*
X183202151Y-107642819D01*
X183202151Y-107642819D02*
X183106913Y-107595200D01*
X183106913Y-107595200D02*
X183059294Y-107547580D01*
X183059294Y-107547580D02*
X183011675Y-107452342D01*
X183011675Y-107452342D02*
X182964056Y-107261866D01*
X182964056Y-107261866D02*
X182964056Y-107023771D01*
X182964056Y-107023771D02*
X183011675Y-106833295D01*
X183011675Y-106833295D02*
X183059294Y-106738057D01*
X183059294Y-106738057D02*
X183106913Y-106690438D01*
X183106913Y-106690438D02*
X183202151Y-106642819D01*
X183916437Y-106738057D02*
X183964056Y-106690438D01*
X183964056Y-106690438D02*
X184059294Y-106642819D01*
X184059294Y-106642819D02*
X184297389Y-106642819D01*
X184297389Y-106642819D02*
X184392627Y-106690438D01*
X184392627Y-106690438D02*
X184440246Y-106738057D01*
X184440246Y-106738057D02*
X184487865Y-106833295D01*
X184487865Y-106833295D02*
X184487865Y-106928533D01*
X184487865Y-106928533D02*
X184440246Y-107071390D01*
X184440246Y-107071390D02*
X183868818Y-107642819D01*
X183868818Y-107642819D02*
X184487865Y-107642819D01*
X184916437Y-107642819D02*
X184916437Y-106976152D01*
X184916437Y-106642819D02*
X184868818Y-106690438D01*
X184868818Y-106690438D02*
X184916437Y-106738057D01*
X184916437Y-106738057D02*
X184964056Y-106690438D01*
X184964056Y-106690438D02*
X184916437Y-106642819D01*
X184916437Y-106642819D02*
X184916437Y-106738057D01*
X185392627Y-106976152D02*
X185392627Y-107642819D01*
X185392627Y-107071390D02*
X185440246Y-107023771D01*
X185440246Y-107023771D02*
X185535484Y-106976152D01*
X185535484Y-106976152D02*
X185678341Y-106976152D01*
X185678341Y-106976152D02*
X185773579Y-107023771D01*
X185773579Y-107023771D02*
X185821198Y-107119009D01*
X185821198Y-107119009D02*
X185821198Y-107642819D01*
X187011674Y-106595200D02*
X186154532Y-107880914D01*
X187535484Y-106642819D02*
X187630722Y-106642819D01*
X187630722Y-106642819D02*
X187725960Y-106690438D01*
X187725960Y-106690438D02*
X187773579Y-106738057D01*
X187773579Y-106738057D02*
X187821198Y-106833295D01*
X187821198Y-106833295D02*
X187868817Y-107023771D01*
X187868817Y-107023771D02*
X187868817Y-107261866D01*
X187868817Y-107261866D02*
X187821198Y-107452342D01*
X187821198Y-107452342D02*
X187773579Y-107547580D01*
X187773579Y-107547580D02*
X187725960Y-107595200D01*
X187725960Y-107595200D02*
X187630722Y-107642819D01*
X187630722Y-107642819D02*
X187535484Y-107642819D01*
X187535484Y-107642819D02*
X187440246Y-107595200D01*
X187440246Y-107595200D02*
X187392627Y-107547580D01*
X187392627Y-107547580D02*
X187345008Y-107452342D01*
X187345008Y-107452342D02*
X187297389Y-107261866D01*
X187297389Y-107261866D02*
X187297389Y-107023771D01*
X187297389Y-107023771D02*
X187345008Y-106833295D01*
X187345008Y-106833295D02*
X187392627Y-106738057D01*
X187392627Y-106738057D02*
X187440246Y-106690438D01*
X187440246Y-106690438D02*
X187535484Y-106642819D01*
X188297389Y-107547580D02*
X188345008Y-107595200D01*
X188345008Y-107595200D02*
X188297389Y-107642819D01*
X188297389Y-107642819D02*
X188249770Y-107595200D01*
X188249770Y-107595200D02*
X188297389Y-107547580D01*
X188297389Y-107547580D02*
X188297389Y-107642819D01*
X189249769Y-106642819D02*
X188773579Y-106642819D01*
X188773579Y-106642819D02*
X188725960Y-107119009D01*
X188725960Y-107119009D02*
X188773579Y-107071390D01*
X188773579Y-107071390D02*
X188868817Y-107023771D01*
X188868817Y-107023771D02*
X189106912Y-107023771D01*
X189106912Y-107023771D02*
X189202150Y-107071390D01*
X189202150Y-107071390D02*
X189249769Y-107119009D01*
X189249769Y-107119009D02*
X189297388Y-107214247D01*
X189297388Y-107214247D02*
X189297388Y-107452342D01*
X189297388Y-107452342D02*
X189249769Y-107547580D01*
X189249769Y-107547580D02*
X189202150Y-107595200D01*
X189202150Y-107595200D02*
X189106912Y-107642819D01*
X189106912Y-107642819D02*
X188868817Y-107642819D01*
X188868817Y-107642819D02*
X188773579Y-107595200D01*
X188773579Y-107595200D02*
X188725960Y-107547580D01*
X189916436Y-106642819D02*
X190011674Y-106642819D01*
X190011674Y-106642819D02*
X190106912Y-106690438D01*
X190106912Y-106690438D02*
X190154531Y-106738057D01*
X190154531Y-106738057D02*
X190202150Y-106833295D01*
X190202150Y-106833295D02*
X190249769Y-107023771D01*
X190249769Y-107023771D02*
X190249769Y-107261866D01*
X190249769Y-107261866D02*
X190202150Y-107452342D01*
X190202150Y-107452342D02*
X190154531Y-107547580D01*
X190154531Y-107547580D02*
X190106912Y-107595200D01*
X190106912Y-107595200D02*
X190011674Y-107642819D01*
X190011674Y-107642819D02*
X189916436Y-107642819D01*
X189916436Y-107642819D02*
X189821198Y-107595200D01*
X189821198Y-107595200D02*
X189773579Y-107547580D01*
X189773579Y-107547580D02*
X189725960Y-107452342D01*
X189725960Y-107452342D02*
X189678341Y-107261866D01*
X189678341Y-107261866D02*
X189678341Y-107023771D01*
X189678341Y-107023771D02*
X189725960Y-106833295D01*
X189725960Y-106833295D02*
X189773579Y-106738057D01*
X189773579Y-106738057D02*
X189821198Y-106690438D01*
X189821198Y-106690438D02*
X189916436Y-106642819D01*
X190583103Y-106642819D02*
X191249769Y-106642819D01*
X191249769Y-106642819D02*
X190821198Y-107642819D01*
X191630722Y-107642819D02*
X191630722Y-106976152D01*
X191630722Y-107071390D02*
X191678341Y-107023771D01*
X191678341Y-107023771D02*
X191773579Y-106976152D01*
X191773579Y-106976152D02*
X191916436Y-106976152D01*
X191916436Y-106976152D02*
X192011674Y-107023771D01*
X192011674Y-107023771D02*
X192059293Y-107119009D01*
X192059293Y-107119009D02*
X192059293Y-107642819D01*
X192059293Y-107119009D02*
X192106912Y-107023771D01*
X192106912Y-107023771D02*
X192202150Y-106976152D01*
X192202150Y-106976152D02*
X192345007Y-106976152D01*
X192345007Y-106976152D02*
X192440246Y-107023771D01*
X192440246Y-107023771D02*
X192487865Y-107119009D01*
X192487865Y-107119009D02*
X192487865Y-107642819D01*
X192964055Y-107642819D02*
X192964055Y-106976152D01*
X192964055Y-107071390D02*
X193011674Y-107023771D01*
X193011674Y-107023771D02*
X193106912Y-106976152D01*
X193106912Y-106976152D02*
X193249769Y-106976152D01*
X193249769Y-106976152D02*
X193345007Y-107023771D01*
X193345007Y-107023771D02*
X193392626Y-107119009D01*
X193392626Y-107119009D02*
X193392626Y-107642819D01*
X193392626Y-107119009D02*
X193440245Y-107023771D01*
X193440245Y-107023771D02*
X193535483Y-106976152D01*
X193535483Y-106976152D02*
X193678340Y-106976152D01*
X193678340Y-106976152D02*
X193773579Y-107023771D01*
X193773579Y-107023771D02*
X193821198Y-107119009D01*
X193821198Y-107119009D02*
X193821198Y-107642819D01*
X187292171Y-112085219D02*
X187387409Y-112085219D01*
X187387409Y-112085219D02*
X187482647Y-112132838D01*
X187482647Y-112132838D02*
X187530266Y-112180457D01*
X187530266Y-112180457D02*
X187577885Y-112275695D01*
X187577885Y-112275695D02*
X187625504Y-112466171D01*
X187625504Y-112466171D02*
X187625504Y-112704266D01*
X187625504Y-112704266D02*
X187577885Y-112894742D01*
X187577885Y-112894742D02*
X187530266Y-112989980D01*
X187530266Y-112989980D02*
X187482647Y-113037600D01*
X187482647Y-113037600D02*
X187387409Y-113085219D01*
X187387409Y-113085219D02*
X187292171Y-113085219D01*
X187292171Y-113085219D02*
X187196933Y-113037600D01*
X187196933Y-113037600D02*
X187149314Y-112989980D01*
X187149314Y-112989980D02*
X187101695Y-112894742D01*
X187101695Y-112894742D02*
X187054076Y-112704266D01*
X187054076Y-112704266D02*
X187054076Y-112466171D01*
X187054076Y-112466171D02*
X187101695Y-112275695D01*
X187101695Y-112275695D02*
X187149314Y-112180457D01*
X187149314Y-112180457D02*
X187196933Y-112132838D01*
X187196933Y-112132838D02*
X187292171Y-112085219D01*
X188054076Y-112989980D02*
X188101695Y-113037600D01*
X188101695Y-113037600D02*
X188054076Y-113085219D01*
X188054076Y-113085219D02*
X188006457Y-113037600D01*
X188006457Y-113037600D02*
X188054076Y-112989980D01*
X188054076Y-112989980D02*
X188054076Y-113085219D01*
X188720742Y-112085219D02*
X188815980Y-112085219D01*
X188815980Y-112085219D02*
X188911218Y-112132838D01*
X188911218Y-112132838D02*
X188958837Y-112180457D01*
X188958837Y-112180457D02*
X189006456Y-112275695D01*
X189006456Y-112275695D02*
X189054075Y-112466171D01*
X189054075Y-112466171D02*
X189054075Y-112704266D01*
X189054075Y-112704266D02*
X189006456Y-112894742D01*
X189006456Y-112894742D02*
X188958837Y-112989980D01*
X188958837Y-112989980D02*
X188911218Y-113037600D01*
X188911218Y-113037600D02*
X188815980Y-113085219D01*
X188815980Y-113085219D02*
X188720742Y-113085219D01*
X188720742Y-113085219D02*
X188625504Y-113037600D01*
X188625504Y-113037600D02*
X188577885Y-112989980D01*
X188577885Y-112989980D02*
X188530266Y-112894742D01*
X188530266Y-112894742D02*
X188482647Y-112704266D01*
X188482647Y-112704266D02*
X188482647Y-112466171D01*
X188482647Y-112466171D02*
X188530266Y-112275695D01*
X188530266Y-112275695D02*
X188577885Y-112180457D01*
X188577885Y-112180457D02*
X188625504Y-112132838D01*
X188625504Y-112132838D02*
X188720742Y-112085219D01*
X189387409Y-112085219D02*
X190006456Y-112085219D01*
X190006456Y-112085219D02*
X189673123Y-112466171D01*
X189673123Y-112466171D02*
X189815980Y-112466171D01*
X189815980Y-112466171D02*
X189911218Y-112513790D01*
X189911218Y-112513790D02*
X189958837Y-112561409D01*
X189958837Y-112561409D02*
X190006456Y-112656647D01*
X190006456Y-112656647D02*
X190006456Y-112894742D01*
X190006456Y-112894742D02*
X189958837Y-112989980D01*
X189958837Y-112989980D02*
X189911218Y-113037600D01*
X189911218Y-113037600D02*
X189815980Y-113085219D01*
X189815980Y-113085219D02*
X189530266Y-113085219D01*
X189530266Y-113085219D02*
X189435028Y-113037600D01*
X189435028Y-113037600D02*
X189387409Y-112989980D01*
X190958837Y-113085219D02*
X190387409Y-113085219D01*
X190673123Y-113085219D02*
X190673123Y-112085219D01*
X190673123Y-112085219D02*
X190577885Y-112228076D01*
X190577885Y-112228076D02*
X190482647Y-112323314D01*
X190482647Y-112323314D02*
X190387409Y-112370933D01*
X191387409Y-113085219D02*
X191387409Y-112418552D01*
X191387409Y-112085219D02*
X191339790Y-112132838D01*
X191339790Y-112132838D02*
X191387409Y-112180457D01*
X191387409Y-112180457D02*
X191435028Y-112132838D01*
X191435028Y-112132838D02*
X191387409Y-112085219D01*
X191387409Y-112085219D02*
X191387409Y-112180457D01*
X191863599Y-112418552D02*
X191863599Y-113085219D01*
X191863599Y-112513790D02*
X191911218Y-112466171D01*
X191911218Y-112466171D02*
X192006456Y-112418552D01*
X192006456Y-112418552D02*
X192149313Y-112418552D01*
X192149313Y-112418552D02*
X192244551Y-112466171D01*
X192244551Y-112466171D02*
X192292170Y-112561409D01*
X192292170Y-112561409D02*
X192292170Y-113085219D01*
X193482646Y-112037600D02*
X192625504Y-113323314D01*
X194006456Y-112085219D02*
X194101694Y-112085219D01*
X194101694Y-112085219D02*
X194196932Y-112132838D01*
X194196932Y-112132838D02*
X194244551Y-112180457D01*
X194244551Y-112180457D02*
X194292170Y-112275695D01*
X194292170Y-112275695D02*
X194339789Y-112466171D01*
X194339789Y-112466171D02*
X194339789Y-112704266D01*
X194339789Y-112704266D02*
X194292170Y-112894742D01*
X194292170Y-112894742D02*
X194244551Y-112989980D01*
X194244551Y-112989980D02*
X194196932Y-113037600D01*
X194196932Y-113037600D02*
X194101694Y-113085219D01*
X194101694Y-113085219D02*
X194006456Y-113085219D01*
X194006456Y-113085219D02*
X193911218Y-113037600D01*
X193911218Y-113037600D02*
X193863599Y-112989980D01*
X193863599Y-112989980D02*
X193815980Y-112894742D01*
X193815980Y-112894742D02*
X193768361Y-112704266D01*
X193768361Y-112704266D02*
X193768361Y-112466171D01*
X193768361Y-112466171D02*
X193815980Y-112275695D01*
X193815980Y-112275695D02*
X193863599Y-112180457D01*
X193863599Y-112180457D02*
X193911218Y-112132838D01*
X193911218Y-112132838D02*
X194006456Y-112085219D01*
X194768361Y-112989980D02*
X194815980Y-113037600D01*
X194815980Y-113037600D02*
X194768361Y-113085219D01*
X194768361Y-113085219D02*
X194720742Y-113037600D01*
X194720742Y-113037600D02*
X194768361Y-112989980D01*
X194768361Y-112989980D02*
X194768361Y-113085219D01*
X195387408Y-112513790D02*
X195292170Y-112466171D01*
X195292170Y-112466171D02*
X195244551Y-112418552D01*
X195244551Y-112418552D02*
X195196932Y-112323314D01*
X195196932Y-112323314D02*
X195196932Y-112275695D01*
X195196932Y-112275695D02*
X195244551Y-112180457D01*
X195244551Y-112180457D02*
X195292170Y-112132838D01*
X195292170Y-112132838D02*
X195387408Y-112085219D01*
X195387408Y-112085219D02*
X195577884Y-112085219D01*
X195577884Y-112085219D02*
X195673122Y-112132838D01*
X195673122Y-112132838D02*
X195720741Y-112180457D01*
X195720741Y-112180457D02*
X195768360Y-112275695D01*
X195768360Y-112275695D02*
X195768360Y-112323314D01*
X195768360Y-112323314D02*
X195720741Y-112418552D01*
X195720741Y-112418552D02*
X195673122Y-112466171D01*
X195673122Y-112466171D02*
X195577884Y-112513790D01*
X195577884Y-112513790D02*
X195387408Y-112513790D01*
X195387408Y-112513790D02*
X195292170Y-112561409D01*
X195292170Y-112561409D02*
X195244551Y-112609028D01*
X195244551Y-112609028D02*
X195196932Y-112704266D01*
X195196932Y-112704266D02*
X195196932Y-112894742D01*
X195196932Y-112894742D02*
X195244551Y-112989980D01*
X195244551Y-112989980D02*
X195292170Y-113037600D01*
X195292170Y-113037600D02*
X195387408Y-113085219D01*
X195387408Y-113085219D02*
X195577884Y-113085219D01*
X195577884Y-113085219D02*
X195673122Y-113037600D01*
X195673122Y-113037600D02*
X195720741Y-112989980D01*
X195720741Y-112989980D02*
X195768360Y-112894742D01*
X195768360Y-112894742D02*
X195768360Y-112704266D01*
X195768360Y-112704266D02*
X195720741Y-112609028D01*
X195720741Y-112609028D02*
X195673122Y-112561409D01*
X195673122Y-112561409D02*
X195577884Y-112513790D01*
X196196932Y-113085219D02*
X196196932Y-112418552D01*
X196196932Y-112513790D02*
X196244551Y-112466171D01*
X196244551Y-112466171D02*
X196339789Y-112418552D01*
X196339789Y-112418552D02*
X196482646Y-112418552D01*
X196482646Y-112418552D02*
X196577884Y-112466171D01*
X196577884Y-112466171D02*
X196625503Y-112561409D01*
X196625503Y-112561409D02*
X196625503Y-113085219D01*
X196625503Y-112561409D02*
X196673122Y-112466171D01*
X196673122Y-112466171D02*
X196768360Y-112418552D01*
X196768360Y-112418552D02*
X196911217Y-112418552D01*
X196911217Y-112418552D02*
X197006456Y-112466171D01*
X197006456Y-112466171D02*
X197054075Y-112561409D01*
X197054075Y-112561409D02*
X197054075Y-113085219D01*
X197530265Y-113085219D02*
X197530265Y-112418552D01*
X197530265Y-112513790D02*
X197577884Y-112466171D01*
X197577884Y-112466171D02*
X197673122Y-112418552D01*
X197673122Y-112418552D02*
X197815979Y-112418552D01*
X197815979Y-112418552D02*
X197911217Y-112466171D01*
X197911217Y-112466171D02*
X197958836Y-112561409D01*
X197958836Y-112561409D02*
X197958836Y-113085219D01*
X197958836Y-112561409D02*
X198006455Y-112466171D01*
X198006455Y-112466171D02*
X198101693Y-112418552D01*
X198101693Y-112418552D02*
X198244550Y-112418552D01*
X198244550Y-112418552D02*
X198339789Y-112466171D01*
X198339789Y-112466171D02*
X198387408Y-112561409D01*
X198387408Y-112561409D02*
X198387408Y-113085219D01*
X187889190Y-110071819D02*
X187984428Y-110071819D01*
X187984428Y-110071819D02*
X188079666Y-110119438D01*
X188079666Y-110119438D02*
X188127285Y-110167057D01*
X188127285Y-110167057D02*
X188174904Y-110262295D01*
X188174904Y-110262295D02*
X188222523Y-110452771D01*
X188222523Y-110452771D02*
X188222523Y-110690866D01*
X188222523Y-110690866D02*
X188174904Y-110881342D01*
X188174904Y-110881342D02*
X188127285Y-110976580D01*
X188127285Y-110976580D02*
X188079666Y-111024200D01*
X188079666Y-111024200D02*
X187984428Y-111071819D01*
X187984428Y-111071819D02*
X187889190Y-111071819D01*
X187889190Y-111071819D02*
X187793952Y-111024200D01*
X187793952Y-111024200D02*
X187746333Y-110976580D01*
X187746333Y-110976580D02*
X187698714Y-110881342D01*
X187698714Y-110881342D02*
X187651095Y-110690866D01*
X187651095Y-110690866D02*
X187651095Y-110452771D01*
X187651095Y-110452771D02*
X187698714Y-110262295D01*
X187698714Y-110262295D02*
X187746333Y-110167057D01*
X187746333Y-110167057D02*
X187793952Y-110119438D01*
X187793952Y-110119438D02*
X187889190Y-110071819D01*
X188651095Y-110976580D02*
X188698714Y-111024200D01*
X188698714Y-111024200D02*
X188651095Y-111071819D01*
X188651095Y-111071819D02*
X188603476Y-111024200D01*
X188603476Y-111024200D02*
X188651095Y-110976580D01*
X188651095Y-110976580D02*
X188651095Y-111071819D01*
X189317761Y-110071819D02*
X189412999Y-110071819D01*
X189412999Y-110071819D02*
X189508237Y-110119438D01*
X189508237Y-110119438D02*
X189555856Y-110167057D01*
X189555856Y-110167057D02*
X189603475Y-110262295D01*
X189603475Y-110262295D02*
X189651094Y-110452771D01*
X189651094Y-110452771D02*
X189651094Y-110690866D01*
X189651094Y-110690866D02*
X189603475Y-110881342D01*
X189603475Y-110881342D02*
X189555856Y-110976580D01*
X189555856Y-110976580D02*
X189508237Y-111024200D01*
X189508237Y-111024200D02*
X189412999Y-111071819D01*
X189412999Y-111071819D02*
X189317761Y-111071819D01*
X189317761Y-111071819D02*
X189222523Y-111024200D01*
X189222523Y-111024200D02*
X189174904Y-110976580D01*
X189174904Y-110976580D02*
X189127285Y-110881342D01*
X189127285Y-110881342D02*
X189079666Y-110690866D01*
X189079666Y-110690866D02*
X189079666Y-110452771D01*
X189079666Y-110452771D02*
X189127285Y-110262295D01*
X189127285Y-110262295D02*
X189174904Y-110167057D01*
X189174904Y-110167057D02*
X189222523Y-110119438D01*
X189222523Y-110119438D02*
X189317761Y-110071819D01*
X190555856Y-110071819D02*
X190079666Y-110071819D01*
X190079666Y-110071819D02*
X190032047Y-110548009D01*
X190032047Y-110548009D02*
X190079666Y-110500390D01*
X190079666Y-110500390D02*
X190174904Y-110452771D01*
X190174904Y-110452771D02*
X190412999Y-110452771D01*
X190412999Y-110452771D02*
X190508237Y-110500390D01*
X190508237Y-110500390D02*
X190555856Y-110548009D01*
X190555856Y-110548009D02*
X190603475Y-110643247D01*
X190603475Y-110643247D02*
X190603475Y-110881342D01*
X190603475Y-110881342D02*
X190555856Y-110976580D01*
X190555856Y-110976580D02*
X190508237Y-111024200D01*
X190508237Y-111024200D02*
X190412999Y-111071819D01*
X190412999Y-111071819D02*
X190174904Y-111071819D01*
X190174904Y-111071819D02*
X190079666Y-111024200D01*
X190079666Y-111024200D02*
X190032047Y-110976580D01*
X191174904Y-110500390D02*
X191079666Y-110452771D01*
X191079666Y-110452771D02*
X191032047Y-110405152D01*
X191032047Y-110405152D02*
X190984428Y-110309914D01*
X190984428Y-110309914D02*
X190984428Y-110262295D01*
X190984428Y-110262295D02*
X191032047Y-110167057D01*
X191032047Y-110167057D02*
X191079666Y-110119438D01*
X191079666Y-110119438D02*
X191174904Y-110071819D01*
X191174904Y-110071819D02*
X191365380Y-110071819D01*
X191365380Y-110071819D02*
X191460618Y-110119438D01*
X191460618Y-110119438D02*
X191508237Y-110167057D01*
X191508237Y-110167057D02*
X191555856Y-110262295D01*
X191555856Y-110262295D02*
X191555856Y-110309914D01*
X191555856Y-110309914D02*
X191508237Y-110405152D01*
X191508237Y-110405152D02*
X191460618Y-110452771D01*
X191460618Y-110452771D02*
X191365380Y-110500390D01*
X191365380Y-110500390D02*
X191174904Y-110500390D01*
X191174904Y-110500390D02*
X191079666Y-110548009D01*
X191079666Y-110548009D02*
X191032047Y-110595628D01*
X191032047Y-110595628D02*
X190984428Y-110690866D01*
X190984428Y-110690866D02*
X190984428Y-110881342D01*
X190984428Y-110881342D02*
X191032047Y-110976580D01*
X191032047Y-110976580D02*
X191079666Y-111024200D01*
X191079666Y-111024200D02*
X191174904Y-111071819D01*
X191174904Y-111071819D02*
X191365380Y-111071819D01*
X191365380Y-111071819D02*
X191460618Y-111024200D01*
X191460618Y-111024200D02*
X191508237Y-110976580D01*
X191508237Y-110976580D02*
X191555856Y-110881342D01*
X191555856Y-110881342D02*
X191555856Y-110690866D01*
X191555856Y-110690866D02*
X191508237Y-110595628D01*
X191508237Y-110595628D02*
X191460618Y-110548009D01*
X191460618Y-110548009D02*
X191365380Y-110500390D01*
X191984428Y-111071819D02*
X191984428Y-110405152D01*
X191984428Y-110071819D02*
X191936809Y-110119438D01*
X191936809Y-110119438D02*
X191984428Y-110167057D01*
X191984428Y-110167057D02*
X192032047Y-110119438D01*
X192032047Y-110119438D02*
X191984428Y-110071819D01*
X191984428Y-110071819D02*
X191984428Y-110167057D01*
X192460618Y-110405152D02*
X192460618Y-111071819D01*
X192460618Y-110500390D02*
X192508237Y-110452771D01*
X192508237Y-110452771D02*
X192603475Y-110405152D01*
X192603475Y-110405152D02*
X192746332Y-110405152D01*
X192746332Y-110405152D02*
X192841570Y-110452771D01*
X192841570Y-110452771D02*
X192889189Y-110548009D01*
X192889189Y-110548009D02*
X192889189Y-111071819D01*
X194079665Y-110024200D02*
X193222523Y-111309914D01*
X194936808Y-111071819D02*
X194365380Y-111071819D01*
X194651094Y-111071819D02*
X194651094Y-110071819D01*
X194651094Y-110071819D02*
X194555856Y-110214676D01*
X194555856Y-110214676D02*
X194460618Y-110309914D01*
X194460618Y-110309914D02*
X194365380Y-110357533D01*
X195365380Y-110976580D02*
X195412999Y-111024200D01*
X195412999Y-111024200D02*
X195365380Y-111071819D01*
X195365380Y-111071819D02*
X195317761Y-111024200D01*
X195317761Y-111024200D02*
X195365380Y-110976580D01*
X195365380Y-110976580D02*
X195365380Y-111071819D01*
X196270141Y-110405152D02*
X196270141Y-111071819D01*
X196032046Y-110024200D02*
X195793951Y-110738485D01*
X195793951Y-110738485D02*
X196412998Y-110738485D01*
X197222522Y-110071819D02*
X197032046Y-110071819D01*
X197032046Y-110071819D02*
X196936808Y-110119438D01*
X196936808Y-110119438D02*
X196889189Y-110167057D01*
X196889189Y-110167057D02*
X196793951Y-110309914D01*
X196793951Y-110309914D02*
X196746332Y-110500390D01*
X196746332Y-110500390D02*
X196746332Y-110881342D01*
X196746332Y-110881342D02*
X196793951Y-110976580D01*
X196793951Y-110976580D02*
X196841570Y-111024200D01*
X196841570Y-111024200D02*
X196936808Y-111071819D01*
X196936808Y-111071819D02*
X197127284Y-111071819D01*
X197127284Y-111071819D02*
X197222522Y-111024200D01*
X197222522Y-111024200D02*
X197270141Y-110976580D01*
X197270141Y-110976580D02*
X197317760Y-110881342D01*
X197317760Y-110881342D02*
X197317760Y-110643247D01*
X197317760Y-110643247D02*
X197270141Y-110548009D01*
X197270141Y-110548009D02*
X197222522Y-110500390D01*
X197222522Y-110500390D02*
X197127284Y-110452771D01*
X197127284Y-110452771D02*
X196936808Y-110452771D01*
X196936808Y-110452771D02*
X196841570Y-110500390D01*
X196841570Y-110500390D02*
X196793951Y-110548009D01*
X196793951Y-110548009D02*
X196746332Y-110643247D01*
X197698713Y-110167057D02*
X197746332Y-110119438D01*
X197746332Y-110119438D02*
X197841570Y-110071819D01*
X197841570Y-110071819D02*
X198079665Y-110071819D01*
X198079665Y-110071819D02*
X198174903Y-110119438D01*
X198174903Y-110119438D02*
X198222522Y-110167057D01*
X198222522Y-110167057D02*
X198270141Y-110262295D01*
X198270141Y-110262295D02*
X198270141Y-110357533D01*
X198270141Y-110357533D02*
X198222522Y-110500390D01*
X198222522Y-110500390D02*
X197651094Y-111071819D01*
X197651094Y-111071819D02*
X198270141Y-111071819D01*
X198698713Y-111071819D02*
X198698713Y-110405152D01*
X198698713Y-110500390D02*
X198746332Y-110452771D01*
X198746332Y-110452771D02*
X198841570Y-110405152D01*
X198841570Y-110405152D02*
X198984427Y-110405152D01*
X198984427Y-110405152D02*
X199079665Y-110452771D01*
X199079665Y-110452771D02*
X199127284Y-110548009D01*
X199127284Y-110548009D02*
X199127284Y-111071819D01*
X199127284Y-110548009D02*
X199174903Y-110452771D01*
X199174903Y-110452771D02*
X199270141Y-110405152D01*
X199270141Y-110405152D02*
X199412998Y-110405152D01*
X199412998Y-110405152D02*
X199508237Y-110452771D01*
X199508237Y-110452771D02*
X199555856Y-110548009D01*
X199555856Y-110548009D02*
X199555856Y-111071819D01*
X200032046Y-111071819D02*
X200032046Y-110405152D01*
X200032046Y-110500390D02*
X200079665Y-110452771D01*
X200079665Y-110452771D02*
X200174903Y-110405152D01*
X200174903Y-110405152D02*
X200317760Y-110405152D01*
X200317760Y-110405152D02*
X200412998Y-110452771D01*
X200412998Y-110452771D02*
X200460617Y-110548009D01*
X200460617Y-110548009D02*
X200460617Y-111071819D01*
X200460617Y-110548009D02*
X200508236Y-110452771D01*
X200508236Y-110452771D02*
X200603474Y-110405152D01*
X200603474Y-110405152D02*
X200746331Y-110405152D01*
X200746331Y-110405152D02*
X200841570Y-110452771D01*
X200841570Y-110452771D02*
X200889189Y-110548009D01*
X200889189Y-110548009D02*
X200889189Y-111071819D01*
X176821199Y-125997619D02*
X176916437Y-125997619D01*
X176916437Y-125997619D02*
X177011675Y-126045238D01*
X177011675Y-126045238D02*
X177059294Y-126092857D01*
X177059294Y-126092857D02*
X177106913Y-126188095D01*
X177106913Y-126188095D02*
X177154532Y-126378571D01*
X177154532Y-126378571D02*
X177154532Y-126616666D01*
X177154532Y-126616666D02*
X177106913Y-126807142D01*
X177106913Y-126807142D02*
X177059294Y-126902380D01*
X177059294Y-126902380D02*
X177011675Y-126950000D01*
X177011675Y-126950000D02*
X176916437Y-126997619D01*
X176916437Y-126997619D02*
X176821199Y-126997619D01*
X176821199Y-126997619D02*
X176725961Y-126950000D01*
X176725961Y-126950000D02*
X176678342Y-126902380D01*
X176678342Y-126902380D02*
X176630723Y-126807142D01*
X176630723Y-126807142D02*
X176583104Y-126616666D01*
X176583104Y-126616666D02*
X176583104Y-126378571D01*
X176583104Y-126378571D02*
X176630723Y-126188095D01*
X176630723Y-126188095D02*
X176678342Y-126092857D01*
X176678342Y-126092857D02*
X176725961Y-126045238D01*
X176725961Y-126045238D02*
X176821199Y-125997619D01*
X177583104Y-126902380D02*
X177630723Y-126950000D01*
X177630723Y-126950000D02*
X177583104Y-126997619D01*
X177583104Y-126997619D02*
X177535485Y-126950000D01*
X177535485Y-126950000D02*
X177583104Y-126902380D01*
X177583104Y-126902380D02*
X177583104Y-126997619D01*
X178487865Y-126330952D02*
X178487865Y-126997619D01*
X178249770Y-125950000D02*
X178011675Y-126664285D01*
X178011675Y-126664285D02*
X178630722Y-126664285D01*
X179440246Y-126330952D02*
X179440246Y-126997619D01*
X179202151Y-125950000D02*
X178964056Y-126664285D01*
X178964056Y-126664285D02*
X179583103Y-126664285D01*
X179916437Y-126092857D02*
X179964056Y-126045238D01*
X179964056Y-126045238D02*
X180059294Y-125997619D01*
X180059294Y-125997619D02*
X180297389Y-125997619D01*
X180297389Y-125997619D02*
X180392627Y-126045238D01*
X180392627Y-126045238D02*
X180440246Y-126092857D01*
X180440246Y-126092857D02*
X180487865Y-126188095D01*
X180487865Y-126188095D02*
X180487865Y-126283333D01*
X180487865Y-126283333D02*
X180440246Y-126426190D01*
X180440246Y-126426190D02*
X179868818Y-126997619D01*
X179868818Y-126997619D02*
X180487865Y-126997619D01*
X180916437Y-126997619D02*
X180916437Y-126330952D01*
X180916437Y-125997619D02*
X180868818Y-126045238D01*
X180868818Y-126045238D02*
X180916437Y-126092857D01*
X180916437Y-126092857D02*
X180964056Y-126045238D01*
X180964056Y-126045238D02*
X180916437Y-125997619D01*
X180916437Y-125997619D02*
X180916437Y-126092857D01*
X181392627Y-126330952D02*
X181392627Y-126997619D01*
X181392627Y-126426190D02*
X181440246Y-126378571D01*
X181440246Y-126378571D02*
X181535484Y-126330952D01*
X181535484Y-126330952D02*
X181678341Y-126330952D01*
X181678341Y-126330952D02*
X181773579Y-126378571D01*
X181773579Y-126378571D02*
X181821198Y-126473809D01*
X181821198Y-126473809D02*
X181821198Y-126997619D01*
X183011674Y-125950000D02*
X182154532Y-127235714D01*
X183868817Y-126997619D02*
X183297389Y-126997619D01*
X183583103Y-126997619D02*
X183583103Y-125997619D01*
X183583103Y-125997619D02*
X183487865Y-126140476D01*
X183487865Y-126140476D02*
X183392627Y-126235714D01*
X183392627Y-126235714D02*
X183297389Y-126283333D01*
X184821198Y-126997619D02*
X184249770Y-126997619D01*
X184535484Y-126997619D02*
X184535484Y-125997619D01*
X184535484Y-125997619D02*
X184440246Y-126140476D01*
X184440246Y-126140476D02*
X184345008Y-126235714D01*
X184345008Y-126235714D02*
X184249770Y-126283333D01*
X185249770Y-126902380D02*
X185297389Y-126950000D01*
X185297389Y-126950000D02*
X185249770Y-126997619D01*
X185249770Y-126997619D02*
X185202151Y-126950000D01*
X185202151Y-126950000D02*
X185249770Y-126902380D01*
X185249770Y-126902380D02*
X185249770Y-126997619D01*
X185678341Y-126092857D02*
X185725960Y-126045238D01*
X185725960Y-126045238D02*
X185821198Y-125997619D01*
X185821198Y-125997619D02*
X186059293Y-125997619D01*
X186059293Y-125997619D02*
X186154531Y-126045238D01*
X186154531Y-126045238D02*
X186202150Y-126092857D01*
X186202150Y-126092857D02*
X186249769Y-126188095D01*
X186249769Y-126188095D02*
X186249769Y-126283333D01*
X186249769Y-126283333D02*
X186202150Y-126426190D01*
X186202150Y-126426190D02*
X185630722Y-126997619D01*
X185630722Y-126997619D02*
X186249769Y-126997619D01*
X186630722Y-126092857D02*
X186678341Y-126045238D01*
X186678341Y-126045238D02*
X186773579Y-125997619D01*
X186773579Y-125997619D02*
X187011674Y-125997619D01*
X187011674Y-125997619D02*
X187106912Y-126045238D01*
X187106912Y-126045238D02*
X187154531Y-126092857D01*
X187154531Y-126092857D02*
X187202150Y-126188095D01*
X187202150Y-126188095D02*
X187202150Y-126283333D01*
X187202150Y-126283333D02*
X187154531Y-126426190D01*
X187154531Y-126426190D02*
X186583103Y-126997619D01*
X186583103Y-126997619D02*
X187202150Y-126997619D01*
X187535484Y-125997619D02*
X188202150Y-125997619D01*
X188202150Y-125997619D02*
X187773579Y-126997619D01*
X188583103Y-126997619D02*
X188583103Y-126330952D01*
X188583103Y-126426190D02*
X188630722Y-126378571D01*
X188630722Y-126378571D02*
X188725960Y-126330952D01*
X188725960Y-126330952D02*
X188868817Y-126330952D01*
X188868817Y-126330952D02*
X188964055Y-126378571D01*
X188964055Y-126378571D02*
X189011674Y-126473809D01*
X189011674Y-126473809D02*
X189011674Y-126997619D01*
X189011674Y-126473809D02*
X189059293Y-126378571D01*
X189059293Y-126378571D02*
X189154531Y-126330952D01*
X189154531Y-126330952D02*
X189297388Y-126330952D01*
X189297388Y-126330952D02*
X189392627Y-126378571D01*
X189392627Y-126378571D02*
X189440246Y-126473809D01*
X189440246Y-126473809D02*
X189440246Y-126997619D01*
X189916436Y-126997619D02*
X189916436Y-126330952D01*
X189916436Y-126426190D02*
X189964055Y-126378571D01*
X189964055Y-126378571D02*
X190059293Y-126330952D01*
X190059293Y-126330952D02*
X190202150Y-126330952D01*
X190202150Y-126330952D02*
X190297388Y-126378571D01*
X190297388Y-126378571D02*
X190345007Y-126473809D01*
X190345007Y-126473809D02*
X190345007Y-126997619D01*
X190345007Y-126473809D02*
X190392626Y-126378571D01*
X190392626Y-126378571D02*
X190487864Y-126330952D01*
X190487864Y-126330952D02*
X190630721Y-126330952D01*
X190630721Y-126330952D02*
X190725960Y-126378571D01*
X190725960Y-126378571D02*
X190773579Y-126473809D01*
X190773579Y-126473809D02*
X190773579Y-126997619D01*
X176821199Y-128385219D02*
X176916437Y-128385219D01*
X176916437Y-128385219D02*
X177011675Y-128432838D01*
X177011675Y-128432838D02*
X177059294Y-128480457D01*
X177059294Y-128480457D02*
X177106913Y-128575695D01*
X177106913Y-128575695D02*
X177154532Y-128766171D01*
X177154532Y-128766171D02*
X177154532Y-129004266D01*
X177154532Y-129004266D02*
X177106913Y-129194742D01*
X177106913Y-129194742D02*
X177059294Y-129289980D01*
X177059294Y-129289980D02*
X177011675Y-129337600D01*
X177011675Y-129337600D02*
X176916437Y-129385219D01*
X176916437Y-129385219D02*
X176821199Y-129385219D01*
X176821199Y-129385219D02*
X176725961Y-129337600D01*
X176725961Y-129337600D02*
X176678342Y-129289980D01*
X176678342Y-129289980D02*
X176630723Y-129194742D01*
X176630723Y-129194742D02*
X176583104Y-129004266D01*
X176583104Y-129004266D02*
X176583104Y-128766171D01*
X176583104Y-128766171D02*
X176630723Y-128575695D01*
X176630723Y-128575695D02*
X176678342Y-128480457D01*
X176678342Y-128480457D02*
X176725961Y-128432838D01*
X176725961Y-128432838D02*
X176821199Y-128385219D01*
X177583104Y-129289980D02*
X177630723Y-129337600D01*
X177630723Y-129337600D02*
X177583104Y-129385219D01*
X177583104Y-129385219D02*
X177535485Y-129337600D01*
X177535485Y-129337600D02*
X177583104Y-129289980D01*
X177583104Y-129289980D02*
X177583104Y-129385219D01*
X178487865Y-128718552D02*
X178487865Y-129385219D01*
X178249770Y-128337600D02*
X178011675Y-129051885D01*
X178011675Y-129051885D02*
X178630722Y-129051885D01*
X179440246Y-128718552D02*
X179440246Y-129385219D01*
X179202151Y-128337600D02*
X178964056Y-129051885D01*
X178964056Y-129051885D02*
X179583103Y-129051885D01*
X179916437Y-128480457D02*
X179964056Y-128432838D01*
X179964056Y-128432838D02*
X180059294Y-128385219D01*
X180059294Y-128385219D02*
X180297389Y-128385219D01*
X180297389Y-128385219D02*
X180392627Y-128432838D01*
X180392627Y-128432838D02*
X180440246Y-128480457D01*
X180440246Y-128480457D02*
X180487865Y-128575695D01*
X180487865Y-128575695D02*
X180487865Y-128670933D01*
X180487865Y-128670933D02*
X180440246Y-128813790D01*
X180440246Y-128813790D02*
X179868818Y-129385219D01*
X179868818Y-129385219D02*
X180487865Y-129385219D01*
X180916437Y-129385219D02*
X180916437Y-128718552D01*
X180916437Y-128385219D02*
X180868818Y-128432838D01*
X180868818Y-128432838D02*
X180916437Y-128480457D01*
X180916437Y-128480457D02*
X180964056Y-128432838D01*
X180964056Y-128432838D02*
X180916437Y-128385219D01*
X180916437Y-128385219D02*
X180916437Y-128480457D01*
X181392627Y-128718552D02*
X181392627Y-129385219D01*
X181392627Y-128813790D02*
X181440246Y-128766171D01*
X181440246Y-128766171D02*
X181535484Y-128718552D01*
X181535484Y-128718552D02*
X181678341Y-128718552D01*
X181678341Y-128718552D02*
X181773579Y-128766171D01*
X181773579Y-128766171D02*
X181821198Y-128861409D01*
X181821198Y-128861409D02*
X181821198Y-129385219D01*
X183011674Y-128337600D02*
X182154532Y-129623314D01*
X183868817Y-129385219D02*
X183297389Y-129385219D01*
X183583103Y-129385219D02*
X183583103Y-128385219D01*
X183583103Y-128385219D02*
X183487865Y-128528076D01*
X183487865Y-128528076D02*
X183392627Y-128623314D01*
X183392627Y-128623314D02*
X183297389Y-128670933D01*
X184821198Y-129385219D02*
X184249770Y-129385219D01*
X184535484Y-129385219D02*
X184535484Y-128385219D01*
X184535484Y-128385219D02*
X184440246Y-128528076D01*
X184440246Y-128528076D02*
X184345008Y-128623314D01*
X184345008Y-128623314D02*
X184249770Y-128670933D01*
X185249770Y-129289980D02*
X185297389Y-129337600D01*
X185297389Y-129337600D02*
X185249770Y-129385219D01*
X185249770Y-129385219D02*
X185202151Y-129337600D01*
X185202151Y-129337600D02*
X185249770Y-129289980D01*
X185249770Y-129289980D02*
X185249770Y-129385219D01*
X185678341Y-128480457D02*
X185725960Y-128432838D01*
X185725960Y-128432838D02*
X185821198Y-128385219D01*
X185821198Y-128385219D02*
X186059293Y-128385219D01*
X186059293Y-128385219D02*
X186154531Y-128432838D01*
X186154531Y-128432838D02*
X186202150Y-128480457D01*
X186202150Y-128480457D02*
X186249769Y-128575695D01*
X186249769Y-128575695D02*
X186249769Y-128670933D01*
X186249769Y-128670933D02*
X186202150Y-128813790D01*
X186202150Y-128813790D02*
X185630722Y-129385219D01*
X185630722Y-129385219D02*
X186249769Y-129385219D01*
X186630722Y-128480457D02*
X186678341Y-128432838D01*
X186678341Y-128432838D02*
X186773579Y-128385219D01*
X186773579Y-128385219D02*
X187011674Y-128385219D01*
X187011674Y-128385219D02*
X187106912Y-128432838D01*
X187106912Y-128432838D02*
X187154531Y-128480457D01*
X187154531Y-128480457D02*
X187202150Y-128575695D01*
X187202150Y-128575695D02*
X187202150Y-128670933D01*
X187202150Y-128670933D02*
X187154531Y-128813790D01*
X187154531Y-128813790D02*
X186583103Y-129385219D01*
X186583103Y-129385219D02*
X187202150Y-129385219D01*
X187535484Y-128385219D02*
X188202150Y-128385219D01*
X188202150Y-128385219D02*
X187773579Y-129385219D01*
X188583103Y-129385219D02*
X188583103Y-128718552D01*
X188583103Y-128813790D02*
X188630722Y-128766171D01*
X188630722Y-128766171D02*
X188725960Y-128718552D01*
X188725960Y-128718552D02*
X188868817Y-128718552D01*
X188868817Y-128718552D02*
X188964055Y-128766171D01*
X188964055Y-128766171D02*
X189011674Y-128861409D01*
X189011674Y-128861409D02*
X189011674Y-129385219D01*
X189011674Y-128861409D02*
X189059293Y-128766171D01*
X189059293Y-128766171D02*
X189154531Y-128718552D01*
X189154531Y-128718552D02*
X189297388Y-128718552D01*
X189297388Y-128718552D02*
X189392627Y-128766171D01*
X189392627Y-128766171D02*
X189440246Y-128861409D01*
X189440246Y-128861409D02*
X189440246Y-129385219D01*
X189916436Y-129385219D02*
X189916436Y-128718552D01*
X189916436Y-128813790D02*
X189964055Y-128766171D01*
X189964055Y-128766171D02*
X190059293Y-128718552D01*
X190059293Y-128718552D02*
X190202150Y-128718552D01*
X190202150Y-128718552D02*
X190297388Y-128766171D01*
X190297388Y-128766171D02*
X190345007Y-128861409D01*
X190345007Y-128861409D02*
X190345007Y-129385219D01*
X190345007Y-128861409D02*
X190392626Y-128766171D01*
X190392626Y-128766171D02*
X190487864Y-128718552D01*
X190487864Y-128718552D02*
X190630721Y-128718552D01*
X190630721Y-128718552D02*
X190725960Y-128766171D01*
X190725960Y-128766171D02*
X190773579Y-128861409D01*
X190773579Y-128861409D02*
X190773579Y-129385219D01*
D11*
X154226325Y-126873000D02*
X154480325Y-126619000D01*
X154226325Y-127381000D02*
X154988325Y-126619000D01*
X154226325Y-127889000D02*
X154226325Y-126619000D01*
X154226325Y-127889000D02*
X155496325Y-126619000D01*
X154734325Y-127889000D02*
X156004325Y-126619000D01*
X155242325Y-127889000D02*
X156512325Y-126619000D01*
X155750325Y-127889000D02*
X156766325Y-126873000D01*
X156258325Y-127889000D02*
X156766325Y-127381000D01*
X156766325Y-126619000D02*
X154226325Y-126619000D01*
X156766325Y-126619000D02*
X156766325Y-127889000D01*
X156766325Y-127889000D02*
X154226325Y-127889000D01*
X154505725Y-97891600D02*
X154759725Y-97637600D01*
X154505725Y-98399600D02*
X155267725Y-97637600D01*
X154505725Y-98907600D02*
X154505725Y-97637600D01*
X154505725Y-98907600D02*
X155775725Y-97637600D01*
X155013725Y-98907600D02*
X156283725Y-97637600D01*
X155521725Y-98907600D02*
X156791725Y-97637600D01*
X156029725Y-98907600D02*
X157045725Y-97891600D01*
X156537725Y-98907600D02*
X157045725Y-98399600D01*
X157045725Y-97637600D02*
X154505725Y-97637600D01*
X157045725Y-97637600D02*
X157045725Y-98907600D01*
X157045725Y-98907600D02*
X154505725Y-98907600D01*
X191042751Y-132184075D02*
X190788751Y-131930075D01*
X191550751Y-132184075D02*
X190788751Y-131422075D01*
X192058751Y-132184075D02*
X190788751Y-132184075D01*
X192058751Y-132184075D02*
X190788751Y-130914075D01*
X192058751Y-131676075D02*
X190788751Y-130406075D01*
X192058751Y-131168075D02*
X190788751Y-129898075D01*
X192058751Y-130660075D02*
X191042751Y-129644075D01*
X192058751Y-130152075D02*
X191550751Y-129644075D01*
X190788751Y-129644075D02*
X190788751Y-132184075D01*
X190788751Y-129644075D02*
X192058751Y-129644075D01*
X192058751Y-129644075D02*
X192058751Y-132184075D01*
X153997725Y-113741200D02*
X154251725Y-113487200D01*
X153997725Y-114249200D02*
X154759725Y-113487200D01*
X153997725Y-114757200D02*
X153997725Y-113487200D01*
X153997725Y-114757200D02*
X155267725Y-113487200D01*
X154505725Y-114757200D02*
X155775725Y-113487200D01*
X155013725Y-114757200D02*
X156283725Y-113487200D01*
X155521725Y-114757200D02*
X156537725Y-113741200D01*
X156029725Y-114757200D02*
X156537725Y-114249200D01*
X156537725Y-113487200D02*
X153997725Y-113487200D01*
X156537725Y-113487200D02*
X156537725Y-114757200D01*
X156537725Y-114757200D02*
X153997725Y-114757200D01*
X154378725Y-69494400D02*
X154632725Y-69240400D01*
X154378725Y-70002400D02*
X155140725Y-69240400D01*
X154378725Y-70510400D02*
X154378725Y-69240400D01*
X154378725Y-70510400D02*
X155648725Y-69240400D01*
X154886725Y-70510400D02*
X156156725Y-69240400D01*
X155394725Y-70510400D02*
X156664725Y-69240400D01*
X155902725Y-70510400D02*
X156918725Y-69494400D01*
X156410725Y-70510400D02*
X156918725Y-70002400D01*
X156918725Y-69240400D02*
X154378725Y-69240400D01*
X156918725Y-69240400D02*
X156918725Y-70510400D01*
X156918725Y-70510400D02*
X154378725Y-70510400D01*
X152626125Y-52857400D02*
X152880125Y-52603400D01*
X152626125Y-53365400D02*
X153388125Y-52603400D01*
X152626125Y-53873400D02*
X152626125Y-52603400D01*
X152626125Y-53873400D02*
X153896125Y-52603400D01*
X153134125Y-53873400D02*
X154404125Y-52603400D01*
X153642125Y-53873400D02*
X154912125Y-52603400D01*
X154150125Y-53873400D02*
X155166125Y-52857400D01*
X154658125Y-53873400D02*
X155166125Y-53365400D01*
X155166125Y-52603400D02*
X152626125Y-52603400D01*
X155166125Y-52603400D02*
X155166125Y-53873400D01*
X155166125Y-53873400D02*
X152626125Y-53873400D01*
X154429525Y-84531200D02*
X154683525Y-84277200D01*
X154429525Y-85039200D02*
X155191525Y-84277200D01*
X154429525Y-85547200D02*
X154429525Y-84277200D01*
X154429525Y-85547200D02*
X155699525Y-84277200D01*
X154937525Y-85547200D02*
X156207525Y-84277200D01*
X155445525Y-85547200D02*
X156715525Y-84277200D01*
X155953525Y-85547200D02*
X156969525Y-84531200D01*
X156461525Y-85547200D02*
X156969525Y-85039200D01*
X156969525Y-84277200D02*
X154429525Y-84277200D01*
X156969525Y-84277200D02*
X156969525Y-85547200D01*
X156969525Y-85547200D02*
X154429525Y-85547200D01*
M02*
